%TF.GenerationSoftware,KiCad,Pcbnew,(6.0.6)*%
%TF.CreationDate,2022-07-21T10:54:16-07:00*%
%TF.ProjectId,ElectronicEggDrop,456c6563-7472-46f6-9e69-634567674472,rev?*%
%TF.SameCoordinates,Original*%
%TF.FileFunction,Copper,L1,Top*%
%TF.FilePolarity,Positive*%
%FSLAX46Y46*%
G04 Gerber Fmt 4.6, Leading zero omitted, Abs format (unit mm)*
G04 Created by KiCad (PCBNEW (6.0.6)) date 2022-07-21 10:54:16*
%MOMM*%
%LPD*%
G01*
G04 APERTURE LIST*
G04 Aperture macros list*
%AMRoundRect*
0 Rectangle with rounded corners*
0 $1 Rounding radius*
0 $2 $3 $4 $5 $6 $7 $8 $9 X,Y pos of 4 corners*
0 Add a 4 corners polygon primitive as box body*
4,1,4,$2,$3,$4,$5,$6,$7,$8,$9,$2,$3,0*
0 Add four circle primitives for the rounded corners*
1,1,$1+$1,$2,$3*
1,1,$1+$1,$4,$5*
1,1,$1+$1,$6,$7*
1,1,$1+$1,$8,$9*
0 Add four rect primitives between the rounded corners*
20,1,$1+$1,$2,$3,$4,$5,0*
20,1,$1+$1,$4,$5,$6,$7,0*
20,1,$1+$1,$6,$7,$8,$9,0*
20,1,$1+$1,$8,$9,$2,$3,0*%
G04 Aperture macros list end*
%TA.AperFunction,Profile*%
%ADD10C,0.025399*%
%TD*%
%TA.AperFunction,ComponentPad*%
%ADD11R,1.524000X1.524000*%
%TD*%
%TA.AperFunction,ComponentPad*%
%ADD12C,1.524000*%
%TD*%
%TA.AperFunction,ComponentPad*%
%ADD13RoundRect,0.250000X0.625000X-0.350000X0.625000X0.350000X-0.625000X0.350000X-0.625000X-0.350000X0*%
%TD*%
%TA.AperFunction,ComponentPad*%
%ADD14O,1.750000X1.200000*%
%TD*%
%TA.AperFunction,ComponentPad*%
%ADD15C,1.400000*%
%TD*%
%TA.AperFunction,ComponentPad*%
%ADD16O,1.400000X1.400000*%
%TD*%
%TA.AperFunction,ComponentPad*%
%ADD17R,1.700000X1.700000*%
%TD*%
%TA.AperFunction,ComponentPad*%
%ADD18O,1.700000X1.700000*%
%TD*%
%TA.AperFunction,ComponentPad*%
%ADD19C,3.800000*%
%TD*%
%TA.AperFunction,Conductor*%
%ADD20C,0.250000*%
%TD*%
G04 APERTURE END LIST*
D10*
X110955611Y-130290463D02*
X110755790Y-129884972D01*
X111953453Y-132047527D02*
X111746614Y-131722071D01*
X109262709Y-126233297D02*
X108865549Y-124967472D01*
X109774374Y-97090331D02*
X110679355Y-93949659D01*
X159048980Y-124434594D02*
X158580224Y-126060765D01*
X132570500Y-67846666D02*
X133224333Y-67810711D01*
X111545642Y-131386665D02*
X111348306Y-131038280D01*
X135197799Y-67846666D02*
X135839665Y-67906591D01*
X133224333Y-67810711D02*
X133884150Y-67798726D01*
X140648716Y-141868040D02*
X139909930Y-141985810D01*
X129108230Y-68565766D02*
X129600509Y-68385991D01*
X107500344Y-112057038D02*
X107589163Y-110413964D01*
X153644037Y-85197673D02*
X154906137Y-87985107D01*
X142399300Y-70666716D02*
X143308753Y-71354665D01*
X114835540Y-135421166D02*
X114835540Y-135421166D01*
X116325886Y-136803079D02*
X115573617Y-136132831D01*
X123565303Y-72103961D02*
X125371362Y-70666342D01*
X129108230Y-68565766D02*
X129108230Y-68565766D01*
X139608018Y-68989629D02*
X140547898Y-69482324D01*
X159048980Y-124434594D02*
X159048980Y-124434594D01*
X138660064Y-68565766D02*
X139608018Y-68989629D01*
X145089993Y-72912702D02*
X145959711Y-73779042D01*
X159518034Y-122405316D02*
X159297061Y-123416277D01*
X138660064Y-68565766D02*
X138660064Y-68565766D01*
X108220406Y-122349862D02*
X107971882Y-120993723D01*
X159297061Y-123416277D02*
X159048980Y-124434594D01*
X117879216Y-138022275D02*
X117093901Y-137432647D01*
X143554273Y-141139184D02*
X141945068Y-141598229D01*
X131304718Y-67990486D02*
X131928634Y-67906591D01*
X115491502Y-82562526D02*
X116951002Y-80084989D01*
X159879333Y-120390834D02*
X159712068Y-121398054D01*
X130594698Y-142383751D02*
X129876023Y-142326217D01*
X143308753Y-71354665D02*
X144205995Y-72103952D01*
X123991364Y-141093309D02*
X123041435Y-140762606D01*
X118496451Y-77785292D02*
X120119529Y-75678508D01*
X148472852Y-76704865D02*
X149275113Y-77782827D01*
X153978971Y-134376577D02*
X152929983Y-135506280D01*
X121224558Y-139996134D02*
X120354502Y-139558891D01*
X159387783Y-103616389D02*
X159860427Y-106976540D01*
X160134238Y-118361896D02*
X160020000Y-119380000D01*
X158762879Y-100314217D02*
X159387783Y-103616389D01*
X118683385Y-138572699D02*
X117879216Y-138022275D01*
X119507963Y-139084659D02*
X118683385Y-138572699D01*
X150605633Y-137530539D02*
X149333701Y-138421653D01*
X107589163Y-110413964D02*
X107725092Y-108721190D01*
X151804966Y-136558174D02*
X150605633Y-137530539D01*
X127025762Y-141884150D02*
X125981973Y-141653343D01*
X133884150Y-67798726D02*
X134543966Y-67810711D01*
X123041435Y-140762606D02*
X122119684Y-140397127D01*
X125371362Y-70666342D02*
X127221777Y-69481919D01*
X158023432Y-127621175D02*
X157380321Y-129114104D01*
X154950214Y-133170787D02*
X153978971Y-134376577D01*
X150820251Y-80081543D02*
X151561060Y-81298549D01*
X157993989Y-97085013D02*
X158762879Y-100314217D01*
X159860427Y-106976540D02*
X159860427Y-106976540D01*
X111348306Y-131038280D02*
X111152373Y-130673889D01*
X145959711Y-73779042D02*
X146814117Y-74701098D01*
X129218078Y-142251046D02*
X129218078Y-142251031D01*
X120119529Y-75678508D02*
X121811920Y-73779707D01*
X158580224Y-126060765D02*
X158023432Y-127621175D01*
X109005252Y-100318416D02*
X109774374Y-97090331D01*
X140547898Y-69482324D02*
X141478670Y-70041978D01*
X130704736Y-68098351D02*
X131304718Y-67990486D01*
X113753080Y-134301541D02*
X113442680Y-133960930D01*
X154906137Y-87985107D02*
X156057345Y-90905468D01*
X160274181Y-111895825D02*
X160314946Y-113034339D01*
X111746614Y-131722071D02*
X111545642Y-131386665D01*
X114126269Y-85202833D02*
X115491502Y-82562526D01*
X113153769Y-133631570D02*
X112884117Y-133310431D01*
X124971025Y-141389976D02*
X123991364Y-141093309D01*
X157380321Y-129114104D02*
X156652603Y-130537829D01*
X112393660Y-132680707D02*
X112168391Y-132366063D01*
X160222218Y-117332865D02*
X160134238Y-118361896D01*
X137063561Y-68098351D02*
X137633624Y-68230186D01*
X129600509Y-68385991D02*
X130134672Y-68230186D01*
X112884117Y-133310431D02*
X112631491Y-132994486D01*
X132177898Y-142447768D02*
X130594698Y-142383751D01*
X147990883Y-139229796D02*
X146578896Y-139953246D01*
X110207559Y-128689869D02*
X109709955Y-127473370D01*
X137633624Y-68230186D02*
X138167786Y-68385991D01*
X128103946Y-142083133D02*
X127025762Y-141884150D01*
X149275113Y-77782827D02*
X150057924Y-78909011D01*
X145099455Y-140590282D02*
X143554273Y-141139184D01*
X156652603Y-130537829D02*
X155841996Y-131890631D01*
X107458904Y-113652591D02*
X107500344Y-112057038D01*
X127221777Y-69481919D02*
X129108230Y-68565766D01*
X130134672Y-68230186D02*
X130704736Y-68098351D01*
X141330124Y-141738691D02*
X140648716Y-141868040D01*
X108380308Y-103618843D02*
X109005252Y-100318416D01*
X125981973Y-141653343D02*
X124971025Y-141389976D01*
X109709955Y-127473370D02*
X109262709Y-126233297D01*
X107907859Y-106976540D02*
X107907859Y-106976540D01*
X135673308Y-142384656D02*
X133894995Y-142446827D01*
X114835540Y-135421166D02*
X114087203Y-134656432D01*
X138167786Y-68385991D02*
X138660064Y-68565766D01*
X144205995Y-72103952D02*
X145089993Y-72912702D01*
X129218078Y-142251031D02*
X128103946Y-142083133D01*
X146814117Y-74701098D02*
X147652175Y-75676997D01*
X160020000Y-119380000D02*
X159879333Y-120390834D01*
X107519249Y-116709839D02*
X107465116Y-115202799D01*
X159712068Y-121398054D02*
X159518034Y-122405316D01*
X111152373Y-130673889D02*
X110955611Y-130290463D01*
X160320080Y-115227395D02*
X160284108Y-116289250D01*
X141478670Y-70041978D02*
X142399300Y-70666716D01*
X108518205Y-123673720D02*
X108220406Y-122349862D01*
X112168391Y-132366063D02*
X111953453Y-132047527D01*
X112631491Y-132994486D02*
X112393660Y-132680707D01*
X110755790Y-129884972D02*
X110755790Y-129884972D01*
X150057924Y-78909011D02*
X150820251Y-80081543D01*
X152929983Y-135506280D02*
X151804966Y-136558174D01*
X114087203Y-134656432D02*
X113753080Y-134301541D01*
X129218078Y-142251046D02*
X129218078Y-142251046D01*
X159860427Y-106976540D02*
X160117102Y-109516541D01*
X152279317Y-82558155D02*
X153644037Y-85197673D01*
X110755790Y-129884972D02*
X110207559Y-128689869D01*
X141945068Y-141598229D02*
X141945068Y-141598229D01*
X113442680Y-133960930D02*
X113153769Y-133631570D01*
X121811920Y-73779707D02*
X123565303Y-72103961D01*
X160284108Y-116289250D02*
X160222218Y-117332865D01*
X112863621Y-87990839D02*
X114126269Y-85202833D01*
X135839665Y-67906591D02*
X136463580Y-67990486D01*
X133894995Y-142446827D02*
X132177898Y-142447768D01*
X115573617Y-136132831D02*
X114835540Y-135421166D01*
X141945068Y-141598229D02*
X141330124Y-141738691D01*
X107465116Y-115202799D02*
X107458904Y-113652591D01*
X160330303Y-114143644D02*
X160320080Y-115227395D01*
X107621574Y-118175888D02*
X107519249Y-116709839D01*
X147652175Y-75676997D02*
X148472852Y-76704865D01*
X117093901Y-137432647D02*
X116325886Y-136803079D01*
X111711877Y-90911471D02*
X112863621Y-87990839D01*
X108865549Y-124967472D02*
X108518205Y-123673720D01*
X155841996Y-131890631D02*
X154950214Y-133170787D01*
X156057345Y-90905468D02*
X157089387Y-93943767D01*
X157089387Y-93943767D02*
X157993989Y-97085013D01*
X107971882Y-120993723D02*
X107772361Y-119603123D01*
X151561060Y-81298549D02*
X152279317Y-82558155D01*
X110679355Y-93949659D02*
X111711877Y-90911471D01*
X139909930Y-141985810D02*
X139122851Y-142091534D01*
X160314946Y-113034339D02*
X160330303Y-114143644D01*
X107772361Y-119603123D02*
X107621574Y-118175888D01*
X136463580Y-67990486D02*
X137063561Y-68098351D01*
X149333701Y-138421653D02*
X147990883Y-139229796D01*
X122119684Y-140397127D02*
X121224558Y-139996134D01*
X116951002Y-80084989D02*
X118496451Y-77785292D01*
X160117102Y-109516541D02*
X160274181Y-111895825D01*
X107907859Y-106976540D02*
X108380308Y-103618843D01*
X137440155Y-142264982D02*
X135673308Y-142384656D01*
X139122851Y-142091534D02*
X137440155Y-142264982D01*
X134543966Y-67810711D02*
X135197799Y-67846666D01*
X107725092Y-108721190D02*
X107907859Y-106976540D01*
X120354502Y-139558891D02*
X119507963Y-139084659D01*
X129876023Y-142326217D02*
X129218078Y-142251046D01*
X146578896Y-139953246D02*
X145099455Y-140590282D01*
X131928634Y-67906591D02*
X132570500Y-67846666D01*
D11*
%TO.P,Arduino Nano,1,D13/GPIO6*%
%TO.N,Net-(Arduino_Nano1-Pad1)*%
X122891023Y-85811217D03*
D12*
%TO.P,Arduino Nano,2,+3V3*%
%TO.N,Net-(Arduino_Nano1-Pad2)*%
X122891023Y-88351217D03*
%TO.P,Arduino Nano,3,AREF*%
%TO.N,unconnected-(Arduino_Nano1-Pad3)*%
X122891023Y-90891217D03*
%TO.P,Arduino Nano,4,A0/DAC0/GPIO26*%
%TO.N,unconnected-(Arduino_Nano1-Pad4)*%
X122891023Y-93431217D03*
%TO.P,Arduino Nano,5,A1/GPIO27*%
%TO.N,unconnected-(Arduino_Nano1-Pad5)*%
X122891023Y-95971217D03*
%TO.P,Arduino Nano,6,A2/GPIO28*%
%TO.N,unconnected-(Arduino_Nano1-Pad6)*%
X122891023Y-98511217D03*
%TO.P,Arduino Nano,7,A3/GPIO29*%
%TO.N,unconnected-(Arduino_Nano1-Pad7)*%
X122891023Y-101051217D03*
%TO.P,Arduino Nano,8,A4/GPIO12*%
%TO.N,unconnected-(Arduino_Nano1-Pad8)*%
X122891023Y-103591217D03*
%TO.P,Arduino Nano,9,A5/GPIO13*%
%TO.N,unconnected-(Arduino_Nano1-Pad9)*%
X122891023Y-106131217D03*
%TO.P,Arduino Nano,10,A6*%
%TO.N,unconnected-(Arduino_Nano1-Pad10)*%
X122891023Y-108671217D03*
%TO.P,Arduino Nano,11,A7*%
%TO.N,unconnected-(Arduino_Nano1-Pad11)*%
X122891023Y-111211217D03*
%TO.P,Arduino Nano,12,+5V*%
%TO.N,Net-(Arduino_Nano1-Pad12)*%
X122891023Y-113751217D03*
%TO.P,Arduino Nano,13,QSPI_~{RESET}*%
%TO.N,unconnected-(Arduino_Nano1-Pad13)*%
X122891023Y-116291217D03*
%TO.P,Arduino Nano,14,GND*%
%TO.N,GND*%
X122891023Y-118831217D03*
%TO.P,Arduino Nano,15,VIN*%
%TO.N,Net-(Arduino_Nano1-Pad15)*%
X122891023Y-121371217D03*
%TO.P,Arduino Nano,16,TX*%
%TO.N,unconnected-(Arduino_Nano1-Pad16)*%
X138131023Y-121371217D03*
%TO.P,Arduino Nano,17,RX*%
%TO.N,unconnected-(Arduino_Nano1-Pad17)*%
X138131023Y-118831217D03*
%TO.P,Arduino Nano,18,~{RESET}*%
%TO.N,unconnected-(Arduino_Nano1-Pad18)*%
X138131023Y-116291217D03*
%TO.P,Arduino Nano,19,GND*%
%TO.N,GND*%
X138131023Y-113751217D03*
%TO.P,Arduino Nano,20,D2/GPIO25*%
%TO.N,Net-(Arduino_Nano1-Pad20)*%
X138131023Y-111211217D03*
%TO.P,Arduino Nano,21,D3/GPIO15*%
%TO.N,Net-(Arduino_Nano1-Pad21)*%
X138131023Y-108671217D03*
%TO.P,Arduino Nano,22,D4/GPIO26*%
%TO.N,Net-(Arduino_Nano1-Pad22)*%
X138131023Y-106131217D03*
%TO.P,Arduino Nano,23,D5/GPIO17*%
%TO.N,Net-(Arduino_Nano1-Pad23)*%
X138131023Y-103591217D03*
%TO.P,Arduino Nano,24,D6/GPIO18*%
%TO.N,Net-(Arduino_Nano1-Pad24)*%
X138131023Y-101051217D03*
%TO.P,Arduino Nano,25,D7/GPIO19*%
%TO.N,Net-(Arduino_Nano1-Pad25)*%
X138131023Y-98511217D03*
%TO.P,Arduino Nano,26,D8/GPIO20*%
%TO.N,Net-(Arduino_Nano1-Pad26)*%
X138131023Y-95971217D03*
%TO.P,Arduino Nano,27,D9/GPIO21*%
%TO.N,unconnected-(Arduino_Nano1-Pad27)*%
X138131023Y-93431217D03*
%TO.P,Arduino Nano,28,D10/GPIO5*%
%TO.N,Net-(Arduino_Nano1-Pad28)*%
X138131023Y-90891217D03*
%TO.P,Arduino Nano,29,D11/GPIO7/COPI*%
%TO.N,Net-(Arduino_Nano1-Pad29)*%
X138131023Y-88351217D03*
%TO.P,Arduino Nano,30,D12/GPIO4/CIPO*%
%TO.N,Net-(Arduino_Nano1-Pad30)*%
X138131023Y-85811217D03*
%TD*%
D13*
%TO.P,+3.7v,1,Pin_1*%
%TO.N,Net-(Power_SW1-Pad2)*%
X132080000Y-138160000D03*
D14*
%TO.P,+3.7v,2,Pin_2*%
%TO.N,Net-(Power_Terminal1-Pad1)*%
X132080000Y-136160000D03*
%TD*%
D15*
%TO.P,R2,1*%
%TO.N,Net-(Arduino_Nano1-Pad25)*%
X117811023Y-116291217D03*
D16*
%TO.P,R2,2*%
%TO.N,Net-(Indicator_LEDs1-Pad3)*%
X112731023Y-116291217D03*
%TD*%
D17*
%TO.P,Indicator_LEDs1,1,RK*%
%TO.N,Net-(Indicator_LEDs1-Pad1)*%
X115570000Y-102870000D03*
D18*
%TO.P,Indicator_LEDs1,2,A*%
%TO.N,GND*%
X118110000Y-102870000D03*
%TO.P,Indicator_LEDs1,3,GK*%
%TO.N,Net-(Indicator_LEDs1-Pad3)*%
X115570000Y-100330000D03*
%TO.P,Indicator_LEDs1,4,BK*%
%TO.N,Net-(Indicator_LEDs1-Pad4)*%
X118110000Y-100330000D03*
%TO.P,Indicator_LEDs1,5*%
%TO.N,N/C*%
X115570000Y-97790000D03*
%TO.P,Indicator_LEDs1,6*%
X118110000Y-97790000D03*
%TD*%
D15*
%TO.P,R3,1*%
%TO.N,Net-(Arduino_Nano1-Pad26)*%
X117811023Y-121371217D03*
D16*
%TO.P,R3,2*%
%TO.N,Net-(Indicator_LEDs1-Pad4)*%
X112731023Y-121371217D03*
%TD*%
D19*
%TO.P,REF\u002A\u002A,1*%
%TO.N,N/C*%
X116840000Y-129540000D03*
%TD*%
D17*
%TO.P,Switch,1,A*%
%TO.N,Net-(Arduino_Nano1-Pad15)*%
X121920000Y-134620000D03*
D18*
%TO.P,Switch,2,B*%
%TO.N,Net-(Power_SW1-Pad2)*%
X124460000Y-134620000D03*
%TD*%
D15*
%TO.P,R1,1*%
%TO.N,Net-(Arduino_Nano1-Pad24)*%
X117811023Y-111211217D03*
D16*
%TO.P,R1,2*%
%TO.N,Net-(Indicator_LEDs1-Pad1)*%
X112731023Y-111211217D03*
%TD*%
D13*
%TO.P,+3.7V,1,Pin_1*%
%TO.N,Net-(Power_Terminal1-Pad1)*%
X132080000Y-130810000D03*
D14*
%TO.P,+3.7V,2,Pin_2*%
%TO.N,GND*%
X132080000Y-128810000D03*
%TD*%
D19*
%TO.P,REF\u002A\u002A,1*%
%TO.N,N/C*%
X116840000Y-88900000D03*
%TD*%
D17*
%TO.P,LIS3DH Connector,1,Pin_1*%
%TO.N,Net-(Arduino_Nano1-Pad12)*%
X146075000Y-113055000D03*
D18*
%TO.P,LIS3DH Connector,2,Pin_2*%
%TO.N,GND*%
X146075000Y-115595000D03*
%TO.P,LIS3DH Connector,3,Pin_3*%
%TO.N,Net-(Arduino_Nano1-Pad20)*%
X146075000Y-118135000D03*
%TO.P,LIS3DH Connector,4,Pin_4*%
%TO.N,Net-(Arduino_Nano1-Pad22)*%
X146075000Y-120675000D03*
%TO.P,LIS3DH Connector,5,Pin_5*%
%TO.N,Net-(Arduino_Nano1-Pad21)*%
X146075000Y-123215000D03*
%TO.P,LIS3DH Connector,6,Pin_6*%
%TO.N,Net-(Arduino_Nano1-Pad23)*%
X146075000Y-125755000D03*
%TD*%
D17*
%TO.P,SD Card Reader Connector,1,Pin_1*%
%TO.N,Net-(Arduino_Nano1-Pad2)*%
X147320000Y-86360000D03*
D18*
%TO.P,SD Card Reader Connector,2,Pin_2*%
%TO.N,GND*%
X147320000Y-88900000D03*
%TO.P,SD Card Reader Connector,3,Pin_3*%
%TO.N,Net-(Arduino_Nano1-Pad1)*%
X147320000Y-91440000D03*
%TO.P,SD Card Reader Connector,4,Pin_4*%
%TO.N,Net-(Arduino_Nano1-Pad30)*%
X147320000Y-93980000D03*
%TO.P,SD Card Reader Connector,5,Pin_5*%
%TO.N,Net-(Arduino_Nano1-Pad29)*%
X147320000Y-96520000D03*
%TO.P,SD Card Reader Connector,6,Pin_6*%
%TO.N,Net-(Arduino_Nano1-Pad28)*%
X147320000Y-99060000D03*
%TD*%
D20*
%TO.N,Net-(Arduino_Nano1-Pad1)*%
X145751023Y-90891217D02*
X143211023Y-88351217D01*
X143211023Y-88351217D02*
X143211023Y-84541217D01*
X145751023Y-90891217D02*
X146771217Y-90891217D01*
X146771217Y-90891217D02*
X147320000Y-91440000D01*
X143211023Y-84541217D02*
X139401023Y-80731217D01*
X120351023Y-83271217D02*
X122891023Y-85811217D01*
X120351023Y-80731217D02*
X120351023Y-83271217D01*
X139401023Y-80731217D02*
X120351023Y-80731217D01*
%TO.N,Net-(Arduino_Nano1-Pad2)*%
X147320000Y-86360000D02*
X146299806Y-86360000D01*
X119081023Y-84541217D02*
X122891023Y-88351217D01*
X146299806Y-86360000D02*
X139401023Y-79461217D01*
X139401023Y-79461217D02*
X119081023Y-79461217D01*
X119081023Y-79461217D02*
X119081023Y-84541217D01*
%TO.N,Net-(Arduino_Nano1-Pad12)*%
X125431023Y-113751217D02*
X122891023Y-113751217D01*
X136861023Y-102321217D02*
X125431023Y-113751217D01*
X141941023Y-102321217D02*
X139401023Y-102321217D01*
X145751023Y-106131217D02*
X141941023Y-102321217D01*
X145751023Y-113116217D02*
X145751023Y-106131217D01*
X139401023Y-102321217D02*
X136861023Y-102321217D01*
%TO.N,GND*%
X143211023Y-97241217D02*
X143211023Y-101051217D01*
X121621023Y-99781217D02*
X131781023Y-99781217D01*
X119928783Y-101051217D02*
X120351023Y-101051217D01*
X132080000Y-128810000D02*
X148050000Y-128810000D01*
X118110000Y-102870000D02*
X119928783Y-101051217D01*
X144780000Y-114300000D02*
X143510000Y-114300000D01*
X149311217Y-90891217D02*
X150831023Y-90891217D01*
X144481023Y-102321217D02*
X149138783Y-102321217D01*
X148590000Y-128270000D02*
X148590000Y-102870000D01*
X146075000Y-115595000D02*
X148565000Y-115595000D01*
X150831023Y-90891217D02*
X150831023Y-102321217D01*
X142961217Y-113751217D02*
X138131023Y-113751217D01*
X149138783Y-102321217D02*
X150831023Y-102321217D01*
X136861023Y-94701217D02*
X140671023Y-94701217D01*
X132080000Y-128810000D02*
X132080000Y-124460000D01*
X126701023Y-118831217D02*
X122891023Y-118831217D01*
X143510000Y-114300000D02*
X142961217Y-113751217D01*
X147320000Y-88900000D02*
X149311217Y-90891217D01*
X148565000Y-115595000D02*
X148590000Y-115570000D01*
X126701023Y-119081023D02*
X126701023Y-118831217D01*
X148050000Y-128810000D02*
X148590000Y-128270000D01*
X148590000Y-102870000D02*
X149138783Y-102321217D01*
X131781023Y-99781217D02*
X136861023Y-94701217D01*
X146075000Y-115595000D02*
X144780000Y-114300000D01*
X143211023Y-101051217D02*
X144481023Y-102321217D01*
X120351023Y-101051217D02*
X121621023Y-99781217D01*
X140671023Y-94701217D02*
X143211023Y-97241217D01*
X132080000Y-124460000D02*
X126701023Y-119081023D01*
%TO.N,Net-(Arduino_Nano1-Pad15)*%
X119380000Y-124460000D02*
X121920000Y-127000000D01*
X122342240Y-121920000D02*
X121920000Y-121920000D01*
X121920000Y-127000000D02*
X121920000Y-134620000D01*
X121920000Y-121920000D02*
X119380000Y-124460000D01*
X122891023Y-121371217D02*
X122342240Y-121920000D01*
%TO.N,Net-(Arduino_Nano1-Pad20)*%
X146075000Y-118135000D02*
X142961217Y-115021217D01*
X142961217Y-115021217D02*
X135591023Y-115021217D01*
X135591023Y-115021217D02*
X135591023Y-113751217D01*
X135591023Y-113751217D02*
X138131023Y-111211217D01*
%TO.N,Net-(Arduino_Nano1-Pad21)*%
X147320000Y-121970000D02*
X147320000Y-119380000D01*
X142662240Y-119380000D02*
X142576023Y-119466217D01*
X134321023Y-112481217D02*
X138131023Y-108671217D01*
X142576023Y-119466217D02*
X140671023Y-117561217D01*
X147320000Y-119380000D02*
X142662240Y-119380000D01*
X134321023Y-117561217D02*
X134321023Y-112481217D01*
X140671023Y-117561217D02*
X134321023Y-117561217D01*
X146075000Y-123215000D02*
X147320000Y-121970000D01*
%TO.N,Net-(Arduino_Nano1-Pad22)*%
X140036023Y-120736217D02*
X139401023Y-120101217D01*
X133051023Y-120101217D02*
X133051023Y-111211217D01*
X146075000Y-120675000D02*
X140097240Y-120675000D01*
X133051023Y-111211217D02*
X138131023Y-106131217D01*
X139401023Y-120101217D02*
X133051023Y-120101217D01*
X140097240Y-120675000D02*
X140036023Y-120736217D01*
%TO.N,Net-(Arduino_Nano1-Pad23)*%
X131781023Y-122641217D02*
X131781023Y-109941217D01*
X142637240Y-125755000D02*
X142576023Y-125816217D01*
X142576023Y-125816217D02*
X139408059Y-122648253D01*
X131788059Y-122648253D02*
X131781023Y-122641217D01*
X131781023Y-109941217D02*
X138131023Y-103591217D01*
X146075000Y-125755000D02*
X142637240Y-125755000D01*
X139408059Y-122648253D02*
X131788059Y-122648253D01*
%TO.N,Net-(Arduino_Nano1-Pad24)*%
X130503987Y-107408253D02*
X136861023Y-101051217D01*
X117811023Y-111211217D02*
X121613987Y-107408253D01*
X121613987Y-107408253D02*
X130503987Y-107408253D01*
X136861023Y-101051217D02*
X138131023Y-101051217D01*
%TO.N,Net-(Arduino_Nano1-Pad25)*%
X116541023Y-112481217D02*
X116541023Y-109941217D01*
X117811023Y-116291217D02*
X117811023Y-113751217D01*
X116541023Y-109941217D02*
X121621023Y-104861217D01*
X121621023Y-104861217D02*
X131781023Y-104861217D01*
X131781023Y-104861217D02*
X138131023Y-98511217D01*
X117811023Y-113751217D02*
X116541023Y-112481217D01*
%TO.N,Net-(Arduino_Nano1-Pad26)*%
X115721023Y-119281217D02*
X115721023Y-108221217D01*
X115721023Y-108221217D02*
X121621023Y-102321217D01*
X117811023Y-121371217D02*
X115721023Y-119281217D01*
X121621023Y-102321217D02*
X131781023Y-102321217D01*
X131781023Y-102321217D02*
X138131023Y-95971217D01*
%TO.N,Net-(Arduino_Nano1-Pad28)*%
X147320000Y-99060000D02*
X146771217Y-98511217D01*
X146771217Y-98511217D02*
X145751023Y-98511217D01*
X145751023Y-98511217D02*
X138131023Y-90891217D01*
%TO.N,Net-(Arduino_Nano1-Pad29)*%
X146299806Y-96520000D02*
X140671023Y-90891217D01*
X147320000Y-96520000D02*
X146299806Y-96520000D01*
X140671023Y-90891217D02*
X140671023Y-88351217D01*
X140671023Y-88351217D02*
X138131023Y-88351217D01*
%TO.N,Net-(Arduino_Nano1-Pad30)*%
X147320000Y-93980000D02*
X146299806Y-93980000D01*
X141941023Y-85811217D02*
X138131023Y-85811217D01*
X141941023Y-89621217D02*
X141941023Y-85811217D01*
X146299806Y-93980000D02*
X141941023Y-89621217D01*
%TO.N,Net-(Indicator_LEDs1-Pad1)*%
X112731023Y-104608977D02*
X112731023Y-111211217D01*
X114470000Y-102870000D02*
X112731023Y-104608977D01*
X115570000Y-102870000D02*
X114470000Y-102870000D01*
%TO.N,Net-(Indicator_LEDs1-Pad3)*%
X112731023Y-116291217D02*
X111368844Y-114929038D01*
X111368844Y-104531156D02*
X115570000Y-100330000D01*
X111368844Y-114929038D02*
X111368844Y-104531156D01*
%TO.N,Net-(Indicator_LEDs1-Pad4)*%
X116835722Y-101604278D02*
X118110000Y-100330000D01*
X116835722Y-104135722D02*
X116835722Y-101604278D01*
X112731023Y-121371217D02*
X114304278Y-119797962D01*
X114304278Y-106667166D02*
X116835722Y-104135722D01*
X114304278Y-119797962D02*
X114304278Y-106667166D01*
%TO.N,Net-(Power_SW1-Pad2)*%
X124460000Y-134620000D02*
X128000000Y-138160000D01*
X128000000Y-138160000D02*
X132080000Y-138160000D01*
%TO.N,Net-(Power_Terminal1-Pad1)*%
X132080000Y-136160000D02*
X132080000Y-130810000D01*
%TD*%
M02*
