M48
; DRILL file {KiCad (6.0.6)} date Thu 21 Jul 2022 10:54:07 AM MST
; FORMAT={-:-/ absolute / inch / decimal}
; #@! TF.CreationDate,2022-07-21T10:54:07-07:00
; #@! TF.GenerationSoftware,Kicad,Pcbnew,(6.0.6)
; #@! TF.FileFunction,Plated,1,2,PTH
FMAT,2
INCH
; #@! TA.AperFunction,Plated,PTH,ComponentDrill
T1C0.0276
; #@! TA.AperFunction,Plated,PTH,ComponentDrill
T2C0.0295
; #@! TA.AperFunction,Plated,PTH,ComponentDrill
T3C0.0394
; #@! TA.AperFunction,Plated,PTH,ComponentDrill
T4C0.0400
; #@! TA.AperFunction,Plated,PTH,ComponentDrill
T5C0.0866
%
G90
G05
T1
X4.4382Y-4.3784
X4.4382Y-4.5784
X4.4382Y-4.7784
X4.6382Y-4.3784
X4.6382Y-4.5784
X4.6382Y-4.7784
T2
X5.2Y-5.0713
X5.2Y-5.15
X5.2Y-5.3606
X5.2Y-5.4394
T3
X4.55Y-3.85
X4.55Y-3.95
X4.55Y-4.05
X4.65Y-3.85
X4.65Y-3.95
X4.65Y-4.05
X4.8Y-5.3
X4.9Y-5.3
X5.751Y-4.451
X5.751Y-4.551
X5.751Y-4.651
X5.751Y-4.751
X5.751Y-4.851
X5.751Y-4.951
X5.8Y-3.4
X5.8Y-3.5
X5.8Y-3.6
X5.8Y-3.7
X5.8Y-3.8
X5.8Y-3.9
T4
X4.8382Y-3.3784
X4.8382Y-3.4784
X4.8382Y-3.5784
X4.8382Y-3.6784
X4.8382Y-3.7784
X4.8382Y-3.8784
X4.8382Y-3.9784
X4.8382Y-4.0784
X4.8382Y-4.1784
X4.8382Y-4.2784
X4.8382Y-4.3784
X4.8382Y-4.4784
X4.8382Y-4.5784
X4.8382Y-4.6784
X4.8382Y-4.7784
X5.4382Y-3.3784
X5.4382Y-3.4784
X5.4382Y-3.5784
X5.4382Y-3.6784
X5.4382Y-3.7784
X5.4382Y-3.8784
X5.4382Y-3.9784
X5.4382Y-4.0784
X5.4382Y-4.1784
X5.4382Y-4.2784
X5.4382Y-4.3784
X5.4382Y-4.4784
X5.4382Y-4.5784
X5.4382Y-4.6784
X5.4382Y-4.7784
T5
X4.6Y-3.5
X4.6Y-5.1
T0
M30
