%TF.GenerationSoftware,KiCad,Pcbnew,(6.0.6)*%
%TF.CreationDate,2022-07-21T10:54:16-07:00*%
%TF.ProjectId,ElectronicEggDrop,456c6563-7472-46f6-9e69-634567674472,rev?*%
%TF.SameCoordinates,Original*%
%TF.FileFunction,Paste,Top*%
%TF.FilePolarity,Positive*%
%FSLAX46Y46*%
G04 Gerber Fmt 4.6, Leading zero omitted, Abs format (unit mm)*
G04 Created by KiCad (PCBNEW (6.0.6)) date 2022-07-21 10:54:16*
%MOMM*%
%LPD*%
G01*
G04 APERTURE LIST*
%TA.AperFunction,Profile*%
%ADD10C,0.025399*%
%TD*%
G04 APERTURE END LIST*
D10*
X110955611Y-130290463D02*
X110755790Y-129884972D01*
X111953453Y-132047527D02*
X111746614Y-131722071D01*
X109262709Y-126233297D02*
X108865549Y-124967472D01*
X109774374Y-97090331D02*
X110679355Y-93949659D01*
X159048980Y-124434594D02*
X158580224Y-126060765D01*
X132570500Y-67846666D02*
X133224333Y-67810711D01*
X111545642Y-131386665D02*
X111348306Y-131038280D01*
X135197799Y-67846666D02*
X135839665Y-67906591D01*
X133224333Y-67810711D02*
X133884150Y-67798726D01*
X140648716Y-141868040D02*
X139909930Y-141985810D01*
X129108230Y-68565766D02*
X129600509Y-68385991D01*
X107500344Y-112057038D02*
X107589163Y-110413964D01*
X153644037Y-85197673D02*
X154906137Y-87985107D01*
X142399300Y-70666716D02*
X143308753Y-71354665D01*
X114835540Y-135421166D02*
X114835540Y-135421166D01*
X116325886Y-136803079D02*
X115573617Y-136132831D01*
X123565303Y-72103961D02*
X125371362Y-70666342D01*
X129108230Y-68565766D02*
X129108230Y-68565766D01*
X139608018Y-68989629D02*
X140547898Y-69482324D01*
X159048980Y-124434594D02*
X159048980Y-124434594D01*
X138660064Y-68565766D02*
X139608018Y-68989629D01*
X145089993Y-72912702D02*
X145959711Y-73779042D01*
X159518034Y-122405316D02*
X159297061Y-123416277D01*
X138660064Y-68565766D02*
X138660064Y-68565766D01*
X108220406Y-122349862D02*
X107971882Y-120993723D01*
X159297061Y-123416277D02*
X159048980Y-124434594D01*
X117879216Y-138022275D02*
X117093901Y-137432647D01*
X143554273Y-141139184D02*
X141945068Y-141598229D01*
X131304718Y-67990486D02*
X131928634Y-67906591D01*
X115491502Y-82562526D02*
X116951002Y-80084989D01*
X159879333Y-120390834D02*
X159712068Y-121398054D01*
X130594698Y-142383751D02*
X129876023Y-142326217D01*
X143308753Y-71354665D02*
X144205995Y-72103952D01*
X123991364Y-141093309D02*
X123041435Y-140762606D01*
X118496451Y-77785292D02*
X120119529Y-75678508D01*
X148472852Y-76704865D02*
X149275113Y-77782827D01*
X153978971Y-134376577D02*
X152929983Y-135506280D01*
X121224558Y-139996134D02*
X120354502Y-139558891D01*
X159387783Y-103616389D02*
X159860427Y-106976540D01*
X160134238Y-118361896D02*
X160020000Y-119380000D01*
X158762879Y-100314217D02*
X159387783Y-103616389D01*
X118683385Y-138572699D02*
X117879216Y-138022275D01*
X119507963Y-139084659D02*
X118683385Y-138572699D01*
X150605633Y-137530539D02*
X149333701Y-138421653D01*
X107589163Y-110413964D02*
X107725092Y-108721190D01*
X151804966Y-136558174D02*
X150605633Y-137530539D01*
X127025762Y-141884150D02*
X125981973Y-141653343D01*
X133884150Y-67798726D02*
X134543966Y-67810711D01*
X123041435Y-140762606D02*
X122119684Y-140397127D01*
X125371362Y-70666342D02*
X127221777Y-69481919D01*
X158023432Y-127621175D02*
X157380321Y-129114104D01*
X154950214Y-133170787D02*
X153978971Y-134376577D01*
X150820251Y-80081543D02*
X151561060Y-81298549D01*
X157993989Y-97085013D02*
X158762879Y-100314217D01*
X159860427Y-106976540D02*
X159860427Y-106976540D01*
X111348306Y-131038280D02*
X111152373Y-130673889D01*
X145959711Y-73779042D02*
X146814117Y-74701098D01*
X129218078Y-142251046D02*
X129218078Y-142251031D01*
X120119529Y-75678508D02*
X121811920Y-73779707D01*
X158580224Y-126060765D02*
X158023432Y-127621175D01*
X109005252Y-100318416D02*
X109774374Y-97090331D01*
X140547898Y-69482324D02*
X141478670Y-70041978D01*
X130704736Y-68098351D02*
X131304718Y-67990486D01*
X113753080Y-134301541D02*
X113442680Y-133960930D01*
X154906137Y-87985107D02*
X156057345Y-90905468D01*
X160274181Y-111895825D02*
X160314946Y-113034339D01*
X111746614Y-131722071D02*
X111545642Y-131386665D01*
X114126269Y-85202833D02*
X115491502Y-82562526D01*
X113153769Y-133631570D02*
X112884117Y-133310431D01*
X124971025Y-141389976D02*
X123991364Y-141093309D01*
X157380321Y-129114104D02*
X156652603Y-130537829D01*
X112393660Y-132680707D02*
X112168391Y-132366063D01*
X160222218Y-117332865D02*
X160134238Y-118361896D01*
X137063561Y-68098351D02*
X137633624Y-68230186D01*
X129600509Y-68385991D02*
X130134672Y-68230186D01*
X112884117Y-133310431D02*
X112631491Y-132994486D01*
X132177898Y-142447768D02*
X130594698Y-142383751D01*
X147990883Y-139229796D02*
X146578896Y-139953246D01*
X110207559Y-128689869D02*
X109709955Y-127473370D01*
X137633624Y-68230186D02*
X138167786Y-68385991D01*
X128103946Y-142083133D02*
X127025762Y-141884150D01*
X149275113Y-77782827D02*
X150057924Y-78909011D01*
X145099455Y-140590282D02*
X143554273Y-141139184D01*
X156652603Y-130537829D02*
X155841996Y-131890631D01*
X107458904Y-113652591D02*
X107500344Y-112057038D01*
X127221777Y-69481919D02*
X129108230Y-68565766D01*
X130134672Y-68230186D02*
X130704736Y-68098351D01*
X141330124Y-141738691D02*
X140648716Y-141868040D01*
X108380308Y-103618843D02*
X109005252Y-100318416D01*
X125981973Y-141653343D02*
X124971025Y-141389976D01*
X109709955Y-127473370D02*
X109262709Y-126233297D01*
X107907859Y-106976540D02*
X107907859Y-106976540D01*
X135673308Y-142384656D02*
X133894995Y-142446827D01*
X114835540Y-135421166D02*
X114087203Y-134656432D01*
X138167786Y-68385991D02*
X138660064Y-68565766D01*
X144205995Y-72103952D02*
X145089993Y-72912702D01*
X129218078Y-142251031D02*
X128103946Y-142083133D01*
X146814117Y-74701098D02*
X147652175Y-75676997D01*
X160020000Y-119380000D02*
X159879333Y-120390834D01*
X107519249Y-116709839D02*
X107465116Y-115202799D01*
X159712068Y-121398054D02*
X159518034Y-122405316D01*
X111152373Y-130673889D02*
X110955611Y-130290463D01*
X160320080Y-115227395D02*
X160284108Y-116289250D01*
X141478670Y-70041978D02*
X142399300Y-70666716D01*
X108518205Y-123673720D02*
X108220406Y-122349862D01*
X112168391Y-132366063D02*
X111953453Y-132047527D01*
X112631491Y-132994486D02*
X112393660Y-132680707D01*
X110755790Y-129884972D02*
X110755790Y-129884972D01*
X150057924Y-78909011D02*
X150820251Y-80081543D01*
X152929983Y-135506280D02*
X151804966Y-136558174D01*
X114087203Y-134656432D02*
X113753080Y-134301541D01*
X129218078Y-142251046D02*
X129218078Y-142251046D01*
X159860427Y-106976540D02*
X160117102Y-109516541D01*
X152279317Y-82558155D02*
X153644037Y-85197673D01*
X110755790Y-129884972D02*
X110207559Y-128689869D01*
X141945068Y-141598229D02*
X141945068Y-141598229D01*
X113442680Y-133960930D02*
X113153769Y-133631570D01*
X121811920Y-73779707D02*
X123565303Y-72103961D01*
X160284108Y-116289250D02*
X160222218Y-117332865D01*
X112863621Y-87990839D02*
X114126269Y-85202833D01*
X135839665Y-67906591D02*
X136463580Y-67990486D01*
X133894995Y-142446827D02*
X132177898Y-142447768D01*
X115573617Y-136132831D02*
X114835540Y-135421166D01*
X141945068Y-141598229D02*
X141330124Y-141738691D01*
X107465116Y-115202799D02*
X107458904Y-113652591D01*
X160330303Y-114143644D02*
X160320080Y-115227395D01*
X107621574Y-118175888D02*
X107519249Y-116709839D01*
X147652175Y-75676997D02*
X148472852Y-76704865D01*
X117093901Y-137432647D02*
X116325886Y-136803079D01*
X111711877Y-90911471D02*
X112863621Y-87990839D01*
X108865549Y-124967472D02*
X108518205Y-123673720D01*
X155841996Y-131890631D02*
X154950214Y-133170787D01*
X156057345Y-90905468D02*
X157089387Y-93943767D01*
X157089387Y-93943767D02*
X157993989Y-97085013D01*
X107971882Y-120993723D02*
X107772361Y-119603123D01*
X151561060Y-81298549D02*
X152279317Y-82558155D01*
X110679355Y-93949659D02*
X111711877Y-90911471D01*
X139909930Y-141985810D02*
X139122851Y-142091534D01*
X160314946Y-113034339D02*
X160330303Y-114143644D01*
X107772361Y-119603123D02*
X107621574Y-118175888D01*
X136463580Y-67990486D02*
X137063561Y-68098351D01*
X149333701Y-138421653D02*
X147990883Y-139229796D01*
X122119684Y-140397127D02*
X121224558Y-139996134D01*
X116951002Y-80084989D02*
X118496451Y-77785292D01*
X160117102Y-109516541D02*
X160274181Y-111895825D01*
X107907859Y-106976540D02*
X108380308Y-103618843D01*
X137440155Y-142264982D02*
X135673308Y-142384656D01*
X139122851Y-142091534D02*
X137440155Y-142264982D01*
X134543966Y-67810711D02*
X135197799Y-67846666D01*
X107725092Y-108721190D02*
X107907859Y-106976540D01*
X120354502Y-139558891D02*
X119507963Y-139084659D01*
X129876023Y-142326217D02*
X129218078Y-142251046D01*
X146578896Y-139953246D02*
X145099455Y-140590282D01*
X131928634Y-67906591D02*
X132570500Y-67846666D01*
M02*
