%TF.GenerationSoftware,KiCad,Pcbnew,(6.0.6)*%
%TF.CreationDate,2022-07-20T09:39:35-07:00*%
%TF.ProjectId,ElectronicEggDrop,456c6563-7472-46f6-9e69-634567674472,rev?*%
%TF.SameCoordinates,Original*%
%TF.FileFunction,Legend,Bot*%
%TF.FilePolarity,Positive*%
%FSLAX46Y46*%
G04 Gerber Fmt 4.6, Leading zero omitted, Abs format (unit mm)*
G04 Created by KiCad (PCBNEW (6.0.6)) date 2022-07-20 09:39:35*
%MOMM*%
%LPD*%
G01*
G04 APERTURE LIST*
%ADD10C,0.150000*%
%ADD11C,0.300000*%
%ADD12C,0.120000*%
G04 APERTURE END LIST*
D10*
X137160000Y-115570000D02*
X139700000Y-115570000D01*
X139700000Y-115570000D02*
X139700000Y-113030000D01*
X139700000Y-113030000D02*
X137160000Y-113030000D01*
X137160000Y-113030000D02*
X137160000Y-115570000D01*
X137160000Y-113030000D02*
X139700000Y-115570000D01*
X137160000Y-109681228D02*
X139700000Y-109681228D01*
X139700000Y-109681228D02*
X139700000Y-107141228D01*
X139700000Y-107141228D02*
X137160000Y-107141228D01*
X137160000Y-107141228D02*
X137160000Y-109681228D01*
X137160000Y-103331228D02*
X139700000Y-103331228D01*
X139700000Y-103331228D02*
X139700000Y-100791228D01*
X139700000Y-100791228D02*
X137160000Y-100791228D01*
X137160000Y-100791228D02*
X137160000Y-103331228D01*
X137160000Y-115570000D02*
X139700000Y-113030000D01*
D11*
X132805952Y-102685513D02*
X132901190Y-102780751D01*
X133186904Y-102875989D01*
X133377380Y-102875989D01*
X133663095Y-102780751D01*
X133853571Y-102590275D01*
X133948809Y-102399799D01*
X134044047Y-102018847D01*
X134044047Y-101733132D01*
X133948809Y-101352180D01*
X133853571Y-101161704D01*
X133663095Y-100971228D01*
X133377380Y-100875989D01*
X133186904Y-100875989D01*
X132901190Y-100971228D01*
X132805952Y-101066466D01*
X131948809Y-102875989D02*
X131948809Y-100875989D01*
X131091666Y-102875989D02*
X131091666Y-101828370D01*
X131186904Y-101637894D01*
X131377380Y-101542656D01*
X131663095Y-101542656D01*
X131853571Y-101637894D01*
X131948809Y-101733132D01*
X130139285Y-102875989D02*
X130139285Y-101542656D01*
X130139285Y-100875989D02*
X130234523Y-100971228D01*
X130139285Y-101066466D01*
X130044047Y-100971228D01*
X130139285Y-100875989D01*
X130139285Y-101066466D01*
X128329761Y-102780751D02*
X128520238Y-102875989D01*
X128901190Y-102875989D01*
X129091666Y-102780751D01*
X129186904Y-102685513D01*
X129282142Y-102495037D01*
X129282142Y-101923608D01*
X129186904Y-101733132D01*
X129091666Y-101637894D01*
X128901190Y-101542656D01*
X128520238Y-101542656D01*
X128329761Y-101637894D01*
X127472619Y-102875989D02*
X127472619Y-100875989D01*
X127282142Y-102114085D02*
X126710714Y-102875989D01*
X126710714Y-101542656D02*
X127472619Y-102304561D01*
X125091666Y-102780751D02*
X125282142Y-102875989D01*
X125663095Y-102875989D01*
X125853571Y-102780751D01*
X125948809Y-102590275D01*
X125948809Y-101828370D01*
X125853571Y-101637894D01*
X125663095Y-101542656D01*
X125282142Y-101542656D01*
X125091666Y-101637894D01*
X124996428Y-101828370D01*
X124996428Y-102018847D01*
X125948809Y-102209323D01*
X124139285Y-101542656D02*
X124139285Y-102875989D01*
X124139285Y-101733132D02*
X124044047Y-101637894D01*
X123853571Y-101542656D01*
X123567857Y-101542656D01*
X123377380Y-101637894D01*
X123282142Y-101828370D01*
X123282142Y-102875989D01*
X133948809Y-108268370D02*
X133282142Y-108268370D01*
X132996428Y-109315989D02*
X133948809Y-109315989D01*
X133948809Y-107315989D01*
X132996428Y-107315989D01*
X131282142Y-107982656D02*
X131282142Y-109601704D01*
X131377380Y-109792180D01*
X131472619Y-109887418D01*
X131663095Y-109982656D01*
X131948809Y-109982656D01*
X132139285Y-109887418D01*
X131282142Y-109220751D02*
X131472619Y-109315989D01*
X131853571Y-109315989D01*
X132044047Y-109220751D01*
X132139285Y-109125513D01*
X132234523Y-108935037D01*
X132234523Y-108363608D01*
X132139285Y-108173132D01*
X132044047Y-108077894D01*
X131853571Y-107982656D01*
X131472619Y-107982656D01*
X131282142Y-108077894D01*
X129472619Y-107982656D02*
X129472619Y-109601704D01*
X129567857Y-109792180D01*
X129663095Y-109887418D01*
X129853571Y-109982656D01*
X130139285Y-109982656D01*
X130329761Y-109887418D01*
X129472619Y-109220751D02*
X129663095Y-109315989D01*
X130044047Y-109315989D01*
X130234523Y-109220751D01*
X130329761Y-109125513D01*
X130425000Y-108935037D01*
X130425000Y-108363608D01*
X130329761Y-108173132D01*
X130234523Y-108077894D01*
X130044047Y-107982656D01*
X129663095Y-107982656D01*
X129472619Y-108077894D01*
X133948809Y-115755989D02*
X133948809Y-113755989D01*
X133472619Y-113755989D01*
X133186904Y-113851228D01*
X132996428Y-114041704D01*
X132901190Y-114232180D01*
X132805952Y-114613132D01*
X132805952Y-114898847D01*
X132901190Y-115279799D01*
X132996428Y-115470275D01*
X133186904Y-115660751D01*
X133472619Y-115755989D01*
X133948809Y-115755989D01*
X131948809Y-115755989D02*
X131948809Y-114422656D01*
X131948809Y-113755989D02*
X132044047Y-113851228D01*
X131948809Y-113946466D01*
X131853571Y-113851228D01*
X131948809Y-113755989D01*
X131948809Y-113946466D01*
X130996428Y-114422656D02*
X130996428Y-115755989D01*
X130996428Y-114613132D02*
X130901190Y-114517894D01*
X130710714Y-114422656D01*
X130425000Y-114422656D01*
X130234523Y-114517894D01*
X130139285Y-114708370D01*
X130139285Y-115755989D01*
X128901190Y-115755989D02*
X129091666Y-115660751D01*
X129186904Y-115565513D01*
X129282142Y-115375037D01*
X129282142Y-114803608D01*
X129186904Y-114613132D01*
X129091666Y-114517894D01*
X128901190Y-114422656D01*
X128615476Y-114422656D01*
X128425000Y-114517894D01*
X128329761Y-114613132D01*
X128234523Y-114803608D01*
X128234523Y-115375037D01*
X128329761Y-115565513D01*
X128425000Y-115660751D01*
X128615476Y-115755989D01*
X128901190Y-115755989D01*
X127472619Y-115660751D02*
X127282142Y-115755989D01*
X126901190Y-115755989D01*
X126710714Y-115660751D01*
X126615476Y-115470275D01*
X126615476Y-115375037D01*
X126710714Y-115184561D01*
X126901190Y-115089323D01*
X127186904Y-115089323D01*
X127377380Y-114994085D01*
X127472619Y-114803608D01*
X127472619Y-114708370D01*
X127377380Y-114517894D01*
X127186904Y-114422656D01*
X126901190Y-114422656D01*
X126710714Y-114517894D01*
X124901190Y-115755989D02*
X124901190Y-114708370D01*
X124996428Y-114517894D01*
X125186904Y-114422656D01*
X125567857Y-114422656D01*
X125758333Y-114517894D01*
X124901190Y-115660751D02*
X125091666Y-115755989D01*
X125567857Y-115755989D01*
X125758333Y-115660751D01*
X125853571Y-115470275D01*
X125853571Y-115279799D01*
X125758333Y-115089323D01*
X125567857Y-114994085D01*
X125091666Y-114994085D01*
X124901190Y-114898847D01*
X123091666Y-114422656D02*
X123091666Y-115755989D01*
X123948809Y-114422656D02*
X123948809Y-115470275D01*
X123853571Y-115660751D01*
X123663095Y-115755989D01*
X123377380Y-115755989D01*
X123186904Y-115660751D01*
X123091666Y-115565513D01*
X122139285Y-115755989D02*
X122139285Y-114422656D01*
X122139285Y-114803608D02*
X122044047Y-114613132D01*
X121948809Y-114517894D01*
X121758333Y-114422656D01*
X121567857Y-114422656D01*
X120996428Y-115660751D02*
X120805952Y-115755989D01*
X120425000Y-115755989D01*
X120234523Y-115660751D01*
X120139285Y-115470275D01*
X120139285Y-115375037D01*
X120234523Y-115184561D01*
X120425000Y-115089323D01*
X120710714Y-115089323D01*
X120901190Y-114994085D01*
X120996428Y-114803608D01*
X120996428Y-114708370D01*
X120901190Y-114517894D01*
X120710714Y-114422656D01*
X120425000Y-114422656D01*
X120234523Y-114517894D01*
X144318095Y-87124761D02*
X143841904Y-89124761D01*
X143460952Y-87696190D01*
X143080000Y-89124761D01*
X142603809Y-87124761D01*
X141841904Y-89124761D02*
X141841904Y-87124761D01*
X140984761Y-89124761D02*
X140984761Y-88077142D01*
X141080000Y-87886666D01*
X141270476Y-87791428D01*
X141556190Y-87791428D01*
X141746666Y-87886666D01*
X141841904Y-87981904D01*
X139175238Y-89124761D02*
X139175238Y-88077142D01*
X139270476Y-87886666D01*
X139460952Y-87791428D01*
X139841904Y-87791428D01*
X140032380Y-87886666D01*
X139175238Y-89029523D02*
X139365714Y-89124761D01*
X139841904Y-89124761D01*
X140032380Y-89029523D01*
X140127619Y-88839047D01*
X140127619Y-88648571D01*
X140032380Y-88458095D01*
X139841904Y-88362857D01*
X139365714Y-88362857D01*
X139175238Y-88267619D01*
X138508571Y-87791428D02*
X137746666Y-87791428D01*
X138222857Y-87124761D02*
X138222857Y-88839047D01*
X138127619Y-89029523D01*
X137937142Y-89124761D01*
X137746666Y-89124761D01*
X134699047Y-89029523D02*
X134889523Y-89124761D01*
X135270476Y-89124761D01*
X135460952Y-89029523D01*
X135556190Y-88934285D01*
X135651428Y-88743809D01*
X135651428Y-88172380D01*
X135556190Y-87981904D01*
X135460952Y-87886666D01*
X135270476Y-87791428D01*
X134889523Y-87791428D01*
X134699047Y-87886666D01*
X132984761Y-89124761D02*
X132984761Y-88077142D01*
X133080000Y-87886666D01*
X133270476Y-87791428D01*
X133651428Y-87791428D01*
X133841904Y-87886666D01*
X132984761Y-89029523D02*
X133175238Y-89124761D01*
X133651428Y-89124761D01*
X133841904Y-89029523D01*
X133937142Y-88839047D01*
X133937142Y-88648571D01*
X133841904Y-88458095D01*
X133651428Y-88362857D01*
X133175238Y-88362857D01*
X132984761Y-88267619D01*
X132032380Y-89124761D02*
X132032380Y-87791428D01*
X132032380Y-87981904D02*
X131937142Y-87886666D01*
X131746666Y-87791428D01*
X131460952Y-87791428D01*
X131270476Y-87886666D01*
X131175238Y-88077142D01*
X131175238Y-89124761D01*
X131175238Y-88077142D02*
X131080000Y-87886666D01*
X130889523Y-87791428D01*
X130603809Y-87791428D01*
X130413333Y-87886666D01*
X130318095Y-88077142D01*
X130318095Y-89124761D01*
X128603809Y-89029523D02*
X128794285Y-89124761D01*
X129175238Y-89124761D01*
X129365714Y-89029523D01*
X129460952Y-88839047D01*
X129460952Y-88077142D01*
X129365714Y-87886666D01*
X129175238Y-87791428D01*
X128794285Y-87791428D01*
X128603809Y-87886666D01*
X128508571Y-88077142D01*
X128508571Y-88267619D01*
X129460952Y-88458095D01*
X126413333Y-87791428D02*
X125651428Y-87791428D01*
X126127619Y-89124761D02*
X126127619Y-87410476D01*
X126032380Y-87220000D01*
X125841904Y-87124761D01*
X125651428Y-87124761D01*
X124984761Y-89124761D02*
X124984761Y-87791428D01*
X124984761Y-87124761D02*
X125080000Y-87220000D01*
X124984761Y-87315238D01*
X124889523Y-87220000D01*
X124984761Y-87124761D01*
X124984761Y-87315238D01*
X124032380Y-89124761D02*
X124032380Y-87791428D01*
X124032380Y-88172380D02*
X123937142Y-87981904D01*
X123841904Y-87886666D01*
X123651428Y-87791428D01*
X123460952Y-87791428D01*
X122889523Y-89029523D02*
X122699047Y-89124761D01*
X122318095Y-89124761D01*
X122127619Y-89029523D01*
X122032380Y-88839047D01*
X122032380Y-88743809D01*
X122127619Y-88553333D01*
X122318095Y-88458095D01*
X122603809Y-88458095D01*
X122794285Y-88362857D01*
X122889523Y-88172380D01*
X122889523Y-88077142D01*
X122794285Y-87886666D01*
X122603809Y-87791428D01*
X122318095Y-87791428D01*
X122127619Y-87886666D01*
X121460952Y-87791428D02*
X120699047Y-87791428D01*
X121175238Y-87124761D02*
X121175238Y-88839047D01*
X121080000Y-89029523D01*
X120889523Y-89124761D01*
X120699047Y-89124761D01*
X119937142Y-89029523D02*
X119937142Y-89124761D01*
X120032380Y-89315238D01*
X120127619Y-89410476D01*
X142937142Y-91011428D02*
X142175238Y-91011428D01*
X142651428Y-90344761D02*
X142651428Y-92059047D01*
X142556190Y-92249523D01*
X142365714Y-92344761D01*
X142175238Y-92344761D01*
X141508571Y-92344761D02*
X141508571Y-90344761D01*
X140651428Y-92344761D02*
X140651428Y-91297142D01*
X140746666Y-91106666D01*
X140937142Y-91011428D01*
X141222857Y-91011428D01*
X141413333Y-91106666D01*
X141508571Y-91201904D01*
X138937142Y-92249523D02*
X139127619Y-92344761D01*
X139508571Y-92344761D01*
X139699047Y-92249523D01*
X139794285Y-92059047D01*
X139794285Y-91297142D01*
X139699047Y-91106666D01*
X139508571Y-91011428D01*
X139127619Y-91011428D01*
X138937142Y-91106666D01*
X138841904Y-91297142D01*
X138841904Y-91487619D01*
X139794285Y-91678095D01*
X135603809Y-92249523D02*
X135794285Y-92344761D01*
X136175238Y-92344761D01*
X136365714Y-92249523D01*
X136460952Y-92154285D01*
X136556190Y-91963809D01*
X136556190Y-91392380D01*
X136460952Y-91201904D01*
X136365714Y-91106666D01*
X136175238Y-91011428D01*
X135794285Y-91011428D01*
X135603809Y-91106666D01*
X134746666Y-92344761D02*
X134746666Y-90344761D01*
X133889523Y-92344761D02*
X133889523Y-91297142D01*
X133984761Y-91106666D01*
X134175238Y-91011428D01*
X134460952Y-91011428D01*
X134651428Y-91106666D01*
X134746666Y-91201904D01*
X132937142Y-92344761D02*
X132937142Y-91011428D01*
X132937142Y-90344761D02*
X133032380Y-90440000D01*
X132937142Y-90535238D01*
X132841904Y-90440000D01*
X132937142Y-90344761D01*
X132937142Y-90535238D01*
X131127619Y-92249523D02*
X131318095Y-92344761D01*
X131699047Y-92344761D01*
X131889523Y-92249523D01*
X131984761Y-92154285D01*
X132080000Y-91963809D01*
X132080000Y-91392380D01*
X131984761Y-91201904D01*
X131889523Y-91106666D01*
X131699047Y-91011428D01*
X131318095Y-91011428D01*
X131127619Y-91106666D01*
X130270476Y-92344761D02*
X130270476Y-90344761D01*
X130080000Y-91582857D02*
X129508571Y-92344761D01*
X129508571Y-91011428D02*
X130270476Y-91773333D01*
X127889523Y-92249523D02*
X128080000Y-92344761D01*
X128460952Y-92344761D01*
X128651428Y-92249523D01*
X128746666Y-92059047D01*
X128746666Y-91297142D01*
X128651428Y-91106666D01*
X128460952Y-91011428D01*
X128080000Y-91011428D01*
X127889523Y-91106666D01*
X127794285Y-91297142D01*
X127794285Y-91487619D01*
X128746666Y-91678095D01*
X126937142Y-91011428D02*
X126937142Y-92344761D01*
X126937142Y-91201904D02*
X126841904Y-91106666D01*
X126651428Y-91011428D01*
X126365714Y-91011428D01*
X126175238Y-91106666D01*
X126080000Y-91297142D01*
X126080000Y-92344761D01*
X123318095Y-92344761D02*
X123508571Y-92249523D01*
X123603809Y-92154285D01*
X123699047Y-91963809D01*
X123699047Y-91392380D01*
X123603809Y-91201904D01*
X123508571Y-91106666D01*
X123318095Y-91011428D01*
X123032380Y-91011428D01*
X122841904Y-91106666D01*
X122746666Y-91201904D01*
X122651428Y-91392380D01*
X122651428Y-91963809D01*
X122746666Y-92154285D01*
X122841904Y-92249523D01*
X123032380Y-92344761D01*
X123318095Y-92344761D01*
X121794285Y-92344761D02*
X121794285Y-91011428D01*
X121794285Y-91392380D02*
X121699047Y-91201904D01*
X121603809Y-91106666D01*
X121413333Y-91011428D01*
X121222857Y-91011428D01*
X138508571Y-94231428D02*
X137746666Y-94231428D01*
X138222857Y-93564761D02*
X138222857Y-95279047D01*
X138127619Y-95469523D01*
X137937142Y-95564761D01*
X137746666Y-95564761D01*
X137080000Y-95564761D02*
X137080000Y-93564761D01*
X136222857Y-95564761D02*
X136222857Y-94517142D01*
X136318095Y-94326666D01*
X136508571Y-94231428D01*
X136794285Y-94231428D01*
X136984761Y-94326666D01*
X137080000Y-94421904D01*
X134508571Y-95469523D02*
X134699047Y-95564761D01*
X135080000Y-95564761D01*
X135270476Y-95469523D01*
X135365714Y-95279047D01*
X135365714Y-94517142D01*
X135270476Y-94326666D01*
X135080000Y-94231428D01*
X134699047Y-94231428D01*
X134508571Y-94326666D01*
X134413333Y-94517142D01*
X134413333Y-94707619D01*
X135365714Y-94898095D01*
X131270476Y-95469523D02*
X131460952Y-95564761D01*
X131841904Y-95564761D01*
X132032380Y-95469523D01*
X132127619Y-95279047D01*
X132127619Y-94517142D01*
X132032380Y-94326666D01*
X131841904Y-94231428D01*
X131460952Y-94231428D01*
X131270476Y-94326666D01*
X131175238Y-94517142D01*
X131175238Y-94707619D01*
X132127619Y-94898095D01*
X129460952Y-94231428D02*
X129460952Y-95850476D01*
X129556190Y-96040952D01*
X129651428Y-96136190D01*
X129841904Y-96231428D01*
X130127619Y-96231428D01*
X130318095Y-96136190D01*
X129460952Y-95469523D02*
X129651428Y-95564761D01*
X130032380Y-95564761D01*
X130222857Y-95469523D01*
X130318095Y-95374285D01*
X130413333Y-95183809D01*
X130413333Y-94612380D01*
X130318095Y-94421904D01*
X130222857Y-94326666D01*
X130032380Y-94231428D01*
X129651428Y-94231428D01*
X129460952Y-94326666D01*
X127651428Y-94231428D02*
X127651428Y-95850476D01*
X127746666Y-96040952D01*
X127841904Y-96136190D01*
X128032380Y-96231428D01*
X128318095Y-96231428D01*
X128508571Y-96136190D01*
X127651428Y-95469523D02*
X127841904Y-95564761D01*
X128222857Y-95564761D01*
X128413333Y-95469523D01*
X128508571Y-95374285D01*
X128603809Y-95183809D01*
X128603809Y-94612380D01*
X128508571Y-94421904D01*
X128413333Y-94326666D01*
X128222857Y-94231428D01*
X127841904Y-94231428D01*
X127651428Y-94326666D01*
X126413333Y-95374285D02*
X126318095Y-95469523D01*
X126413333Y-95564761D01*
X126508571Y-95469523D01*
X126413333Y-95374285D01*
X126413333Y-95564761D01*
X126794285Y-93660000D02*
X126603809Y-93564761D01*
X126127619Y-93564761D01*
X125937142Y-93660000D01*
X125841904Y-93850476D01*
X125841904Y-94040952D01*
X125937142Y-94231428D01*
X126032380Y-94326666D01*
X126222857Y-94421904D01*
X126318095Y-94517142D01*
X126413333Y-94707619D01*
X126413333Y-94802857D01*
D10*
%TO.C,LIS3DH Connector*%
X149042380Y-114602380D02*
X149042380Y-114126190D01*
X148042380Y-114126190D01*
X149042380Y-114935714D02*
X148042380Y-114935714D01*
X148994761Y-115364285D02*
X149042380Y-115507142D01*
X149042380Y-115745238D01*
X148994761Y-115840476D01*
X148947142Y-115888095D01*
X148851904Y-115935714D01*
X148756666Y-115935714D01*
X148661428Y-115888095D01*
X148613809Y-115840476D01*
X148566190Y-115745238D01*
X148518571Y-115554761D01*
X148470952Y-115459523D01*
X148423333Y-115411904D01*
X148328095Y-115364285D01*
X148232857Y-115364285D01*
X148137619Y-115411904D01*
X148090000Y-115459523D01*
X148042380Y-115554761D01*
X148042380Y-115792857D01*
X148090000Y-115935714D01*
X148042380Y-116269047D02*
X148042380Y-116888095D01*
X148423333Y-116554761D01*
X148423333Y-116697619D01*
X148470952Y-116792857D01*
X148518571Y-116840476D01*
X148613809Y-116888095D01*
X148851904Y-116888095D01*
X148947142Y-116840476D01*
X148994761Y-116792857D01*
X149042380Y-116697619D01*
X149042380Y-116411904D01*
X148994761Y-116316666D01*
X148947142Y-116269047D01*
X149042380Y-117316666D02*
X148042380Y-117316666D01*
X148042380Y-117554761D01*
X148090000Y-117697619D01*
X148185238Y-117792857D01*
X148280476Y-117840476D01*
X148470952Y-117888095D01*
X148613809Y-117888095D01*
X148804285Y-117840476D01*
X148899523Y-117792857D01*
X148994761Y-117697619D01*
X149042380Y-117554761D01*
X149042380Y-117316666D01*
X149042380Y-118316666D02*
X148042380Y-118316666D01*
X148518571Y-118316666D02*
X148518571Y-118888095D01*
X149042380Y-118888095D02*
X148042380Y-118888095D01*
X148947142Y-120697619D02*
X148994761Y-120650000D01*
X149042380Y-120507142D01*
X149042380Y-120411904D01*
X148994761Y-120269047D01*
X148899523Y-120173809D01*
X148804285Y-120126190D01*
X148613809Y-120078571D01*
X148470952Y-120078571D01*
X148280476Y-120126190D01*
X148185238Y-120173809D01*
X148090000Y-120269047D01*
X148042380Y-120411904D01*
X148042380Y-120507142D01*
X148090000Y-120650000D01*
X148137619Y-120697619D01*
X149042380Y-121269047D02*
X148994761Y-121173809D01*
X148947142Y-121126190D01*
X148851904Y-121078571D01*
X148566190Y-121078571D01*
X148470952Y-121126190D01*
X148423333Y-121173809D01*
X148375714Y-121269047D01*
X148375714Y-121411904D01*
X148423333Y-121507142D01*
X148470952Y-121554761D01*
X148566190Y-121602380D01*
X148851904Y-121602380D01*
X148947142Y-121554761D01*
X148994761Y-121507142D01*
X149042380Y-121411904D01*
X149042380Y-121269047D01*
X148375714Y-122030952D02*
X149042380Y-122030952D01*
X148470952Y-122030952D02*
X148423333Y-122078571D01*
X148375714Y-122173809D01*
X148375714Y-122316666D01*
X148423333Y-122411904D01*
X148518571Y-122459523D01*
X149042380Y-122459523D01*
X148375714Y-122935714D02*
X149042380Y-122935714D01*
X148470952Y-122935714D02*
X148423333Y-122983333D01*
X148375714Y-123078571D01*
X148375714Y-123221428D01*
X148423333Y-123316666D01*
X148518571Y-123364285D01*
X149042380Y-123364285D01*
X148994761Y-124221428D02*
X149042380Y-124126190D01*
X149042380Y-123935714D01*
X148994761Y-123840476D01*
X148899523Y-123792857D01*
X148518571Y-123792857D01*
X148423333Y-123840476D01*
X148375714Y-123935714D01*
X148375714Y-124126190D01*
X148423333Y-124221428D01*
X148518571Y-124269047D01*
X148613809Y-124269047D01*
X148709047Y-123792857D01*
X148994761Y-125126190D02*
X149042380Y-125030952D01*
X149042380Y-124840476D01*
X148994761Y-124745238D01*
X148947142Y-124697619D01*
X148851904Y-124650000D01*
X148566190Y-124650000D01*
X148470952Y-124697619D01*
X148423333Y-124745238D01*
X148375714Y-124840476D01*
X148375714Y-125030952D01*
X148423333Y-125126190D01*
X148375714Y-125411904D02*
X148375714Y-125792857D01*
X148042380Y-125554761D02*
X148899523Y-125554761D01*
X148994761Y-125602380D01*
X149042380Y-125697619D01*
X149042380Y-125792857D01*
X149042380Y-126269047D02*
X148994761Y-126173809D01*
X148947142Y-126126190D01*
X148851904Y-126078571D01*
X148566190Y-126078571D01*
X148470952Y-126126190D01*
X148423333Y-126173809D01*
X148375714Y-126269047D01*
X148375714Y-126411904D01*
X148423333Y-126507142D01*
X148470952Y-126554761D01*
X148566190Y-126602380D01*
X148851904Y-126602380D01*
X148947142Y-126554761D01*
X148994761Y-126507142D01*
X149042380Y-126411904D01*
X149042380Y-126269047D01*
X149042380Y-127030952D02*
X148375714Y-127030952D01*
X148566190Y-127030952D02*
X148470952Y-127078571D01*
X148423333Y-127126190D01*
X148375714Y-127221428D01*
X148375714Y-127316666D01*
%TO.C,SD Card Reader Connector*%
X151534761Y-84033809D02*
X151582380Y-84176666D01*
X151582380Y-84414761D01*
X151534761Y-84510000D01*
X151487142Y-84557619D01*
X151391904Y-84605238D01*
X151296666Y-84605238D01*
X151201428Y-84557619D01*
X151153809Y-84510000D01*
X151106190Y-84414761D01*
X151058571Y-84224285D01*
X151010952Y-84129047D01*
X150963333Y-84081428D01*
X150868095Y-84033809D01*
X150772857Y-84033809D01*
X150677619Y-84081428D01*
X150630000Y-84129047D01*
X150582380Y-84224285D01*
X150582380Y-84462380D01*
X150630000Y-84605238D01*
X151582380Y-85033809D02*
X150582380Y-85033809D01*
X150582380Y-85271904D01*
X150630000Y-85414761D01*
X150725238Y-85509999D01*
X150820476Y-85557619D01*
X151010952Y-85605238D01*
X151153809Y-85605238D01*
X151344285Y-85557619D01*
X151439523Y-85509999D01*
X151534761Y-85414761D01*
X151582380Y-85271904D01*
X151582380Y-85033809D01*
X151487142Y-87367142D02*
X151534761Y-87319523D01*
X151582380Y-87176666D01*
X151582380Y-87081428D01*
X151534761Y-86938571D01*
X151439523Y-86843333D01*
X151344285Y-86795714D01*
X151153809Y-86748095D01*
X151010952Y-86748095D01*
X150820476Y-86795714D01*
X150725238Y-86843333D01*
X150630000Y-86938571D01*
X150582380Y-87081428D01*
X150582380Y-87176666D01*
X150630000Y-87319523D01*
X150677619Y-87367142D01*
X151582380Y-88224285D02*
X151058571Y-88224285D01*
X150963333Y-88176666D01*
X150915714Y-88081428D01*
X150915714Y-87890952D01*
X150963333Y-87795714D01*
X151534761Y-88224285D02*
X151582380Y-88129047D01*
X151582380Y-87890952D01*
X151534761Y-87795714D01*
X151439523Y-87748095D01*
X151344285Y-87748095D01*
X151249047Y-87795714D01*
X151201428Y-87890952D01*
X151201428Y-88129047D01*
X151153809Y-88224285D01*
X151582380Y-88700476D02*
X150915714Y-88700476D01*
X151106190Y-88700476D02*
X151010952Y-88748095D01*
X150963333Y-88795714D01*
X150915714Y-88890952D01*
X150915714Y-88986190D01*
X151582380Y-89748095D02*
X150582380Y-89748095D01*
X151534761Y-89748095D02*
X151582380Y-89652857D01*
X151582380Y-89462380D01*
X151534761Y-89367142D01*
X151487142Y-89319523D01*
X151391904Y-89271904D01*
X151106190Y-89271904D01*
X151010952Y-89319523D01*
X150963333Y-89367142D01*
X150915714Y-89462380D01*
X150915714Y-89652857D01*
X150963333Y-89748095D01*
X151582380Y-91557619D02*
X151106190Y-91224285D01*
X151582380Y-90986190D02*
X150582380Y-90986190D01*
X150582380Y-91367142D01*
X150630000Y-91462380D01*
X150677619Y-91509999D01*
X150772857Y-91557619D01*
X150915714Y-91557619D01*
X151010952Y-91509999D01*
X151058571Y-91462380D01*
X151106190Y-91367142D01*
X151106190Y-90986190D01*
X151534761Y-92367142D02*
X151582380Y-92271904D01*
X151582380Y-92081428D01*
X151534761Y-91986190D01*
X151439523Y-91938571D01*
X151058571Y-91938571D01*
X150963333Y-91986190D01*
X150915714Y-92081428D01*
X150915714Y-92271904D01*
X150963333Y-92367142D01*
X151058571Y-92414761D01*
X151153809Y-92414761D01*
X151249047Y-91938571D01*
X151582380Y-93271904D02*
X151058571Y-93271904D01*
X150963333Y-93224285D01*
X150915714Y-93129047D01*
X150915714Y-92938571D01*
X150963333Y-92843333D01*
X151534761Y-93271904D02*
X151582380Y-93176666D01*
X151582380Y-92938571D01*
X151534761Y-92843333D01*
X151439523Y-92795714D01*
X151344285Y-92795714D01*
X151249047Y-92843333D01*
X151201428Y-92938571D01*
X151201428Y-93176666D01*
X151153809Y-93271904D01*
X151582380Y-94176666D02*
X150582380Y-94176666D01*
X151534761Y-94176666D02*
X151582380Y-94081428D01*
X151582380Y-93890952D01*
X151534761Y-93795714D01*
X151487142Y-93748095D01*
X151391904Y-93700476D01*
X151106190Y-93700476D01*
X151010952Y-93748095D01*
X150963333Y-93795714D01*
X150915714Y-93890952D01*
X150915714Y-94081428D01*
X150963333Y-94176666D01*
X151534761Y-95033809D02*
X151582380Y-94938571D01*
X151582380Y-94748095D01*
X151534761Y-94652857D01*
X151439523Y-94605238D01*
X151058571Y-94605238D01*
X150963333Y-94652857D01*
X150915714Y-94748095D01*
X150915714Y-94938571D01*
X150963333Y-95033809D01*
X151058571Y-95081428D01*
X151153809Y-95081428D01*
X151249047Y-94605238D01*
X151582380Y-95509999D02*
X150915714Y-95509999D01*
X151106190Y-95509999D02*
X151010952Y-95557619D01*
X150963333Y-95605238D01*
X150915714Y-95700476D01*
X150915714Y-95795714D01*
X151487142Y-97462380D02*
X151534761Y-97414761D01*
X151582380Y-97271904D01*
X151582380Y-97176666D01*
X151534761Y-97033809D01*
X151439523Y-96938571D01*
X151344285Y-96890952D01*
X151153809Y-96843333D01*
X151010952Y-96843333D01*
X150820476Y-96890952D01*
X150725238Y-96938571D01*
X150630000Y-97033809D01*
X150582380Y-97176666D01*
X150582380Y-97271904D01*
X150630000Y-97414761D01*
X150677619Y-97462380D01*
X151582380Y-98033809D02*
X151534761Y-97938571D01*
X151487142Y-97890952D01*
X151391904Y-97843333D01*
X151106190Y-97843333D01*
X151010952Y-97890952D01*
X150963333Y-97938571D01*
X150915714Y-98033809D01*
X150915714Y-98176666D01*
X150963333Y-98271904D01*
X151010952Y-98319523D01*
X151106190Y-98367142D01*
X151391904Y-98367142D01*
X151487142Y-98319523D01*
X151534761Y-98271904D01*
X151582380Y-98176666D01*
X151582380Y-98033809D01*
X150915714Y-98795714D02*
X151582380Y-98795714D01*
X151010952Y-98795714D02*
X150963333Y-98843333D01*
X150915714Y-98938571D01*
X150915714Y-99081428D01*
X150963333Y-99176666D01*
X151058571Y-99224285D01*
X151582380Y-99224285D01*
X150915714Y-99700476D02*
X151582380Y-99700476D01*
X151010952Y-99700476D02*
X150963333Y-99748095D01*
X150915714Y-99843333D01*
X150915714Y-99986190D01*
X150963333Y-100081428D01*
X151058571Y-100129047D01*
X151582380Y-100129047D01*
X151534761Y-100986190D02*
X151582380Y-100890952D01*
X151582380Y-100700476D01*
X151534761Y-100605238D01*
X151439523Y-100557619D01*
X151058571Y-100557619D01*
X150963333Y-100605238D01*
X150915714Y-100700476D01*
X150915714Y-100890952D01*
X150963333Y-100986190D01*
X151058571Y-101033809D01*
X151153809Y-101033809D01*
X151249047Y-100557619D01*
X151534761Y-101890952D02*
X151582380Y-101795714D01*
X151582380Y-101605238D01*
X151534761Y-101509999D01*
X151487142Y-101462380D01*
X151391904Y-101414761D01*
X151106190Y-101414761D01*
X151010952Y-101462380D01*
X150963333Y-101509999D01*
X150915714Y-101605238D01*
X150915714Y-101795714D01*
X150963333Y-101890952D01*
X150915714Y-102176666D02*
X150915714Y-102557619D01*
X150582380Y-102319523D02*
X151439523Y-102319523D01*
X151534761Y-102367142D01*
X151582380Y-102462380D01*
X151582380Y-102557619D01*
X151582380Y-103033809D02*
X151534761Y-102938571D01*
X151487142Y-102890952D01*
X151391904Y-102843333D01*
X151106190Y-102843333D01*
X151010952Y-102890952D01*
X150963333Y-102938571D01*
X150915714Y-103033809D01*
X150915714Y-103176666D01*
X150963333Y-103271904D01*
X151010952Y-103319523D01*
X151106190Y-103367142D01*
X151391904Y-103367142D01*
X151487142Y-103319523D01*
X151534761Y-103271904D01*
X151582380Y-103176666D01*
X151582380Y-103033809D01*
X151582380Y-103795714D02*
X150915714Y-103795714D01*
X151106190Y-103795714D02*
X151010952Y-103843333D01*
X150963333Y-103890952D01*
X150915714Y-103986190D01*
X150915714Y-104081428D01*
D12*
%TO.C,LIS3DH Connector*%
X147405000Y-114325000D02*
X147405000Y-127085000D01*
X144745000Y-111725000D02*
X144745000Y-113055000D01*
X144745000Y-114325000D02*
X144745000Y-127085000D01*
X147405000Y-114325000D02*
X144745000Y-114325000D01*
X147405000Y-127085000D02*
X144745000Y-127085000D01*
X146075000Y-111725000D02*
X144745000Y-111725000D01*
%TO.C,SD Card Reader Connector*%
X147320000Y-85030000D02*
X145990000Y-85030000D01*
X148650000Y-87630000D02*
X148650000Y-100390000D01*
X145990000Y-85030000D02*
X145990000Y-86360000D01*
X148650000Y-87630000D02*
X145990000Y-87630000D01*
X145990000Y-87630000D02*
X145990000Y-100390000D01*
X148650000Y-100390000D02*
X145990000Y-100390000D01*
%TD*%
M02*
