%TF.GenerationSoftware,KiCad,Pcbnew,(6.0.6)*%
%TF.CreationDate,2022-07-20T09:39:35-07:00*%
%TF.ProjectId,ElectronicEggDrop,456c6563-7472-46f6-9e69-634567674472,rev?*%
%TF.SameCoordinates,Original*%
%TF.FileFunction,Profile,NP*%
%FSLAX46Y46*%
G04 Gerber Fmt 4.6, Leading zero omitted, Abs format (unit mm)*
G04 Created by KiCad (PCBNEW (6.0.6)) date 2022-07-20 09:39:35*
%MOMM*%
%LPD*%
G01*
G04 APERTURE LIST*
%TA.AperFunction,Profile*%
%ADD10C,0.025399*%
%TD*%
%TA.AperFunction,Profile*%
%ADD11C,0.004306*%
%TD*%
G04 APERTURE END LIST*
D10*
X110955611Y-130290463D02*
X110755790Y-129884972D01*
D11*
X151508676Y-120070618D02*
X151381808Y-119940973D01*
D10*
X111953453Y-132047527D02*
X111746614Y-131722071D01*
X109262709Y-126233297D02*
X108865549Y-124967472D01*
D11*
X150850901Y-119200795D02*
X150817025Y-119132050D01*
D10*
X109774374Y-97090331D02*
X110679355Y-93949659D01*
D11*
X158825415Y-113571414D02*
X158955767Y-114118867D01*
D10*
X159048980Y-124434594D02*
X158580224Y-126060765D01*
X132570500Y-67846666D02*
X133224333Y-67810711D01*
X111545642Y-131386665D02*
X111348306Y-131038280D01*
X135197799Y-67846666D02*
X135839665Y-67906591D01*
D11*
X151619884Y-111109385D02*
X151867316Y-110689362D01*
X150650643Y-113572315D02*
X150804067Y-113039870D01*
D10*
X133224333Y-67810711D02*
X133884150Y-67798726D01*
X140648716Y-141868040D02*
X139909930Y-141985810D01*
D11*
X159218875Y-116275331D02*
X159221483Y-116463394D01*
X150334207Y-115248344D02*
X150414302Y-114679107D01*
D10*
X129108230Y-68565766D02*
X129600509Y-68385991D01*
D11*
X154448797Y-121261828D02*
X154180401Y-121250958D01*
X153294837Y-109092601D02*
X153608541Y-108891805D01*
D10*
X107500344Y-112057038D02*
X107589163Y-110413964D01*
D11*
X151867316Y-110689362D02*
X152129320Y-110299490D01*
X150520251Y-114119579D02*
X150650643Y-113572315D01*
D10*
X153644037Y-85197673D02*
X154906137Y-87985107D01*
X142399300Y-70666716D02*
X143308753Y-71354665D01*
X114835540Y-135421166D02*
X114835540Y-135421166D01*
X116325886Y-136803079D02*
X115573617Y-136132831D01*
D11*
X150724080Y-118929442D02*
X150639719Y-118723207D01*
X152404484Y-109942323D02*
X152691398Y-109620416D01*
D10*
X123565303Y-72103961D02*
X125371362Y-70666342D01*
D11*
X158497092Y-112523783D02*
X158672056Y-113038872D01*
D10*
X129108230Y-68565766D02*
X129108230Y-68565766D01*
D11*
X156104653Y-121117821D02*
X156000399Y-121141638D01*
X157609239Y-110688782D02*
X157734830Y-110895103D01*
D10*
X139608018Y-68989629D02*
X140547898Y-69482324D01*
D11*
X156104653Y-121117821D02*
X156104653Y-121117821D01*
X153226967Y-121082525D02*
X153060882Y-121032231D01*
X155884876Y-121163570D02*
X155759626Y-121183538D01*
X150437678Y-118079047D02*
X150387192Y-117854611D01*
X150258096Y-116380148D02*
X150265121Y-116109651D01*
D10*
X159048980Y-124434594D02*
X159048980Y-124434594D01*
X138660064Y-68565766D02*
X139608018Y-68989629D01*
X145089993Y-72912702D02*
X145959711Y-73779042D01*
D11*
X150303223Y-115544118D02*
X150334207Y-115248344D01*
X157211280Y-110116327D02*
X157347289Y-110299076D01*
X151174372Y-112029658D02*
X151388432Y-111557001D01*
X157480000Y-110490000D02*
X157609239Y-110688782D01*
X154739897Y-121261681D02*
X154448797Y-121261828D01*
X150985000Y-119443505D02*
X150950928Y-119386642D01*
D10*
X159518034Y-122405316D02*
X159297061Y-123416277D01*
D11*
X154102367Y-108679596D02*
X154199011Y-108657246D01*
X151135015Y-119659222D02*
X151094695Y-119606026D01*
X150268325Y-116898449D02*
X150259148Y-116642958D01*
D10*
X138660064Y-68565766D02*
X138660064Y-68565766D01*
D11*
X151633802Y-120191269D02*
X151508676Y-120070618D01*
D10*
X108220406Y-122349862D02*
X107971882Y-120993723D01*
X159297061Y-123416277D02*
X159048980Y-124434594D01*
X117879216Y-138022275D02*
X117093901Y-137432647D01*
X143554273Y-141139184D02*
X141945068Y-141598229D01*
X131304718Y-67990486D02*
X131928634Y-67906591D01*
D11*
X154406500Y-108624736D02*
X154515317Y-108614577D01*
D10*
X115491502Y-82562526D02*
X116951002Y-80084989D01*
X159879333Y-120390834D02*
X159712068Y-121398054D01*
X130594698Y-142383751D02*
X129876023Y-142326217D01*
D11*
X153758102Y-121200036D02*
X153575314Y-121166303D01*
D10*
X143308753Y-71354665D02*
X144205995Y-72103952D01*
X123991364Y-141093309D02*
X123041435Y-140762606D01*
D11*
X155708402Y-108808347D02*
X155867743Y-108891875D01*
D10*
X118496451Y-77785292D02*
X120119529Y-75678508D01*
X148472852Y-76704865D02*
X149275113Y-77782827D01*
D11*
X157572888Y-120428218D02*
X157357256Y-120579290D01*
D10*
X153978971Y-134376577D02*
X152929983Y-135506280D01*
D11*
X156639419Y-120946941D02*
X156377463Y-121039998D01*
D10*
X121224558Y-139996134D02*
X120354502Y-139558891D01*
X159387783Y-103616389D02*
X159860427Y-106976540D01*
D11*
X153947030Y-121228439D02*
X153947030Y-121228439D01*
X157776213Y-120263371D02*
X157572888Y-120428218D01*
D10*
X160134238Y-118361896D02*
X160020000Y-119380000D01*
X158762879Y-100314217D02*
X159387783Y-103616389D01*
X118683385Y-138572699D02*
X117879216Y-138022275D01*
D11*
X157856597Y-111108646D02*
X158087960Y-111556129D01*
X153398357Y-121127174D02*
X153226967Y-121082525D01*
D10*
X119507963Y-139084659D02*
X118683385Y-138572699D01*
D11*
X151381808Y-119940973D02*
X151325163Y-119880808D01*
D10*
X150605633Y-137530539D02*
X149333701Y-138421653D01*
D11*
X159141839Y-115248344D02*
X159185335Y-115678953D01*
X159145075Y-117522493D02*
X159116723Y-117693249D01*
X156930072Y-109776624D02*
X157072149Y-109942070D01*
X150917474Y-119327578D02*
X150884257Y-119265800D01*
D10*
X107589163Y-110413964D02*
X107725092Y-108721190D01*
D11*
X154058567Y-121241194D02*
X153947030Y-121228439D01*
D10*
X151804966Y-136558174D02*
X150605633Y-137530539D01*
X127025762Y-141884150D02*
X125981973Y-141653343D01*
X133884150Y-67798726D02*
X134543966Y-67810711D01*
X123041435Y-140762606D02*
X122119684Y-140397127D01*
D11*
X156025540Y-108986754D02*
X156181617Y-109092667D01*
D10*
X125371362Y-70666342D02*
X127221777Y-69481919D01*
X158023432Y-127621175D02*
X157380321Y-129114104D01*
D11*
X159221483Y-116463394D02*
X159219757Y-116647124D01*
X152024673Y-120511593D02*
X151891537Y-120411632D01*
X157966939Y-120085042D02*
X157776213Y-120263371D01*
D10*
X154950214Y-133170787D02*
X153978971Y-134376577D01*
D11*
X150817025Y-119132050D02*
X150817025Y-119132050D01*
D10*
X150820251Y-80081543D02*
X151561060Y-81298549D01*
X157993989Y-97085013D02*
X158762879Y-100314217D01*
X159860427Y-106976540D02*
X159860427Y-106976540D01*
D11*
X152691398Y-109620416D02*
X152988653Y-109336323D01*
X158301926Y-112028688D02*
X158497092Y-112523783D01*
X150387192Y-117854611D02*
X150345059Y-117624703D01*
X154626163Y-108608481D02*
X154738023Y-108606449D01*
X151223559Y-119767227D02*
X151177844Y-119712784D01*
X155175319Y-108638959D02*
X155277035Y-108657246D01*
D10*
X111348306Y-131038280D02*
X111152373Y-130673889D01*
D11*
X155626189Y-121201463D02*
X155340916Y-121230867D01*
D10*
X145959711Y-73779042D02*
X146814117Y-74701098D01*
D11*
X159061709Y-114678691D02*
X159141839Y-115248344D01*
D10*
X129218078Y-142251046D02*
X129218078Y-142251031D01*
D11*
X156377463Y-121039998D02*
X156104653Y-121117821D01*
D10*
X120119529Y-75678508D02*
X121811920Y-73779707D01*
X158580224Y-126060765D02*
X158023432Y-127621175D01*
X109005252Y-100318416D02*
X109774374Y-97090331D01*
X140547898Y-69482324D02*
X141478670Y-70041978D01*
D11*
X151891537Y-120411632D02*
X151761335Y-120304899D01*
D10*
X130704736Y-68098351D02*
X131304718Y-67990486D01*
D11*
X152444314Y-120772099D02*
X152300798Y-120691702D01*
X150414302Y-114679107D02*
X150520251Y-114119579D01*
D10*
X113753080Y-134301541D02*
X113442680Y-133960930D01*
D11*
X154300727Y-108638959D02*
X154406500Y-108624736D01*
D10*
X154906137Y-87985107D02*
X156057345Y-90905468D01*
D11*
X156000399Y-121141638D02*
X155884876Y-121163570D01*
X158309433Y-119689102D02*
X158144776Y-119893522D01*
D10*
X160274181Y-111895825D02*
X160314946Y-113034339D01*
X111746614Y-131722071D02*
X111545642Y-131386665D01*
D11*
X155340916Y-121230867D02*
X155041377Y-121251150D01*
X155464236Y-108706010D02*
X155547692Y-108736488D01*
X152161005Y-120604908D02*
X152024673Y-120511593D01*
D10*
X114126269Y-85202833D02*
X115491502Y-82562526D01*
X113153769Y-133631570D02*
X112884117Y-133310431D01*
D11*
X158598043Y-119242732D02*
X158460619Y-119472075D01*
D10*
X124971025Y-141389976D02*
X123991364Y-141093309D01*
X157380321Y-129114104D02*
X156652603Y-130537829D01*
X112393660Y-132680707D02*
X112168391Y-132366063D01*
X160222218Y-117332865D02*
X160134238Y-118361896D01*
D11*
X158721416Y-119001366D02*
X158598043Y-119242732D01*
X157129606Y-120716295D02*
X156890231Y-120838943D01*
X150280179Y-115831098D02*
X150303223Y-115544118D01*
D10*
X137063561Y-68098351D02*
X137633624Y-68230186D01*
D11*
X152899838Y-120976167D02*
X152743570Y-120914207D01*
X151325163Y-119880808D02*
X151272539Y-119823064D01*
X158672056Y-113038872D02*
X158825415Y-113571414D01*
D10*
X129600509Y-68385991D02*
X130134672Y-68230186D01*
D11*
X152988653Y-109336323D02*
X153294837Y-109092601D01*
D10*
X112884117Y-133310431D02*
X112631491Y-132994486D01*
X132177898Y-142447768D02*
X130594698Y-142383751D01*
X147990883Y-139229796D02*
X146578896Y-139953246D01*
X110207559Y-128689869D02*
X109709955Y-127473370D01*
X137633624Y-68230186D02*
X138167786Y-68385991D01*
D11*
X151020065Y-119498681D02*
X150985000Y-119443505D01*
D10*
X128103946Y-142083133D02*
X127025762Y-141884150D01*
X149275113Y-77782827D02*
X150057924Y-78909011D01*
X145099455Y-140590282D02*
X143554273Y-141139184D01*
D11*
X156785222Y-109620306D02*
X156930072Y-109776624D01*
X158460619Y-119472075D02*
X158309433Y-119689102D01*
X150950928Y-119386642D02*
X150917474Y-119327578D01*
D10*
X156652603Y-130537829D02*
X155841996Y-131890631D01*
X107458904Y-113652591D02*
X107500344Y-112057038D01*
X127221777Y-69481919D02*
X129108230Y-68565766D01*
X130134672Y-68230186D02*
X130704736Y-68098351D01*
D11*
X150285672Y-117146991D02*
X150268325Y-116898449D01*
X158955767Y-114118867D02*
X159061709Y-114678691D01*
D10*
X141330124Y-141738691D02*
X140648716Y-141868040D01*
X108380308Y-103618843D02*
X109005252Y-100318416D01*
D11*
X153608541Y-108891805D02*
X153928353Y-108736488D01*
X154849883Y-108608481D02*
X154960728Y-108614577D01*
D10*
X125981973Y-141653343D02*
X124971025Y-141389976D01*
D11*
X159185335Y-115678953D02*
X159211962Y-116082317D01*
D10*
X109709955Y-127473370D02*
X109262709Y-126233297D01*
D11*
X156181617Y-109092667D02*
X156335799Y-109209297D01*
X155069545Y-108624736D02*
X155175319Y-108638959D01*
X155547692Y-108736488D02*
X155547692Y-108736488D01*
D10*
X107907859Y-106976540D02*
X107907859Y-106976540D01*
X135673308Y-142384656D02*
X133894995Y-142446827D01*
X114835540Y-135421166D02*
X114087203Y-134656432D01*
X138167786Y-68385991D02*
X138660064Y-68565766D01*
D11*
X150817025Y-119132050D02*
X150724080Y-118929442D01*
X153575314Y-121166303D02*
X153398357Y-121127174D01*
X150804067Y-113039870D02*
X150979113Y-112524799D01*
D10*
X144205995Y-72103952D02*
X145089993Y-72912702D01*
X129218078Y-142251031D02*
X128103946Y-142083133D01*
X146814117Y-74701098D02*
X147652175Y-75676997D01*
X160020000Y-119380000D02*
X159879333Y-120390834D01*
D11*
X155041377Y-121251150D02*
X154739897Y-121261681D01*
D10*
X107519249Y-116709839D02*
X107465116Y-115202799D01*
X159712068Y-121398054D02*
X159518034Y-122405316D01*
D11*
X154515317Y-108614577D02*
X154626163Y-108608481D01*
X159004312Y-118208038D02*
X158924841Y-118483727D01*
X157072149Y-109942070D02*
X157211280Y-110116327D01*
X151761335Y-120304899D02*
X151633802Y-120191269D01*
X159203182Y-117004069D02*
X159188275Y-117178523D01*
X157734830Y-110895103D02*
X157856597Y-111108646D01*
X157357256Y-120579290D02*
X157129606Y-120716295D01*
D10*
X111152373Y-130673889D02*
X110955611Y-130290463D01*
X160320080Y-115227395D02*
X160284108Y-116289250D01*
X141478670Y-70041978D02*
X142399300Y-70666716D01*
X108518205Y-123673720D02*
X108220406Y-122349862D01*
D11*
X158830445Y-118748267D02*
X158721416Y-119001366D01*
D10*
X112168391Y-132366063D02*
X111953453Y-132047527D01*
D11*
X150345059Y-117624703D02*
X150311234Y-117388952D01*
D10*
X112631491Y-132994486D02*
X112393660Y-132680707D01*
X110755790Y-129884972D02*
X110755790Y-129884972D01*
D11*
X150563896Y-118512976D02*
X150496564Y-118298379D01*
D10*
X150057924Y-78909011D02*
X150820251Y-80081543D01*
D11*
X156637777Y-109473434D02*
X156785222Y-109620306D01*
D10*
X152929983Y-135506280D02*
X151804966Y-136558174D01*
X114087203Y-134656432D02*
X113753080Y-134301541D01*
D11*
X150884257Y-119265800D02*
X150850901Y-119200795D01*
X154960728Y-108614577D02*
X155069545Y-108624736D01*
D10*
X129218078Y-142251046D02*
X129218078Y-142251046D01*
D11*
X150639719Y-118723207D02*
X150563896Y-118512976D01*
D10*
X159860427Y-106976540D02*
X160117102Y-109516541D01*
X152279317Y-82558155D02*
X153644037Y-85197673D01*
X110755790Y-129884972D02*
X110207559Y-128689869D01*
X141945068Y-141598229D02*
X141945068Y-141598229D01*
D11*
X154011810Y-108706010D02*
X154102367Y-108679596D01*
D10*
X113442680Y-133960930D02*
X113153769Y-133631570D01*
X121811920Y-73779707D02*
X123565303Y-72103961D01*
D11*
X159168915Y-117351124D02*
X159145075Y-117522493D01*
X153946984Y-121228500D02*
X153758102Y-121200036D01*
X159004312Y-118208038D02*
X159004312Y-118208038D01*
X152743570Y-120914207D02*
X152591817Y-120846226D01*
D10*
X160284108Y-116289250D02*
X160222218Y-117332865D01*
D11*
X151388432Y-111557001D02*
X151619884Y-111109385D01*
X155547692Y-108736488D02*
X155708402Y-108808347D01*
D10*
X112863621Y-87990839D02*
X114126269Y-85202833D01*
D11*
X159046371Y-118035402D02*
X159004312Y-118208038D01*
D10*
X135839665Y-67906591D02*
X136463580Y-67990486D01*
D11*
X158087960Y-111556129D02*
X158301926Y-112028688D01*
D10*
X133894995Y-142446827D02*
X132177898Y-142447768D01*
D11*
X154199011Y-108657246D02*
X154300727Y-108638959D01*
X159141839Y-115248344D02*
X159141839Y-115248344D01*
D10*
X115573617Y-136132831D02*
X114835540Y-135421166D01*
D11*
X150496564Y-118298379D02*
X150437678Y-118079047D01*
D10*
X141945068Y-141598229D02*
X141330124Y-141738691D01*
X107465116Y-115202799D02*
X107458904Y-113652591D01*
X160330303Y-114143644D02*
X160320080Y-115227395D01*
D11*
X151056505Y-119552683D02*
X151020065Y-119498681D01*
X153928353Y-108736488D02*
X154011810Y-108706010D01*
X155759626Y-121183538D02*
X155626189Y-121201463D01*
X159083832Y-117864012D02*
X159046371Y-118035402D01*
X158924841Y-118483727D02*
X158830445Y-118748267D01*
D10*
X107621574Y-118175888D02*
X107519249Y-116709839D01*
X147652175Y-75676997D02*
X148472852Y-76704865D01*
X117093901Y-137432647D02*
X116325886Y-136803079D01*
D11*
X158144776Y-119893522D02*
X157966939Y-120085042D01*
X152300798Y-120691702D02*
X152161005Y-120604908D01*
X151508676Y-120070618D02*
X151508676Y-120070618D01*
X159116723Y-117693249D02*
X159083832Y-117864012D01*
X159211962Y-116082317D02*
X159218875Y-116275331D01*
D10*
X111711877Y-90911471D02*
X112863621Y-87990839D01*
X108865549Y-124967472D02*
X108518205Y-123673720D01*
D11*
X153928353Y-108736488D02*
X153928353Y-108736488D01*
X151272539Y-119823064D02*
X151223559Y-119767227D01*
X159219757Y-116647124D02*
X159213666Y-116827143D01*
X154738023Y-108606449D02*
X154849883Y-108608481D01*
D10*
X155841996Y-131890631D02*
X154950214Y-133170787D01*
X156057345Y-90905468D02*
X157089387Y-93943767D01*
D11*
X152591817Y-120846226D02*
X152444314Y-120772099D01*
D10*
X157089387Y-93943767D02*
X157993989Y-97085013D01*
D11*
X155867743Y-108891875D02*
X156025540Y-108986754D01*
D10*
X107971882Y-120993723D02*
X107772361Y-119603123D01*
D11*
X150334207Y-115248344D02*
X150334207Y-115248344D01*
D10*
X151561060Y-81298549D02*
X152279317Y-82558155D01*
D11*
X151094695Y-119606026D02*
X151056505Y-119552683D01*
D10*
X110679355Y-93949659D02*
X111711877Y-90911471D01*
D11*
X156335799Y-109209297D02*
X156487911Y-109336325D01*
D10*
X139909930Y-141985810D02*
X139122851Y-142091534D01*
D11*
X152129320Y-110299490D02*
X152404484Y-109942323D01*
D10*
X160314946Y-113034339D02*
X160330303Y-114143644D01*
D11*
X157347289Y-110299076D02*
X157480000Y-110490000D01*
D10*
X107772361Y-119603123D02*
X107621574Y-118175888D01*
X136463580Y-67990486D02*
X137063561Y-68098351D01*
X149333701Y-138421653D02*
X147990883Y-139229796D01*
D11*
X150259148Y-116642958D02*
X150258096Y-116380148D01*
X159188275Y-117178523D02*
X159168915Y-117351124D01*
X150311234Y-117388952D02*
X150285672Y-117146991D01*
X156487911Y-109336325D02*
X156637777Y-109473434D01*
D10*
X122119684Y-140397127D02*
X121224558Y-139996134D01*
D11*
X150979113Y-112524799D02*
X151174372Y-112029658D01*
D10*
X116951002Y-80084989D02*
X118496451Y-77785292D01*
D11*
X155277035Y-108657246D02*
X155373678Y-108679596D01*
X156890231Y-120838943D02*
X156639419Y-120946941D01*
D10*
X160117102Y-109516541D02*
X160274181Y-111895825D01*
X107907859Y-106976540D02*
X108380308Y-103618843D01*
X137440155Y-142264982D02*
X135673308Y-142384656D01*
X139122851Y-142091534D02*
X137440155Y-142264982D01*
D11*
X151177844Y-119712784D02*
X151135015Y-119659222D01*
X153947030Y-121228439D02*
X153946984Y-121228500D01*
D10*
X134543966Y-67810711D02*
X135197799Y-67846666D01*
D11*
X154180401Y-121250958D02*
X154058567Y-121241194D01*
X150265121Y-116109651D02*
X150280179Y-115831098D01*
D10*
X107725092Y-108721190D02*
X107907859Y-106976540D01*
X120354502Y-139558891D02*
X119507963Y-139084659D01*
D11*
X159213666Y-116827143D02*
X159203182Y-117004069D01*
D10*
X129876023Y-142326217D02*
X129218078Y-142251046D01*
X146578896Y-139953246D02*
X145099455Y-140590282D01*
X131928634Y-67906591D02*
X132570500Y-67846666D01*
D11*
X155373678Y-108679596D02*
X155464236Y-108706010D01*
X153060882Y-121032231D02*
X152899838Y-120976167D01*
M02*
