%TF.GenerationSoftware,KiCad,Pcbnew,(6.0.6)*%
%TF.CreationDate,2022-07-20T09:39:35-07:00*%
%TF.ProjectId,ElectronicEggDrop,456c6563-7472-46f6-9e69-634567674472,rev?*%
%TF.SameCoordinates,Original*%
%TF.FileFunction,Copper,L1,Top*%
%TF.FilePolarity,Positive*%
%FSLAX46Y46*%
G04 Gerber Fmt 4.6, Leading zero omitted, Abs format (unit mm)*
G04 Created by KiCad (PCBNEW (6.0.6)) date 2022-07-20 09:39:35*
%MOMM*%
%LPD*%
G01*
G04 APERTURE LIST*
G04 Aperture macros list*
%AMRoundRect*
0 Rectangle with rounded corners*
0 $1 Rounding radius*
0 $2 $3 $4 $5 $6 $7 $8 $9 X,Y pos of 4 corners*
0 Add a 4 corners polygon primitive as box body*
4,1,4,$2,$3,$4,$5,$6,$7,$8,$9,$2,$3,0*
0 Add four circle primitives for the rounded corners*
1,1,$1+$1,$2,$3*
1,1,$1+$1,$4,$5*
1,1,$1+$1,$6,$7*
1,1,$1+$1,$8,$9*
0 Add four rect primitives between the rounded corners*
20,1,$1+$1,$2,$3,$4,$5,0*
20,1,$1+$1,$4,$5,$6,$7,0*
20,1,$1+$1,$6,$7,$8,$9,0*
20,1,$1+$1,$8,$9,$2,$3,0*%
G04 Aperture macros list end*
%TA.AperFunction,ComponentPad*%
%ADD10R,1.524000X1.524000*%
%TD*%
%TA.AperFunction,ComponentPad*%
%ADD11C,1.524000*%
%TD*%
%TA.AperFunction,ComponentPad*%
%ADD12RoundRect,0.250000X0.625000X-0.350000X0.625000X0.350000X-0.625000X0.350000X-0.625000X-0.350000X0*%
%TD*%
%TA.AperFunction,ComponentPad*%
%ADD13O,1.750000X1.200000*%
%TD*%
%TA.AperFunction,ComponentPad*%
%ADD14C,1.400000*%
%TD*%
%TA.AperFunction,ComponentPad*%
%ADD15O,1.400000X1.400000*%
%TD*%
%TA.AperFunction,ComponentPad*%
%ADD16R,1.700000X1.700000*%
%TD*%
%TA.AperFunction,ComponentPad*%
%ADD17O,1.700000X1.700000*%
%TD*%
%TA.AperFunction,ComponentPad*%
%ADD18C,3.800000*%
%TD*%
%TA.AperFunction,Conductor*%
%ADD19C,0.250000*%
%TD*%
G04 APERTURE END LIST*
D10*
%TO.P,Arduino Nano,1,D13/GPIO6*%
%TO.N,Net-(Arduino_Nano1-Pad1)*%
X122891023Y-85811217D03*
D11*
%TO.P,Arduino Nano,2,+3V3*%
%TO.N,Net-(Arduino_Nano1-Pad2)*%
X122891023Y-88351217D03*
%TO.P,Arduino Nano,3,AREF*%
%TO.N,unconnected-(Arduino_Nano1-Pad3)*%
X122891023Y-90891217D03*
%TO.P,Arduino Nano,4,A0/DAC0/GPIO26*%
%TO.N,unconnected-(Arduino_Nano1-Pad4)*%
X122891023Y-93431217D03*
%TO.P,Arduino Nano,5,A1/GPIO27*%
%TO.N,unconnected-(Arduino_Nano1-Pad5)*%
X122891023Y-95971217D03*
%TO.P,Arduino Nano,6,A2/GPIO28*%
%TO.N,unconnected-(Arduino_Nano1-Pad6)*%
X122891023Y-98511217D03*
%TO.P,Arduino Nano,7,A3/GPIO29*%
%TO.N,unconnected-(Arduino_Nano1-Pad7)*%
X122891023Y-101051217D03*
%TO.P,Arduino Nano,8,A4/GPIO12*%
%TO.N,unconnected-(Arduino_Nano1-Pad8)*%
X122891023Y-103591217D03*
%TO.P,Arduino Nano,9,A5/GPIO13*%
%TO.N,unconnected-(Arduino_Nano1-Pad9)*%
X122891023Y-106131217D03*
%TO.P,Arduino Nano,10,A6*%
%TO.N,unconnected-(Arduino_Nano1-Pad10)*%
X122891023Y-108671217D03*
%TO.P,Arduino Nano,11,A7*%
%TO.N,unconnected-(Arduino_Nano1-Pad11)*%
X122891023Y-111211217D03*
%TO.P,Arduino Nano,12,+5V*%
%TO.N,Net-(Arduino_Nano1-Pad12)*%
X122891023Y-113751217D03*
%TO.P,Arduino Nano,13,QSPI_~{RESET}*%
%TO.N,unconnected-(Arduino_Nano1-Pad13)*%
X122891023Y-116291217D03*
%TO.P,Arduino Nano,14,GND*%
%TO.N,GND*%
X122891023Y-118831217D03*
%TO.P,Arduino Nano,15,VIN*%
%TO.N,Net-(Arduino_Nano1-Pad15)*%
X122891023Y-121371217D03*
%TO.P,Arduino Nano,16,TX*%
%TO.N,unconnected-(Arduino_Nano1-Pad16)*%
X138131023Y-121371217D03*
%TO.P,Arduino Nano,17,RX*%
%TO.N,unconnected-(Arduino_Nano1-Pad17)*%
X138131023Y-118831217D03*
%TO.P,Arduino Nano,18,~{RESET}*%
%TO.N,unconnected-(Arduino_Nano1-Pad18)*%
X138131023Y-116291217D03*
%TO.P,Arduino Nano,19,GND*%
%TO.N,GND*%
X138131023Y-113751217D03*
%TO.P,Arduino Nano,20,D2/GPIO25*%
%TO.N,Net-(Arduino_Nano1-Pad20)*%
X138131023Y-111211217D03*
%TO.P,Arduino Nano,21,D3/GPIO15*%
%TO.N,Net-(Arduino_Nano1-Pad21)*%
X138131023Y-108671217D03*
%TO.P,Arduino Nano,22,D4/GPIO26*%
%TO.N,Net-(Arduino_Nano1-Pad22)*%
X138131023Y-106131217D03*
%TO.P,Arduino Nano,23,D5/GPIO17*%
%TO.N,Net-(Arduino_Nano1-Pad23)*%
X138131023Y-103591217D03*
%TO.P,Arduino Nano,24,D6/GPIO18*%
%TO.N,Net-(Arduino_Nano1-Pad24)*%
X138131023Y-101051217D03*
%TO.P,Arduino Nano,25,D7/GPIO19*%
%TO.N,Net-(Arduino_Nano1-Pad25)*%
X138131023Y-98511217D03*
%TO.P,Arduino Nano,26,D8/GPIO20*%
%TO.N,Net-(Arduino_Nano1-Pad26)*%
X138131023Y-95971217D03*
%TO.P,Arduino Nano,27,D9/GPIO21*%
%TO.N,unconnected-(Arduino_Nano1-Pad27)*%
X138131023Y-93431217D03*
%TO.P,Arduino Nano,28,D10/GPIO5*%
%TO.N,Net-(Arduino_Nano1-Pad28)*%
X138131023Y-90891217D03*
%TO.P,Arduino Nano,29,D11/GPIO7/COPI*%
%TO.N,Net-(Arduino_Nano1-Pad29)*%
X138131023Y-88351217D03*
%TO.P,Arduino Nano,30,D12/GPIO4/CIPO*%
%TO.N,Net-(Arduino_Nano1-Pad30)*%
X138131023Y-85811217D03*
%TD*%
D12*
%TO.P,+3.7v,1,Pin_1*%
%TO.N,Net-(Power_SW1-Pad2)*%
X132080000Y-138160000D03*
D13*
%TO.P,+3.7v,2,Pin_2*%
%TO.N,Net-(Power_Terminal1-Pad1)*%
X132080000Y-136160000D03*
%TD*%
D14*
%TO.P,R2,1*%
%TO.N,Net-(Arduino_Nano1-Pad25)*%
X117811023Y-116291217D03*
D15*
%TO.P,R2,2*%
%TO.N,Net-(Indicator_LEDs1-Pad3)*%
X112731023Y-116291217D03*
%TD*%
D16*
%TO.P,Indicator_LEDs1,1,RK*%
%TO.N,Net-(Indicator_LEDs1-Pad1)*%
X115570000Y-102870000D03*
D17*
%TO.P,Indicator_LEDs1,2,A*%
%TO.N,GND*%
X118110000Y-102870000D03*
%TO.P,Indicator_LEDs1,3,GK*%
%TO.N,Net-(Indicator_LEDs1-Pad3)*%
X115570000Y-100330000D03*
%TO.P,Indicator_LEDs1,4,BK*%
%TO.N,Net-(Indicator_LEDs1-Pad4)*%
X118110000Y-100330000D03*
%TO.P,Indicator_LEDs1,5*%
%TO.N,N/C*%
X115570000Y-97790000D03*
%TO.P,Indicator_LEDs1,6*%
X118110000Y-97790000D03*
%TD*%
D14*
%TO.P,R3,1*%
%TO.N,Net-(Arduino_Nano1-Pad26)*%
X117811023Y-121371217D03*
D15*
%TO.P,R3,2*%
%TO.N,Net-(Indicator_LEDs1-Pad4)*%
X112731023Y-121371217D03*
%TD*%
D18*
%TO.P,REF\u002A\u002A,1*%
%TO.N,N/C*%
X116840000Y-129540000D03*
%TD*%
D16*
%TO.P,Switch,1,A*%
%TO.N,Net-(Arduino_Nano1-Pad15)*%
X121920000Y-134620000D03*
D17*
%TO.P,Switch,2,B*%
%TO.N,Net-(Power_SW1-Pad2)*%
X124460000Y-134620000D03*
%TD*%
D14*
%TO.P,R1,1*%
%TO.N,Net-(Arduino_Nano1-Pad24)*%
X117811023Y-111211217D03*
D15*
%TO.P,R1,2*%
%TO.N,Net-(Indicator_LEDs1-Pad1)*%
X112731023Y-111211217D03*
%TD*%
D12*
%TO.P,+3.7V,1,Pin_1*%
%TO.N,Net-(Power_Terminal1-Pad1)*%
X132080000Y-130810000D03*
D13*
%TO.P,+3.7V,2,Pin_2*%
%TO.N,GND*%
X132080000Y-128810000D03*
%TD*%
D18*
%TO.P,REF\u002A\u002A,1*%
%TO.N,N/C*%
X116840000Y-88900000D03*
%TD*%
D16*
%TO.P,LIS3DH Connector,1,Pin_1*%
%TO.N,Net-(Arduino_Nano1-Pad12)*%
X146075000Y-113055000D03*
D17*
%TO.P,LIS3DH Connector,2,Pin_2*%
%TO.N,GND*%
X146075000Y-115595000D03*
%TO.P,LIS3DH Connector,3,Pin_3*%
%TO.N,Net-(Arduino_Nano1-Pad20)*%
X146075000Y-118135000D03*
%TO.P,LIS3DH Connector,4,Pin_4*%
%TO.N,Net-(Arduino_Nano1-Pad22)*%
X146075000Y-120675000D03*
%TO.P,LIS3DH Connector,5,Pin_5*%
%TO.N,Net-(Arduino_Nano1-Pad21)*%
X146075000Y-123215000D03*
%TO.P,LIS3DH Connector,6,Pin_6*%
%TO.N,Net-(Arduino_Nano1-Pad23)*%
X146075000Y-125755000D03*
%TD*%
D16*
%TO.P,SD Card Reader Connector,1,Pin_1*%
%TO.N,Net-(Arduino_Nano1-Pad2)*%
X147320000Y-86360000D03*
D17*
%TO.P,SD Card Reader Connector,2,Pin_2*%
%TO.N,GND*%
X147320000Y-88900000D03*
%TO.P,SD Card Reader Connector,3,Pin_3*%
%TO.N,Net-(Arduino_Nano1-Pad1)*%
X147320000Y-91440000D03*
%TO.P,SD Card Reader Connector,4,Pin_4*%
%TO.N,Net-(Arduino_Nano1-Pad30)*%
X147320000Y-93980000D03*
%TO.P,SD Card Reader Connector,5,Pin_5*%
%TO.N,Net-(Arduino_Nano1-Pad29)*%
X147320000Y-96520000D03*
%TO.P,SD Card Reader Connector,6,Pin_6*%
%TO.N,Net-(Arduino_Nano1-Pad28)*%
X147320000Y-99060000D03*
%TD*%
D19*
%TO.N,Net-(Arduino_Nano1-Pad1)*%
X145751023Y-90891217D02*
X143211023Y-88351217D01*
X143211023Y-88351217D02*
X143211023Y-84541217D01*
X145751023Y-90891217D02*
X146771217Y-90891217D01*
X146771217Y-90891217D02*
X147320000Y-91440000D01*
X143211023Y-84541217D02*
X139401023Y-80731217D01*
X120351023Y-83271217D02*
X122891023Y-85811217D01*
X120351023Y-80731217D02*
X120351023Y-83271217D01*
X139401023Y-80731217D02*
X120351023Y-80731217D01*
%TO.N,Net-(Arduino_Nano1-Pad2)*%
X147320000Y-86360000D02*
X146299806Y-86360000D01*
X119081023Y-84541217D02*
X122891023Y-88351217D01*
X146299806Y-86360000D02*
X139401023Y-79461217D01*
X139401023Y-79461217D02*
X119081023Y-79461217D01*
X119081023Y-79461217D02*
X119081023Y-84541217D01*
%TO.N,Net-(Arduino_Nano1-Pad12)*%
X125431023Y-113751217D02*
X122891023Y-113751217D01*
X136861023Y-102321217D02*
X125431023Y-113751217D01*
X141941023Y-102321217D02*
X139401023Y-102321217D01*
X145751023Y-106131217D02*
X141941023Y-102321217D01*
X145751023Y-113116217D02*
X145751023Y-106131217D01*
X139401023Y-102321217D02*
X136861023Y-102321217D01*
%TO.N,GND*%
X143211023Y-97241217D02*
X143211023Y-101051217D01*
X121621023Y-99781217D02*
X131781023Y-99781217D01*
X119928783Y-101051217D02*
X120351023Y-101051217D01*
X132080000Y-128810000D02*
X148050000Y-128810000D01*
X118110000Y-102870000D02*
X119928783Y-101051217D01*
X144780000Y-114300000D02*
X143510000Y-114300000D01*
X149311217Y-90891217D02*
X150831023Y-90891217D01*
X144481023Y-102321217D02*
X149138783Y-102321217D01*
X148590000Y-128270000D02*
X148590000Y-102870000D01*
X146075000Y-115595000D02*
X148565000Y-115595000D01*
X150831023Y-90891217D02*
X150831023Y-102321217D01*
X142961217Y-113751217D02*
X138131023Y-113751217D01*
X149138783Y-102321217D02*
X150831023Y-102321217D01*
X136861023Y-94701217D02*
X140671023Y-94701217D01*
X132080000Y-128810000D02*
X132080000Y-124460000D01*
X126701023Y-118831217D02*
X122891023Y-118831217D01*
X143510000Y-114300000D02*
X142961217Y-113751217D01*
X147320000Y-88900000D02*
X149311217Y-90891217D01*
X148565000Y-115595000D02*
X148590000Y-115570000D01*
X126701023Y-119081023D02*
X126701023Y-118831217D01*
X148050000Y-128810000D02*
X148590000Y-128270000D01*
X148590000Y-102870000D02*
X149138783Y-102321217D01*
X131781023Y-99781217D02*
X136861023Y-94701217D01*
X146075000Y-115595000D02*
X144780000Y-114300000D01*
X143211023Y-101051217D02*
X144481023Y-102321217D01*
X120351023Y-101051217D02*
X121621023Y-99781217D01*
X140671023Y-94701217D02*
X143211023Y-97241217D01*
X132080000Y-124460000D02*
X126701023Y-119081023D01*
%TO.N,Net-(Arduino_Nano1-Pad15)*%
X119380000Y-124460000D02*
X121920000Y-127000000D01*
X122342240Y-121920000D02*
X121920000Y-121920000D01*
X121920000Y-127000000D02*
X121920000Y-134620000D01*
X121920000Y-121920000D02*
X119380000Y-124460000D01*
X122891023Y-121371217D02*
X122342240Y-121920000D01*
%TO.N,Net-(Arduino_Nano1-Pad20)*%
X146075000Y-118135000D02*
X142961217Y-115021217D01*
X142961217Y-115021217D02*
X135591023Y-115021217D01*
X135591023Y-115021217D02*
X135591023Y-113751217D01*
X135591023Y-113751217D02*
X138131023Y-111211217D01*
%TO.N,Net-(Arduino_Nano1-Pad21)*%
X147320000Y-121970000D02*
X147320000Y-119380000D01*
X142662240Y-119380000D02*
X142576023Y-119466217D01*
X134321023Y-112481217D02*
X138131023Y-108671217D01*
X142576023Y-119466217D02*
X140671023Y-117561217D01*
X147320000Y-119380000D02*
X142662240Y-119380000D01*
X134321023Y-117561217D02*
X134321023Y-112481217D01*
X140671023Y-117561217D02*
X134321023Y-117561217D01*
X146075000Y-123215000D02*
X147320000Y-121970000D01*
%TO.N,Net-(Arduino_Nano1-Pad22)*%
X140036023Y-120736217D02*
X139401023Y-120101217D01*
X133051023Y-120101217D02*
X133051023Y-111211217D01*
X146075000Y-120675000D02*
X140097240Y-120675000D01*
X133051023Y-111211217D02*
X138131023Y-106131217D01*
X139401023Y-120101217D02*
X133051023Y-120101217D01*
X140097240Y-120675000D02*
X140036023Y-120736217D01*
%TO.N,Net-(Arduino_Nano1-Pad23)*%
X131781023Y-122641217D02*
X131781023Y-109941217D01*
X142637240Y-125755000D02*
X142576023Y-125816217D01*
X142576023Y-125816217D02*
X139408059Y-122648253D01*
X131788059Y-122648253D02*
X131781023Y-122641217D01*
X131781023Y-109941217D02*
X138131023Y-103591217D01*
X146075000Y-125755000D02*
X142637240Y-125755000D01*
X139408059Y-122648253D02*
X131788059Y-122648253D01*
%TO.N,Net-(Arduino_Nano1-Pad24)*%
X130503987Y-107408253D02*
X136861023Y-101051217D01*
X117811023Y-111211217D02*
X121613987Y-107408253D01*
X121613987Y-107408253D02*
X130503987Y-107408253D01*
X136861023Y-101051217D02*
X138131023Y-101051217D01*
%TO.N,Net-(Arduino_Nano1-Pad25)*%
X116541023Y-112481217D02*
X116541023Y-109941217D01*
X117811023Y-116291217D02*
X117811023Y-113751217D01*
X116541023Y-109941217D02*
X121621023Y-104861217D01*
X121621023Y-104861217D02*
X131781023Y-104861217D01*
X131781023Y-104861217D02*
X138131023Y-98511217D01*
X117811023Y-113751217D02*
X116541023Y-112481217D01*
%TO.N,Net-(Arduino_Nano1-Pad26)*%
X115721023Y-119281217D02*
X115721023Y-108221217D01*
X115721023Y-108221217D02*
X121621023Y-102321217D01*
X117811023Y-121371217D02*
X115721023Y-119281217D01*
X121621023Y-102321217D02*
X131781023Y-102321217D01*
X131781023Y-102321217D02*
X138131023Y-95971217D01*
%TO.N,Net-(Arduino_Nano1-Pad28)*%
X147320000Y-99060000D02*
X146771217Y-98511217D01*
X146771217Y-98511217D02*
X145751023Y-98511217D01*
X145751023Y-98511217D02*
X138131023Y-90891217D01*
%TO.N,Net-(Arduino_Nano1-Pad29)*%
X146299806Y-96520000D02*
X140671023Y-90891217D01*
X147320000Y-96520000D02*
X146299806Y-96520000D01*
X140671023Y-90891217D02*
X140671023Y-88351217D01*
X140671023Y-88351217D02*
X138131023Y-88351217D01*
%TO.N,Net-(Arduino_Nano1-Pad30)*%
X147320000Y-93980000D02*
X146299806Y-93980000D01*
X141941023Y-85811217D02*
X138131023Y-85811217D01*
X141941023Y-89621217D02*
X141941023Y-85811217D01*
X146299806Y-93980000D02*
X141941023Y-89621217D01*
%TO.N,Net-(Indicator_LEDs1-Pad1)*%
X112731023Y-104608977D02*
X112731023Y-111211217D01*
X114470000Y-102870000D02*
X112731023Y-104608977D01*
X115570000Y-102870000D02*
X114470000Y-102870000D01*
%TO.N,Net-(Indicator_LEDs1-Pad3)*%
X112731023Y-116291217D02*
X111368844Y-114929038D01*
X111368844Y-104531156D02*
X115570000Y-100330000D01*
X111368844Y-114929038D02*
X111368844Y-104531156D01*
%TO.N,Net-(Indicator_LEDs1-Pad4)*%
X116835722Y-101604278D02*
X118110000Y-100330000D01*
X116835722Y-104135722D02*
X116835722Y-101604278D01*
X112731023Y-121371217D02*
X114304278Y-119797962D01*
X114304278Y-106667166D02*
X116835722Y-104135722D01*
X114304278Y-119797962D02*
X114304278Y-106667166D01*
%TO.N,Net-(Power_SW1-Pad2)*%
X124460000Y-134620000D02*
X128000000Y-138160000D01*
X128000000Y-138160000D02*
X132080000Y-138160000D01*
%TO.N,Net-(Power_Terminal1-Pad1)*%
X132080000Y-136160000D02*
X132080000Y-130810000D01*
%TD*%
M02*
