<?xml version="1.0" encoding="UTF-8" standalone="no"?>
<!-- Created with Inkscape (http://www.inkscape.org/) -->

<svg
   width="210mm"
   height="297mm"
   viewBox="0 0 210 297"
   version="1.1"
   id="svg709"
   xml:space="preserve"
   inkscape:version="1.2.1 (9c6d41e410, 2022-07-14)"
   sodipodi:docname="CreatedBy.svg"
   xmlns:inkscape="http://www.inkscape.org/namespaces/inkscape"
   xmlns:sodipodi="http://sodipodi.sourceforge.net/DTD/sodipodi-0.dtd"
   xmlns="http://www.w3.org/2000/svg"
   xmlns:svg="http://www.w3.org/2000/svg"><sodipodi:namedview
     id="namedview711"
     pagecolor="#ffffff"
     bordercolor="#999999"
     borderopacity="1"
     inkscape:showpageshadow="0"
     inkscape:pageopacity="0"
     inkscape:pagecheckerboard="0"
     inkscape:deskcolor="#d1d1d1"
     inkscape:document-units="mm"
     showgrid="false"
     inkscape:zoom="1.5483025"
     inkscape:cx="456.62912"
     inkscape:cy="481.818"
     inkscape:window-width="1920"
     inkscape:window-height="1031"
     inkscape:window-x="0"
     inkscape:window-y="0"
     inkscape:window-maximized="1"
     inkscape:current-layer="layer1" /><defs
     id="defs706" /><g
     inkscape:label="Layer 1"
     inkscape:groupmode="layer"
     id="layer1"><path
       style="fill:#000000;stroke-width:0.0663231"
       d="m 95.132452,126.48951 c -0.62012,-0.97249 -1.13744,-1.79275 -1.1496,-1.8228 -0.0122,-0.03 0.20312,-0.0546 0.47839,-0.0546 h 0.5005 l 0.53131,0.89239 c 0.29222,0.49081 0.58527,0.99305 0.65122,1.11609 l 0.1199,0.22371 0.66112,-1.11446 0.66112,-1.11446 0.48793,-0.002 c 0.43035,-0.001 0.48289,0.0115 0.44513,0.10994 -0.0388,0.10101 -2.22552,3.53767 -2.24941,3.53511 -0.006,-5.9e-4 -0.51749,-0.79676 -1.13761,-1.76925 z M 73.42747,127.8397 c -0.466621,-0.16923 -0.944367,-0.72705 -0.944367,-1.10265 0,-0.12194 0.04148,-0.13528 0.420455,-0.13528 0.386406,0 0.426699,0.0137 0.497571,0.16925 0.130513,0.28644 0.434653,0.36133 1.467476,0.36133 h 0.930657 v -0.82904 -0.82904 h -0.29846 -0.298451 v -0.4311 -0.4311 h 0.729551 0.72956 v 1.65808 1.65808 l -1.508853,-0.005 c -0.982834,-0.003 -1.584254,-0.0324 -1.725139,-0.0835 z m 3.830902,-0.30941 v -0.39794 h 0.33161 0.33162 v 0.39794 0.39794 h -0.33162 -0.33161 z m 4.90791,-0.82904 v -1.22698 h -0.42082 c -0.44093,0 -0.64035,0.11006 -0.64035,0.35342 0,0.0922 -0.0724,0.11084 -0.42944,0.11084 h -0.42945 l 0.0411,-0.21555 c 0.0631,-0.33088 0.26455,-0.6881 0.46811,-0.82989 0.36065,-0.2512 0.59232,-0.28102 2.18348,-0.28102 h 1.5487 v 0.4311 0.4311 h -0.72955 -0.72956 v 1.22698 1.22698 h -0.4311 -0.4311 z m 2.71925,-0.4311 v -1.65808 h 2.23102 2.23102 l -0.0332,0.58251 c -0.0468,0.82035 -0.23691,1.13374 -0.84418,1.39141 l -0.29525,0.12527 0.58658,0.60848 0.58658,0.60849 h -0.52477 -0.52477 l -0.62745,-0.63007 -0.62745,-0.63007 h -0.48215 -0.48216 v -0.39794 -0.39794 h 1.05859 c 1.00358,0 1.06561,-0.008 1.19382,-0.14515 0.0744,-0.0798 0.13523,-0.16937 0.13523,-0.19897 0,-0.0296 -0.61184,-0.0538 -1.35963,-0.0538 h -1.35962 v 1.22698 1.22698 h -0.4311 -0.4311 z m 4.90791,0 v -1.65808 h 1.48173 c 1.99279,0 2.34359,0.11172 2.68373,0.85468 0.15258,0.33327 0.172,0.47122 0.19921,1.41537 l 0.0302,1.04611 h -0.43985 -0.43985 v -0.59691 -0.59691 h -1.32646 -1.32646 v 0.59691 0.59691 h -0.4311 -0.4311 z m 3.38248,-0.45398 c 0,-0.0308 -0.0627,-0.1129 -0.13942,-0.18239 -0.12332,-0.11177 -0.26875,-0.12876 -1.26014,-0.14729 l -1.12072,-0.0209 v 0.20333 0.20334 h 1.26014 c 0.69307,0 1.26014,-0.0252 1.26014,-0.056 z m 5.77011,0.45398 v -1.65808 h 0.4311 0.4311 v 1.65808 1.65808 h -0.4311 -0.4311 z m 1.392788,1.26367 v -0.39442 l 1.49824,-0.0201 c 1.48331,-0.0199 1.4995,-0.0217 1.62492,-0.17669 0.0697,-0.0861 0.12667,-0.18311 0.12667,-0.21555 0,-0.0328 -0.72081,-0.059 -1.62491,-0.059 h -1.62492 v -0.54281 c 0,-0.70844 0.15088,-1.0424 0.5867,-1.2986 l 0.30866,-0.18145 1.57518,-0.0209 1.57517,-0.0209 v 0.43544 0.43544 h -1.48746 -1.48745 l -0.14352,0.18239 -0.14352,0.18239 1.63098,0.0177 1.63097,0.0177 v 0.55827 c 0,0.81366 -0.15606,1.1207 -0.69639,1.37007 -0.2335,0.10777 -0.45011,0.12262 -1.80731,0.1239 l -1.54201,0.001 z m 6.51452,-0.61702 0.0183,-1.01143 0.41452,-0.0197 0.41452,-0.0197 v 0.63324 0.63323 h 0.93065 c 1.40889,0 1.58963,-0.13159 1.58963,-1.15739 v -0.49841 l -1.67466,-0.0177 -1.67466,-0.0177 -0.0197,-0.41452 -0.0197,-0.41452 h 2.13219 2.13219 l -0.0254,1.11091 c -0.0279,1.2164 -0.0866,1.4319 -0.49586,1.82037 -0.37378,0.35476 -0.54681,0.38488 -2.21092,0.38488 h -1.52929 z m 4.70728,-0.0663 c 0.0347,-1.39273 0.15996,-1.70949 0.81585,-2.06247 0.2476,-0.13326 0.37474,-0.14416 1.90679,-0.16356 l 1.6415,-0.0208 v 1.66229 1.66228 h -0.4311 -0.43111 v -0.63007 -0.63007 h -1.32646 -1.32646 v 0.63007 0.63007 h -0.43792 -0.43791 z m 3.50193,-1.17724 v -0.19897 h -1.01811 c -1.06358,0 -1.39196,0.0594 -1.5059,0.27227 -0.0649,0.12135 -0.0227,0.12567 1.22838,0.12567 h 1.29563 z m 1.39279,0.59691 v -1.65808 h 0.3661 c 0.68725,0 1.57527,0.48259 2.66818,1.45 l 0.61349,0.54305 v -0.99653 -0.99652 h 0.4311 0.4311 v 1.65808 1.65808 h -0.45447 -0.45448 l -0.32006,-0.40738 c -0.67448,-0.85851 -1.54594,-1.60936 -2.17005,-1.86973 l -0.24871,-0.10376 v 1.19044 1.19043 h -0.4311 -0.4311 z m 5.04056,0 v -1.65808 h 0.4311 0.4311 v 1.65808 1.65808 h -0.4311 -0.4311 z m 1.40481,0.61349 c 0.0292,-1.17533 0.12135,-1.50069 0.53166,-1.87628 0.36836,-0.33719 0.70448,-0.39529 2.28708,-0.39529 h 1.41391 v 0.4311 0.4311 h -1.45806 -1.45806 l -0.2166,0.19703 -0.21659,0.19702 1.64149,0.002 1.6415,0.002 v 0.39794 0.39794 h -1.65808 -1.65808 v 0.23213 0.23213 h 1.69124 1.69124 v 0.39794 0.39794 h -2.12929 -2.12928 z m 4.64601,-0.5927 0.0177,-1.64571 0.41452,-0.0197 0.41452,-0.0198 v 1.26331 1.2633 h 0.93066 c 1.02378,0 1.30093,-0.0667 1.49261,-0.35924 0.10138,-0.15472 0.15348,-0.17134 0.537,-0.17134 h 0.42474 l -0.0425,0.18238 c -0.0802,0.34386 -0.32493,0.70721 -0.61216,0.909 l -0.2874,0.20192 -1.65372,0.0208 -1.65371,0.0208 z m -54.930971,-5.18345 c 0,-1.4226 0.168851,-1.86874 0.822441,-2.17307 0.324641,-0.15117 0.398765,-0.15751 1.847065,-0.15814 l 1.508847,-6.4e-4 v 0.39794 0.39793 h -1.32859 c -1.857404,0 -1.987562,0.0736 -1.987562,1.1242 v 0.53388 h 1.658078 1.658074 v 0.4311 0.4311 h -2.089174 -2.089179 z m 4.642623,-0.67061 v -1.66124 h 2.18866 2.18866 v 0.53271 c 0,0.30479 -0.0391,0.62403 -0.0913,0.74614 -0.12854,0.30043 -0.44126,0.5732 -0.76764,0.66956 l -0.27838,0.0822 0.60832,0.64277 0.60832,0.64277 h -0.5218 -0.5218 l -0.62745,-0.63007 -0.62745,-0.63007 h -0.51532 -0.51531 v -0.39794 -0.39793 l 0.97826,-9.1e-4 c 0.53805,-5e-4 1.04662,-0.0192 1.13015,-0.0416 0.0835,-0.0224 0.19622,-0.12643 0.25042,-0.23123 l 0.0985,-0.19054 h -1.35987 -1.35986 l -0.018,1.24356 -0.0181,1.24356 -0.41452,0.0198 -0.41452,0.0197 z m 6.03497,1.59294 c -0.47689,-0.14506 -0.85113,-0.46702 -1.02406,-0.881 -0.0786,-0.18813 -0.103,-0.49865 -0.103,-1.30988 v -1.0633 h 2.08918 2.08918 v 0.39794 0.39793 h -1.65808 -1.65808 v 0.23213 0.23214 h 1.62492 1.62491 v 0.39793 0.39794 h -1.59175 c -0.93391,0 -1.59176,0.0254 -1.59176,0.0615 0,0.0338 0.0786,0.12337 0.17475,0.19897 0.16469,0.12955 0.25825,0.13746 1.62492,0.13746 h 1.45017 v 0.4311 0.4311 l -1.44253,-0.006 c -0.79339,-0.003 -1.51734,-0.0285 -1.60877,-0.0563 z m 3.44923,-1.59611 v -1.65807 l 1.60834,0.001 c 1.77258,0.002 1.93801,0.0329 2.31779,0.43786 0.34547,0.36842 0.40889,0.62892 0.43801,1.79909 l 0.0268,1.07775 h -0.43791 -0.43792 v -0.63007 -0.63007 h -1.32646 -1.32647 v 0.63007 0.63007 h -0.4311 -0.4311 v -1.65808 z m 3.3833,-0.52906 c -0.13501,-0.25227 -0.32993,-0.2957 -1.44334,-0.32165 l -1.07776,-0.0251 v 0.23895 0.23895 h 1.29564 c 1.27008,0 1.29425,-0.003 1.22546,-0.13113 z m 3.05005,0.927 v -1.26016 h -0.29414 c -0.41571,0 -0.60676,0.0906 -0.68912,0.32688 -0.0689,0.19768 -0.0831,0.20371 -0.47978,0.20371 h -0.40877 l 0.0455,-0.24871 c 0.0756,-0.41355 0.33325,-0.78419 0.65251,-0.93874 0.26778,-0.12963 0.39772,-0.13901 1.92431,-0.13901 h 1.63714 v 0.39794 0.39793 h -0.76272 -0.76271 v 1.26014 1.26014 h -0.4311 -0.43111 z m 3.80828,1.16655 c -0.41137,-0.1288 -0.67637,-0.36065 -0.8754,-0.76592 -0.16894,-0.34398 -0.18198,-0.43424 -0.204,-1.41205 l -0.0235,-1.04459 h 2.12929 2.129288 v 0.39794 0.39793 h -1.691238 -1.69124 v 0.23213 0.23214 h 1.65807 1.658078 v 0.39793 0.39794 l -1.641488,0.002 -1.6415,0.002 0.21659,0.19703 0.2166,0.19702 h 1.45806 1.458068 v 0.4311 0.4311 l -1.442528,-0.004 c -0.97342,-0.003 -1.53053,-0.032 -1.71312,-0.0892 z m 3.553588,-0.93008 v -1.03234 h 0.4311 0.4311 v 0.5969 0.59691 h 1.02696 1.02696 l 0.2166,-0.19345 c 0.21198,-0.18932 0.21709,-0.20701 0.23958,-0.82904 l 0.023,-0.63559 h -1.69764 -1.69764 v -0.39793 -0.39794 h 2.12234 2.12234 v 0.94964 c 0,1.37871 -0.17339,1.84072 -0.8208,2.18703 -0.25623,0.13707 -0.37317,0.14764 -1.84871,0.16724 l -1.57517,0.0209 z m 6.69864,-0.63158 v -1.6609 l 1.93995,2.4e-4 c 1.80661,2.3e-4 1.95453,0.009 2.15213,0.12962 0.3943,0.24042 0.44646,0.99644 0.0913,1.32282 l -0.17345,0.15938 0.17566,0.17566 c 0.34486,0.34486 0.29435,1.06722 -0.0948,1.35629 -0.17847,0.13256 -0.27731,0.13988 -2.13892,0.15839 l -1.9518,0.0194 z m 3.41017,0.77209 c 0.0657,-0.048 0.10831,-0.14501 0.0948,-0.21555 -0.0228,-0.11873 -0.10338,-0.13073 -1.08496,-0.16143 l -1.06038,-0.0332 -0.0199,-0.38136 -0.0199,-0.38135 h 1.06321 1.06322 l 0.0407,-0.16204 c 0.0224,-0.0891 0.0212,-0.19358 -0.003,-0.23213 -0.028,-0.0454 -0.49843,-0.0701 -1.33271,-0.0701 h -1.28938 v 0.8622 0.86221 h 1.2143 c 0.89928,0 1.24527,-0.0226 1.33367,-0.0873 z m 1.56406,0.45627 v -0.43531 h 1.48915 c 1.52921,0 1.73029,-0.0289 1.88089,-0.27001 0.0781,-0.12512 0.0421,-0.12793 -1.64508,-0.12793 h -1.72496 v -1.02801 -1.028 h 0.4311 0.4311 v 0.63007 0.63007 h 1.32646 1.32647 v -0.63007 -0.63007 h 0.4311 0.4311 v 0.85314 c 0,0.46924 -0.0301,1.01391 -0.0668,1.2104 -0.0848,0.4536 -0.35454,0.84184 -0.73203,1.05364 -0.28971,0.16256 -0.32771,0.16622 -1.937,0.1866 l -1.6415,0.0208 z m 4.90791,-0.33582 v -0.4311 h 0.33162 0.33161 v 0.4311 0.4311 h -0.33161 -0.33162 z m 0,-1.5586 v -0.39794 h 0.36478 0.36478 v 0.39794 0.39794 h -0.36478 -0.36478 z"
       id="path864" /></g></svg>
