<?xml version="1.0" encoding="UTF-8" standalone="no"?>
<!-- Created with Inkscape (http://www.inkscape.org/) -->

<svg
   width="210mm"
   height="297mm"
   viewBox="0 0 210 297"
   version="1.1"
   id="svg5"
   inkscape:version="1.2.1 (9c6d41e410, 2022-07-14)"
   sodipodi:docname="Eggcelerometer.svg"
   inkscape:export-filename="Eggcelerometer.png"
   inkscape:export-xdpi="96"
   inkscape:export-ydpi="96"
   xml:space="preserve"
   xmlns:inkscape="http://www.inkscape.org/namespaces/inkscape"
   xmlns:sodipodi="http://sodipodi.sourceforge.net/DTD/sodipodi-0.dtd"
   xmlns="http://www.w3.org/2000/svg"
   xmlns:svg="http://www.w3.org/2000/svg"><sodipodi:namedview
     id="namedview7"
     pagecolor="#ffffff"
     bordercolor="#999999"
     borderopacity="1"
     inkscape:showpageshadow="0"
     inkscape:pageopacity="0"
     inkscape:pagecheckerboard="0"
     inkscape:deskcolor="#d1d1d1"
     inkscape:document-units="mm"
     showgrid="false"
     inkscape:zoom="1.5483025"
     inkscape:cx="384.29184"
     inkscape:cy="432.08612"
     inkscape:window-width="1920"
     inkscape:window-height="1031"
     inkscape:window-x="0"
     inkscape:window-y="0"
     inkscape:window-maximized="1"
     inkscape:current-layer="layer1" /><defs
     id="defs2" /><g
     inkscape:label="Layer 1"
     inkscape:groupmode="layer"
     id="layer1"><path
       style="fill:#000000;stroke-width:0.171296"
       d="m 68.413894,92.082278 c -1.18986,-0.603104 -1.441715,-1.201416 -1.514222,-3.597208 l -0.06091,-2.012724 h 3.786546 3.786545 v 0.685183 0.685182 H 71.41418 68.416507 v 0.513887 0.513887 h 2.912025 2.912025 v 0.685182 0.685183 h -2.95009 -2.950091 l 0.384941,0.385415 c 0.360532,0.360976 0.553025,0.388895 3.035738,0.440297 l 2.650798,0.05488 v 0.673124 0.673125 h -2.618786 c -2.376282,0 -2.689199,-0.03569 -3.379169,-0.385415 z m 6.854433,-1.462541 c 0,-1.576903 0.05653,-1.959487 0.385415,-2.608339 0.664925,-1.311827 1.102932,-1.453404 4.496509,-1.453404 h 2.912026 l 0.0521,0.624562 0.0521,0.624563 -2.792832,0.07387 c -1.536058,0.04063 -2.928393,0.134222 -3.094078,0.207986 -0.367035,0.163406 -0.512802,0.695907 -0.536915,1.961411 l -0.01832,0.961295 2.440963,0.04753 2.440962,0.04753 v -0.432949 c 0,-0.36685 -0.07845,-0.432942 -0.513887,-0.432942 -0.485337,0 -0.513887,-0.03807 -0.513887,-0.685183 v -0.685182 h 1.284717 1.284717 v 1.798604 1.798604 H 79.208119 75.26832 Z m 8.773726,-0.08808 c 0.09956,-2.256029 0.372294,-3.003587 1.308126,-3.585543 0.573486,-0.356626 0.863854,-0.392965 3.578972,-0.447889 L 91.884,86.438455 v 0.684528 0.684528 l -2.84157,0.06043 c -2.74463,0.05837 -2.85274,0.07422 -3.168968,0.46482 -0.251521,0.310668 -0.327399,0.677895 -0.327399,1.584484 v 1.180093 h 2.483786 2.483786 v -0.417396 c 0,-0.34569 -0.09563,-0.426607 -0.556711,-0.471063 -0.508251,-0.049 -0.561339,-0.109592 -0.609875,-0.696036 l -0.05316,-0.642358 h 1.295057 1.295058 v 1.798604 1.798604 H 87.920313 83.95662 Z m 8.86972,0.04629 c 0,-3.569647 0.650888,-4.102869 5.010399,-4.104638 l 2.355308,-9.55e-4 v 0.666513 0.666512 l -2.565758,0.06258 c -3.171686,0.07736 -3.294272,0.150519 -3.40044,2.029417 l -0.0678,1.199961 h 3.017 3.016998 v 0.685182 0.685183 h -3.682848 -3.682855 z m 8.247137,-0.12297 c 0.0517,-1.704219 0.11826,-2.104618 0.43445,-2.612258 0.70266,-1.128142 1.16797,-1.273724 4.29405,-1.34347 l 2.78356,-0.0621 v 0.702787 0.702787 l -2.18402,9.59e-4 c -2.40668,0.001 -3.37253,0.184394 -3.64405,0.691723 -0.17473,0.326498 -0.1045,0.335092 2.73872,0.335092 h 2.91805 v 0.685182 0.685183 h -2.91202 -2.91203 v 0.428239 0.428239 h 2.99767 2.99768 v 0.685182 0.685183 h -3.78655 -3.78654 z m 8.40731,-0.942126 0.0469,-2.954849 0.72801,-0.05267 0.728,-0.05267 v 2.32234 2.32234 h 1.72422 c 1.68993,0 2.33131,-0.153504 2.60951,-0.624541 0.0831,-0.140612 0.44169,-0.231937 0.91085,-0.231937 0.72378,0 0.76611,0.02494 0.65419,0.385415 -0.22163,0.713821 -0.75123,1.286874 -1.44634,1.565001 -0.53178,0.212777 -1.30234,0.276427 -3.34652,0.276427 h -2.65566 z m 9.37987,2.569435 c -1.20635,-0.611464 -1.44585,-1.19817 -1.44996,-3.551992 l -0.003,-1.972292 3.72568,-0.04617 3.72568,-0.04616 v 0.688523 0.688523 h -2.99768 -2.99767 v 0.513887 0.513887 h 3.00802 3.00801 l -0.0532,0.642358 -0.0532,0.642359 -2.88208,0.04702 c -2.18172,0.0356 -2.86525,0.09804 -2.81285,0.256943 0.16094,0.488018 0.92338,0.633134 3.33962,0.635634 l 2.44096,0.0025 v 0.685182 0.685183 h -2.61879 c -2.37628,0 -2.6892,-0.03569 -3.37917,-0.385415 z m 7.02573,-2.612259 v -2.997673 h 3.9398 3.9398 l -10e-4,0.728007 c -0.002,1.603016 -0.62027,2.590902 -1.76445,2.819737 l -0.48978,0.09796 1.16583,1.174823 1.16582,1.174824 h -0.94248 c -0.93253,0 -0.95399,-0.01168 -2.04594,-1.113422 -1.08069,-1.090388 -1.12223,-1.113421 -2.00777,-1.113421 h -0.90425 v -0.685183 -0.685182 h 1.87201 c 1.92489,0 2.41038,-0.157721 2.41038,-0.783066 0,-0.200829 -0.44537,-0.244708 -2.48379,-0.244708 h -2.48378 v 2.312491 2.312491 h -0.68519 -0.68518 z m 8.56478,1.030385 c 0,-2.082688 0.0871,-2.424398 0.81757,-3.207896 0.61225,-0.656681 1.74839,-0.852375 4.57824,-0.788578 l 2.39814,0.05406 -0.009,1.9699 c -0.0102,2.216838 -0.19641,2.778936 -1.14459,3.455231 -0.52644,0.375488 -0.73789,0.40225 -3.59979,0.455616 l -3.04049,0.0567 z m 5.8866,0.2419 c 0.41637,-0.327516 0.45134,-0.455204 0.45134,-1.647987 v -1.292964 l -2.16323,0.07202 c -2.66613,0.08876 -2.80434,0.189489 -2.80434,2.043864 v 1.180093 h 2.03244 c 1.7968,0 2.08478,-0.04116 2.48379,-0.355024 z m 3.02077,-1.284911 v -3.010299 l 3.46874,0.05545 c 3.8455,0.06147 4.19663,0.147173 4.95407,1.209111 0.35577,0.498804 0.40506,0.786247 0.45571,2.657666 l 0.0568,2.098372 h -0.69915 -0.69915 l -0.01,-1.498837 c -0.005,-0.82436 -0.10168,-1.768347 -0.21412,-2.097748 -0.29323,-0.858972 -1.00764,-1.05013 -3.70166,-0.990478 l -2.15556,0.04773 -0.0478,2.269667 -0.0478,2.269667 h -0.68021 -0.68021 z m 3.59721,1.126048 v -1.884252 h 0.77083 0.77083 v 1.884252 1.884252 h -0.77083 -0.77083 z m 8.30784,1.758732 c -0.63712,-0.159522 -1.32307,-0.779244 -1.64351,-1.484842 -0.24661,-0.543013 -0.31972,-1.119432 -0.32263,-2.543557 l -0.004,-1.841428 h 3.7685 3.7685 v 0.685183 0.685182 h -2.99767 -2.99767 v 0.513887 0.513887 h 2.91202 2.91203 v 0.685182 0.685183 l -2.95485,0.0054 -2.95485,0.0054 0.48061,0.422826 c 0.46521,0.409268 0.5627,0.422826 3.0405,0.422826 h 2.55988 v 0.685182 0.685183 l -2.61226,-0.01987 c -1.43674,-0.01093 -2.76642,-0.05847 -2.95484,-0.105649 z m 9.5069,-2.186971 c 0,-2.563985 0.06,-2.452968 -1.19105,-2.202751 -0.35966,0.07193 -0.60164,0.248984 -0.70236,0.513887 -0.12278,0.322939 -0.27948,0.404147 -0.77984,0.404147 -0.62468,0 -0.62594,-0.0015 -0.52491,-0.624098 0.23739,-1.462871 1.1997,-1.809598 4.82547,-1.738662 l 2.56943,0.05027 0.0532,0.642359 0.0532,0.642358 h -1.3807 -1.38071 v 2.312491 2.312491 h -0.77083 -0.77083 z m 6.59488,2.070682 c -0.62997,-0.279992 -1.20142,-0.883293 -1.4446,-1.525123 -0.10049,-0.265217 -0.18271,-1.325109 -0.18271,-2.355314 v -1.873101 h 3.76851 3.7685 v 0.68123 0.68123 l -3.0405,0.04678 -3.04049,0.04678 -0.0542,0.471063 -0.0542,0.471063 h 3.00905 3.00905 v 0.685182 0.685183 l -2.95484,0.0054 -2.95485,0.0054 0.48061,0.422826 c 0.46521,0.409268 0.5627,0.422826 3.0405,0.422826 h 2.55988 v 0.685182 0.685183 l -2.69791,-0.0067 c -1.8641,-0.0046 -2.85672,-0.07729 -3.21179,-0.235104 z m 6.76618,-2.755865 v -2.997673 h 3.9398 3.9398 l -10e-4,1.070598 c -0.002,1.460097 -0.72525,2.499696 -1.75465,2.52054 -0.16488,0.0033 -0.29977,0.06181 -0.29977,0.129933 0,0.06813 0.47954,0.607706 1.06565,1.199069 l 1.06572,1.075207 h -0.85648 c -0.82614,0 -0.8953,-0.03917 -1.95243,-1.105778 -1.06004,-1.06955 -1.12722,-1.10743 -2.0506,-1.156245 l -0.95465,-0.05047 -0.0532,-0.642359 -0.0532,-0.642358 h 1.85648 c 1.91531,0 2.61789,-0.209481 2.61789,-0.780544 0,-0.204076 -0.43354,-0.24723 -2.48379,-0.24723 h -2.48378 v 2.312491 2.312491 h -0.77083 -0.77083 z"
       id="path87541" /></g></svg>
