<?xml version="1.0" encoding="UTF-8" standalone="no"?>
<!-- Created with Inkscape (http://www.inkscape.org/) -->

<svg
   width="210mm"
   height="297mm"
   viewBox="0 0 210 297"
   version="1.1"
   id="svg3660"
   xml:space="preserve"
   inkscape:version="1.2.1 (9c6d41e410, 2022-07-14)"
   sodipodi:docname="FriedEggGraphic.svg"
   xmlns:inkscape="http://www.inkscape.org/namespaces/inkscape"
   xmlns:sodipodi="http://sodipodi.sourceforge.net/DTD/sodipodi-0.dtd"
   xmlns="http://www.w3.org/2000/svg"
   xmlns:svg="http://www.w3.org/2000/svg"><sodipodi:namedview
     id="namedview3662"
     pagecolor="#ffffff"
     bordercolor="#999999"
     borderopacity="1"
     inkscape:showpageshadow="0"
     inkscape:pageopacity="0"
     inkscape:pagecheckerboard="0"
     inkscape:deskcolor="#d1d1d1"
     inkscape:document-units="mm"
     showgrid="false"
     inkscape:zoom="2.1946698"
     inkscape:cx="355.17872"
     inkscape:cy="781.8944"
     inkscape:window-width="1920"
     inkscape:window-height="1031"
     inkscape:window-x="0"
     inkscape:window-y="0"
     inkscape:window-maximized="1"
     inkscape:current-layer="layer1" /><defs
     id="defs3657" /><g
     inkscape:label="Layer 1"
     inkscape:groupmode="layer"
     id="layer1"><path
       style="fill:#000000;stroke-width:0.264583"
       d="m 99.162679,238.32558 c -2.74158,-1.00936 -5.30924,-3.26486 -6.78066,-5.95633 -2.582,-4.72288 -4.956264,-7.83258 -8.394439,-10.9946 -4.458191,-4.10013 -9.4085,-7.42429 -6.821964,-17.62154 0.899851,-3.5476 6.721452,-4.82773 7.069001,-5.51359 1.022099,-2.01701 3.138604,-3.73394 6.190402,-5.02171 3.20565,-1.35268 6.64401,-3.35253 9.49357,-5.52171 3.681171,-2.80224 6.737971,-4.2011 10.559341,-4.83218 3.024,-0.4994 6.06631,0.54619 8.72804,2.99968 1.14724,1.05749 2.73574,3.82236 2.73574,4.7617 0,1.10576 1.64112,6.98077 2.37595,8.50561 0.42787,0.88789 1.45573,2.5073 2.28412,3.59871 2.99987,3.95235 4.5863,8.27167 4.59575,12.51272 0.01,4.27278 -1.2095,8.17783 -3.2497,10.41013 -1.18105,1.29225 -1.86981,1.73375 -5.11451,3.27841 -3.97967,1.89455 -6.00245,3.11281 -9.6101,5.78788 -2.73104,2.02505 -4.14808,2.7602 -6.66472,3.4576 -2.24568,0.62231 -5.91001,0.69624 -7.395821,0.14922 z m 8.723061,-15.72152 c 0.88088,-0.27416 2.1258,-0.80567 2.76648,-1.18114 1.47819,-0.86627 3.71691,-3.30553 4.55906,-4.96743 2.39179,-4.71997 1.73201,-10.86268 -1.60403,-14.93388 -1.78627,-2.1799 -6.21071,-3.77218 -9.56258,-3.44139 -4.731701,0.46696 -8.314631,2.98474 -10.377101,7.29216 -0.8431,1.7608 -0.96007,2.2647 -1.05097,4.5278 -0.19405,4.83139 1.71824,8.8307 5.45018,11.39834 2.614181,1.7986 6.552351,2.32223 9.818961,1.30554 z"
       id="path4156"
       sodipodi:nodetypes="sssssssssssscssssssssssssss" /></g></svg>
