M48
; DRILL file {KiCad (6.0.6)} date Thu 21 Jul 2022 10:54:59 AM MST
; FORMAT={-:-/ absolute / inch / decimal}
; #@! TF.CreationDate,2022-07-21T10:54:59-07:00
; #@! TF.GenerationSoftware,Kicad,Pcbnew,(6.0.6)
; #@! TF.FileFunction,Plated,1,2,PTH
FMAT,2
INCH
; #@! TA.AperFunction,Plated,PTH,ComponentDrill
T1C0.0299
; #@! TA.AperFunction,Plated,PTH,ComponentDrill
T2C0.0300
; #@! TA.AperFunction,Plated,PTH,ComponentDrill
T3C0.0394
; #@! TA.AperFunction,Plated,PTH,ComponentDrill
T4C0.0866
%
G90
G05
T1
X3.7607Y-4.3
X3.7607Y-4.4
X3.7607Y-4.5
X3.7607Y-4.6
X3.7607Y-4.7
X3.7607Y-4.8
X3.7607Y-4.9
X3.7607Y-5.0
X3.7607Y-5.1
T2
X3.8Y-3.3
X3.8Y-3.4
X3.8012Y-3.4992
X3.8012Y-3.6
X3.8012Y-3.7
X3.8012Y-3.8
X3.8012Y-3.9
X3.8012Y-4.0
X4.3Y-3.5
X4.3Y-3.6
X4.3Y-3.7
T3
X4.6664Y-4.3524
X4.6664Y-4.4524
X4.6664Y-4.5524
X4.6664Y-4.6524
X4.6664Y-4.7524
X4.6664Y-4.8524
X4.7152Y-3.3014
X4.7152Y-3.4014
X4.7152Y-3.5014
X4.7152Y-3.6014
X4.7152Y-3.7014
X4.7152Y-3.8014
T4
X3.5154Y-3.4014
X3.5154Y-5.0014
X3.5154Y-5.0014
T0
M30
