%TF.GenerationSoftware,KiCad,Pcbnew,(6.0.6)*%
%TF.CreationDate,2022-07-21T10:55:34-07:00*%
%TF.ProjectId,SensorEgg,53656e73-6f72-4456-9767-2e6b69636164,rev?*%
%TF.SameCoordinates,Original*%
%TF.FileFunction,Legend,Bot*%
%TF.FilePolarity,Positive*%
%FSLAX46Y46*%
G04 Gerber Fmt 4.6, Leading zero omitted, Abs format (unit mm)*
G04 Created by KiCad (PCBNEW (6.0.6)) date 2022-07-21 10:55:34*
%MOMM*%
%LPD*%
G01*
G04 APERTURE LIST*
%ADD10C,0.300000*%
%ADD11C,0.150000*%
%ADD12C,0.120000*%
G04 APERTURE END LIST*
D10*
X118273928Y-133014661D02*
X117916785Y-134514661D01*
X117631071Y-133443232D01*
X117345357Y-134514661D01*
X116988214Y-133014661D01*
X116416785Y-134514661D02*
X116416785Y-133014661D01*
X115773928Y-134514661D02*
X115773928Y-133728947D01*
X115845357Y-133586090D01*
X115988214Y-133514661D01*
X116202500Y-133514661D01*
X116345357Y-133586090D01*
X116416785Y-133657518D01*
X115202500Y-133514661D02*
X114845357Y-134514661D01*
X114488214Y-133514661D02*
X114845357Y-134514661D01*
X114988214Y-134871804D01*
X115059642Y-134943232D01*
X115202500Y-135014661D01*
X112131071Y-134514661D02*
X112131071Y-133014661D01*
X112131071Y-134443232D02*
X112273928Y-134514661D01*
X112559642Y-134514661D01*
X112702500Y-134443232D01*
X112773928Y-134371804D01*
X112845357Y-134228947D01*
X112845357Y-133800375D01*
X112773928Y-133657518D01*
X112702500Y-133586090D01*
X112559642Y-133514661D01*
X112273928Y-133514661D01*
X112131071Y-133586090D01*
X111416785Y-134514661D02*
X111416785Y-133514661D01*
X111416785Y-133014661D02*
X111488214Y-133086090D01*
X111416785Y-133157518D01*
X111345357Y-133086090D01*
X111416785Y-133014661D01*
X111416785Y-133157518D01*
X110059642Y-134514661D02*
X110059642Y-133014661D01*
X110059642Y-134443232D02*
X110202500Y-134514661D01*
X110488214Y-134514661D01*
X110631071Y-134443232D01*
X110702500Y-134371804D01*
X110773928Y-134228947D01*
X110773928Y-133800375D01*
X110702500Y-133657518D01*
X110631071Y-133586090D01*
X110488214Y-133514661D01*
X110202500Y-133514661D01*
X110059642Y-133586090D01*
X108416785Y-133514661D02*
X107845357Y-133514661D01*
X108202500Y-133014661D02*
X108202500Y-134300375D01*
X108131071Y-134443232D01*
X107988214Y-134514661D01*
X107845357Y-134514661D01*
X107345357Y-134514661D02*
X107345357Y-133014661D01*
X106702500Y-134514661D02*
X106702500Y-133728947D01*
X106773928Y-133586090D01*
X106916785Y-133514661D01*
X107131071Y-133514661D01*
X107273928Y-133586090D01*
X107345357Y-133657518D01*
X105416785Y-134443232D02*
X105559642Y-134514661D01*
X105845357Y-134514661D01*
X105988214Y-134443232D01*
X106059642Y-134300375D01*
X106059642Y-133728947D01*
X105988214Y-133586090D01*
X105845357Y-133514661D01*
X105559642Y-133514661D01*
X105416785Y-133586090D01*
X105345357Y-133728947D01*
X105345357Y-133871804D01*
X106059642Y-134014661D01*
X102916785Y-134443232D02*
X103059642Y-134514661D01*
X103345357Y-134514661D01*
X103488214Y-134443232D01*
X103559642Y-134371804D01*
X103631071Y-134228947D01*
X103631071Y-133800375D01*
X103559642Y-133657518D01*
X103488214Y-133586090D01*
X103345357Y-133514661D01*
X103059642Y-133514661D01*
X102916785Y-133586090D01*
X102273928Y-134514661D02*
X102273928Y-133014661D01*
X101631071Y-134514661D02*
X101631071Y-133728947D01*
X101702500Y-133586090D01*
X101845357Y-133514661D01*
X102059642Y-133514661D01*
X102202500Y-133586090D01*
X102273928Y-133657518D01*
X100916785Y-134514661D02*
X100916785Y-133514661D01*
X100916785Y-133014661D02*
X100988214Y-133086090D01*
X100916785Y-133157518D01*
X100845357Y-133086090D01*
X100916785Y-133014661D01*
X100916785Y-133157518D01*
X99559642Y-134443232D02*
X99702500Y-134514661D01*
X99988214Y-134514661D01*
X100131071Y-134443232D01*
X100202500Y-134371804D01*
X100273928Y-134228947D01*
X100273928Y-133800375D01*
X100202500Y-133657518D01*
X100131071Y-133586090D01*
X99988214Y-133514661D01*
X99702500Y-133514661D01*
X99559642Y-133586090D01*
X98916785Y-134514661D02*
X98916785Y-133014661D01*
X98773928Y-133943232D02*
X98345357Y-134514661D01*
X98345357Y-133514661D02*
X98916785Y-134086090D01*
X97131071Y-134443232D02*
X97273928Y-134514661D01*
X97559642Y-134514661D01*
X97702500Y-134443232D01*
X97773928Y-134300375D01*
X97773928Y-133728947D01*
X97702500Y-133586090D01*
X97559642Y-133514661D01*
X97273928Y-133514661D01*
X97131071Y-133586090D01*
X97059642Y-133728947D01*
X97059642Y-133871804D01*
X97773928Y-134014661D01*
X96416785Y-133514661D02*
X96416785Y-134514661D01*
X96416785Y-133657518D02*
X96345357Y-133586090D01*
X96202500Y-133514661D01*
X95988214Y-133514661D01*
X95845357Y-133586090D01*
X95773928Y-133728947D01*
X95773928Y-134514661D01*
X114988214Y-136858232D02*
X115131071Y-136929661D01*
X115416785Y-136929661D01*
X115559642Y-136858232D01*
X115631071Y-136786804D01*
X115702500Y-136643947D01*
X115702500Y-136215375D01*
X115631071Y-136072518D01*
X115559642Y-136001090D01*
X115416785Y-135929661D01*
X115131071Y-135929661D01*
X114988214Y-136001090D01*
X114345357Y-136929661D02*
X114345357Y-135929661D01*
X114345357Y-136215375D02*
X114273928Y-136072518D01*
X114202500Y-136001090D01*
X114059642Y-135929661D01*
X113916785Y-135929661D01*
X113202500Y-136929661D02*
X113345357Y-136858232D01*
X113416785Y-136786804D01*
X113488214Y-136643947D01*
X113488214Y-136215375D01*
X113416785Y-136072518D01*
X113345357Y-136001090D01*
X113202500Y-135929661D01*
X112988214Y-135929661D01*
X112845357Y-136001090D01*
X112773928Y-136072518D01*
X112702500Y-136215375D01*
X112702500Y-136643947D01*
X112773928Y-136786804D01*
X112845357Y-136858232D01*
X112988214Y-136929661D01*
X113202500Y-136929661D01*
X112131071Y-136858232D02*
X111988214Y-136929661D01*
X111702500Y-136929661D01*
X111559642Y-136858232D01*
X111488214Y-136715375D01*
X111488214Y-136643947D01*
X111559642Y-136501090D01*
X111702500Y-136429661D01*
X111916785Y-136429661D01*
X112059642Y-136358232D01*
X112131071Y-136215375D01*
X112131071Y-136143947D01*
X112059642Y-136001090D01*
X111916785Y-135929661D01*
X111702500Y-135929661D01*
X111559642Y-136001090D01*
X110916785Y-136858232D02*
X110773928Y-136929661D01*
X110488214Y-136929661D01*
X110345357Y-136858232D01*
X110273928Y-136715375D01*
X110273928Y-136643947D01*
X110345357Y-136501090D01*
X110488214Y-136429661D01*
X110702500Y-136429661D01*
X110845357Y-136358232D01*
X110916785Y-136215375D01*
X110916785Y-136143947D01*
X110845357Y-136001090D01*
X110702500Y-135929661D01*
X110488214Y-135929661D01*
X110345357Y-136001090D01*
X108702500Y-135929661D02*
X108131071Y-135929661D01*
X108488214Y-135429661D02*
X108488214Y-136715375D01*
X108416785Y-136858232D01*
X108273928Y-136929661D01*
X108131071Y-136929661D01*
X107631071Y-136929661D02*
X107631071Y-135429661D01*
X106988214Y-136929661D02*
X106988214Y-136143947D01*
X107059642Y-136001090D01*
X107202500Y-135929661D01*
X107416785Y-135929661D01*
X107559642Y-136001090D01*
X107631071Y-136072518D01*
X105702500Y-136858232D02*
X105845357Y-136929661D01*
X106131071Y-136929661D01*
X106273928Y-136858232D01*
X106345357Y-136715375D01*
X106345357Y-136143947D01*
X106273928Y-136001090D01*
X106131071Y-135929661D01*
X105845357Y-135929661D01*
X105702500Y-136001090D01*
X105631071Y-136143947D01*
X105631071Y-136286804D01*
X106345357Y-136429661D01*
X103845357Y-136929661D02*
X103845357Y-135929661D01*
X103845357Y-136215375D02*
X103773928Y-136072518D01*
X103702500Y-136001090D01*
X103559642Y-135929661D01*
X103416785Y-135929661D01*
X102702500Y-136929661D02*
X102845357Y-136858232D01*
X102916785Y-136786804D01*
X102988214Y-136643947D01*
X102988214Y-136215375D01*
X102916785Y-136072518D01*
X102845357Y-136001090D01*
X102702500Y-135929661D01*
X102488214Y-135929661D01*
X102345357Y-136001090D01*
X102273928Y-136072518D01*
X102202500Y-136215375D01*
X102202500Y-136643947D01*
X102273928Y-136786804D01*
X102345357Y-136858232D01*
X102488214Y-136929661D01*
X102702500Y-136929661D01*
X100916785Y-136929661D02*
X100916785Y-136143947D01*
X100988214Y-136001090D01*
X101131071Y-135929661D01*
X101416785Y-135929661D01*
X101559642Y-136001090D01*
X100916785Y-136858232D02*
X101059642Y-136929661D01*
X101416785Y-136929661D01*
X101559642Y-136858232D01*
X101631071Y-136715375D01*
X101631071Y-136572518D01*
X101559642Y-136429661D01*
X101416785Y-136358232D01*
X101059642Y-136358232D01*
X100916785Y-136286804D01*
X99559642Y-136929661D02*
X99559642Y-135429661D01*
X99559642Y-136858232D02*
X99702500Y-136929661D01*
X99988214Y-136929661D01*
X100131071Y-136858232D01*
X100202500Y-136786804D01*
X100273928Y-136643947D01*
X100273928Y-136215375D01*
X100202500Y-136072518D01*
X100131071Y-136001090D01*
X99988214Y-135929661D01*
X99702500Y-135929661D01*
X99559642Y-136001090D01*
X98631071Y-136786804D02*
X98559642Y-136858232D01*
X98631071Y-136929661D01*
X98702500Y-136858232D01*
X98631071Y-136786804D01*
X98631071Y-136929661D01*
X98916785Y-135501090D02*
X98773928Y-135429661D01*
X98416785Y-135429661D01*
X98273928Y-135501090D01*
X98202500Y-135643947D01*
X98202500Y-135786804D01*
X98273928Y-135929661D01*
X98345357Y-136001090D01*
X98488214Y-136072518D01*
X98559642Y-136143947D01*
X98631071Y-136286804D01*
X98631071Y-136358232D01*
D11*
%TO.C,U1*%
X111251904Y-80732380D02*
X111251904Y-81541904D01*
X111204285Y-81637142D01*
X111156666Y-81684761D01*
X111061428Y-81732380D01*
X110870952Y-81732380D01*
X110775714Y-81684761D01*
X110728095Y-81637142D01*
X110680476Y-81541904D01*
X110680476Y-80732380D01*
X109680476Y-81732380D02*
X110251904Y-81732380D01*
X109966190Y-81732380D02*
X109966190Y-80732380D01*
X110061428Y-80875238D01*
X110156666Y-80970476D01*
X110251904Y-81018095D01*
%TO.C,U2*%
X91434880Y-118618095D02*
X92244404Y-118618095D01*
X92339642Y-118665714D01*
X92387261Y-118713333D01*
X92434880Y-118808571D01*
X92434880Y-118999047D01*
X92387261Y-119094285D01*
X92339642Y-119141904D01*
X92244404Y-119189523D01*
X91434880Y-119189523D01*
X91530119Y-119618095D02*
X91482500Y-119665714D01*
X91434880Y-119760952D01*
X91434880Y-119999047D01*
X91482500Y-120094285D01*
X91530119Y-120141904D01*
X91625357Y-120189523D01*
X91720595Y-120189523D01*
X91863452Y-120141904D01*
X92434880Y-119570476D01*
X92434880Y-120189523D01*
D12*
%TO.C,U1*%
X114300000Y-82550000D02*
X93980000Y-82550000D01*
X93980000Y-82550000D02*
X93980000Y-102870000D01*
X93980000Y-102870000D02*
X114300000Y-102870000D01*
X114300000Y-102870000D02*
X114300000Y-82550000D01*
%TO.C,U2*%
X114842500Y-107450000D02*
X92982500Y-107450000D01*
X115842500Y-131310000D02*
X115842500Y-108450000D01*
X92982500Y-131310000D02*
X115842500Y-131310000D01*
X115842500Y-108450000D02*
X114842500Y-107450000D01*
X92982500Y-107450000D02*
X92982500Y-131310000D01*
%TD*%
M02*
