%TF.GenerationSoftware,KiCad,Pcbnew,(6.0.6)*%
%TF.CreationDate,2022-07-21T10:55:34-07:00*%
%TF.ProjectId,SensorEgg,53656e73-6f72-4456-9767-2e6b69636164,rev?*%
%TF.SameCoordinates,Original*%
%TF.FileFunction,Legend,Top*%
%TF.FilePolarity,Positive*%
%FSLAX46Y46*%
G04 Gerber Fmt 4.6, Leading zero omitted, Abs format (unit mm)*
G04 Created by KiCad (PCBNEW (6.0.6)) date 2022-07-21 10:55:34*
%MOMM*%
%LPD*%
G01*
G04 APERTURE LIST*
%ADD10C,0.300000*%
%ADD11C,0.150000*%
%ADD12C,0.120000*%
G04 APERTURE END LIST*
D10*
X98251428Y-94741071D02*
X99108571Y-94741071D01*
X98680000Y-96241071D02*
X98680000Y-94741071D01*
X99608571Y-96241071D02*
X99608571Y-94741071D01*
X100251428Y-96241071D02*
X100251428Y-95455357D01*
X100180000Y-95312500D01*
X100037142Y-95241071D01*
X99822857Y-95241071D01*
X99680000Y-95312500D01*
X99608571Y-95383928D01*
X101537142Y-96169642D02*
X101394285Y-96241071D01*
X101108571Y-96241071D01*
X100965714Y-96169642D01*
X100894285Y-96026785D01*
X100894285Y-95455357D01*
X100965714Y-95312500D01*
X101108571Y-95241071D01*
X101394285Y-95241071D01*
X101537142Y-95312500D01*
X101608571Y-95455357D01*
X101608571Y-95598214D01*
X100894285Y-95741071D01*
X103394285Y-95455357D02*
X103894285Y-95455357D01*
X104108571Y-96241071D02*
X103394285Y-96241071D01*
X103394285Y-94741071D01*
X104108571Y-94741071D01*
X105394285Y-95241071D02*
X105394285Y-96455357D01*
X105322857Y-96598214D01*
X105251428Y-96669642D01*
X105108571Y-96741071D01*
X104894285Y-96741071D01*
X104751428Y-96669642D01*
X105394285Y-96169642D02*
X105251428Y-96241071D01*
X104965714Y-96241071D01*
X104822857Y-96169642D01*
X104751428Y-96098214D01*
X104680000Y-95955357D01*
X104680000Y-95526785D01*
X104751428Y-95383928D01*
X104822857Y-95312500D01*
X104965714Y-95241071D01*
X105251428Y-95241071D01*
X105394285Y-95312500D01*
X106751428Y-95241071D02*
X106751428Y-96455357D01*
X106680000Y-96598214D01*
X106608571Y-96669642D01*
X106465714Y-96741071D01*
X106251428Y-96741071D01*
X106108571Y-96669642D01*
X106751428Y-96169642D02*
X106608571Y-96241071D01*
X106322857Y-96241071D01*
X106180000Y-96169642D01*
X106108571Y-96098214D01*
X106037142Y-95955357D01*
X106037142Y-95526785D01*
X106108571Y-95383928D01*
X106180000Y-95312500D01*
X106322857Y-95241071D01*
X106608571Y-95241071D01*
X106751428Y-95312500D01*
X108108571Y-96169642D02*
X107965714Y-96241071D01*
X107680000Y-96241071D01*
X107537142Y-96169642D01*
X107465714Y-96098214D01*
X107394285Y-95955357D01*
X107394285Y-95526785D01*
X107465714Y-95383928D01*
X107537142Y-95312500D01*
X107680000Y-95241071D01*
X107965714Y-95241071D01*
X108108571Y-95312500D01*
X108751428Y-96241071D02*
X108751428Y-95241071D01*
X108751428Y-94741071D02*
X108680000Y-94812500D01*
X108751428Y-94883928D01*
X108822857Y-94812500D01*
X108751428Y-94741071D01*
X108751428Y-94883928D01*
X109251428Y-95241071D02*
X109822857Y-95241071D01*
X109465714Y-94741071D02*
X109465714Y-96026785D01*
X109537142Y-96169642D01*
X109680000Y-96241071D01*
X109822857Y-96241071D01*
X110322857Y-96241071D02*
X110322857Y-95241071D01*
X110322857Y-94741071D02*
X110251428Y-94812500D01*
X110322857Y-94883928D01*
X110394285Y-94812500D01*
X110322857Y-94741071D01*
X110322857Y-94883928D01*
X111037142Y-95241071D02*
X111037142Y-96241071D01*
X111037142Y-95383928D02*
X111108571Y-95312500D01*
X111251428Y-95241071D01*
X111465714Y-95241071D01*
X111608571Y-95312500D01*
X111680000Y-95455357D01*
X111680000Y-96241071D01*
X113037142Y-95241071D02*
X113037142Y-96455357D01*
X112965714Y-96598214D01*
X112894285Y-96669642D01*
X112751428Y-96741071D01*
X112537142Y-96741071D01*
X112394285Y-96669642D01*
X113037142Y-96169642D02*
X112894285Y-96241071D01*
X112608571Y-96241071D01*
X112465714Y-96169642D01*
X112394285Y-96098214D01*
X112322857Y-95955357D01*
X112322857Y-95526785D01*
X112394285Y-95383928D01*
X112465714Y-95312500D01*
X112608571Y-95241071D01*
X112894285Y-95241071D01*
X113037142Y-95312500D01*
X113822857Y-96169642D02*
X113822857Y-96241071D01*
X113751428Y-96383928D01*
X113680000Y-96455357D01*
X93858571Y-97870357D02*
X94358571Y-97870357D01*
X94572857Y-98656071D02*
X93858571Y-98656071D01*
X93858571Y-97156071D01*
X94572857Y-97156071D01*
X95858571Y-97656071D02*
X95858571Y-98870357D01*
X95787142Y-99013214D01*
X95715714Y-99084642D01*
X95572857Y-99156071D01*
X95358571Y-99156071D01*
X95215714Y-99084642D01*
X95858571Y-98584642D02*
X95715714Y-98656071D01*
X95430000Y-98656071D01*
X95287142Y-98584642D01*
X95215714Y-98513214D01*
X95144285Y-98370357D01*
X95144285Y-97941785D01*
X95215714Y-97798928D01*
X95287142Y-97727500D01*
X95430000Y-97656071D01*
X95715714Y-97656071D01*
X95858571Y-97727500D01*
X97215714Y-97656071D02*
X97215714Y-98870357D01*
X97144285Y-99013214D01*
X97072857Y-99084642D01*
X96930000Y-99156071D01*
X96715714Y-99156071D01*
X96572857Y-99084642D01*
X97215714Y-98584642D02*
X97072857Y-98656071D01*
X96787142Y-98656071D01*
X96644285Y-98584642D01*
X96572857Y-98513214D01*
X96501428Y-98370357D01*
X96501428Y-97941785D01*
X96572857Y-97798928D01*
X96644285Y-97727500D01*
X96787142Y-97656071D01*
X97072857Y-97656071D01*
X97215714Y-97727500D01*
X98572857Y-98584642D02*
X98430000Y-98656071D01*
X98144285Y-98656071D01*
X98001428Y-98584642D01*
X97930000Y-98513214D01*
X97858571Y-98370357D01*
X97858571Y-97941785D01*
X97930000Y-97798928D01*
X98001428Y-97727500D01*
X98144285Y-97656071D01*
X98430000Y-97656071D01*
X98572857Y-97727500D01*
X99787142Y-98584642D02*
X99644285Y-98656071D01*
X99358571Y-98656071D01*
X99215714Y-98584642D01*
X99144285Y-98441785D01*
X99144285Y-97870357D01*
X99215714Y-97727500D01*
X99358571Y-97656071D01*
X99644285Y-97656071D01*
X99787142Y-97727500D01*
X99858571Y-97870357D01*
X99858571Y-98013214D01*
X99144285Y-98156071D01*
X100715714Y-98656071D02*
X100572857Y-98584642D01*
X100501428Y-98441785D01*
X100501428Y-97156071D01*
X101287142Y-98656071D02*
X101287142Y-97656071D01*
X101287142Y-97156071D02*
X101215714Y-97227500D01*
X101287142Y-97298928D01*
X101358571Y-97227500D01*
X101287142Y-97156071D01*
X101287142Y-97298928D01*
X102001428Y-97656071D02*
X102001428Y-98656071D01*
X102001428Y-97798928D02*
X102072857Y-97727500D01*
X102215714Y-97656071D01*
X102430000Y-97656071D01*
X102572857Y-97727500D01*
X102644285Y-97870357D01*
X102644285Y-98656071D01*
X104001428Y-97656071D02*
X104001428Y-98870357D01*
X103930000Y-99013214D01*
X103858571Y-99084642D01*
X103715714Y-99156071D01*
X103501428Y-99156071D01*
X103358571Y-99084642D01*
X104001428Y-98584642D02*
X103858571Y-98656071D01*
X103572857Y-98656071D01*
X103430000Y-98584642D01*
X103358571Y-98513214D01*
X103287142Y-98370357D01*
X103287142Y-97941785D01*
X103358571Y-97798928D01*
X103430000Y-97727500D01*
X103572857Y-97656071D01*
X103858571Y-97656071D01*
X104001428Y-97727500D01*
X104787142Y-98584642D02*
X104787142Y-98656071D01*
X104715714Y-98798928D01*
X104644285Y-98870357D01*
X106572857Y-97870357D02*
X107072857Y-97870357D01*
X107287142Y-98656071D02*
X106572857Y-98656071D01*
X106572857Y-97156071D01*
X107287142Y-97156071D01*
X108572857Y-97656071D02*
X108572857Y-98870357D01*
X108501428Y-99013214D01*
X108430000Y-99084642D01*
X108287142Y-99156071D01*
X108072857Y-99156071D01*
X107930000Y-99084642D01*
X108572857Y-98584642D02*
X108430000Y-98656071D01*
X108144285Y-98656071D01*
X108001428Y-98584642D01*
X107930000Y-98513214D01*
X107858571Y-98370357D01*
X107858571Y-97941785D01*
X107930000Y-97798928D01*
X108001428Y-97727500D01*
X108144285Y-97656071D01*
X108430000Y-97656071D01*
X108572857Y-97727500D01*
X109930000Y-97656071D02*
X109930000Y-98870357D01*
X109858571Y-99013214D01*
X109787142Y-99084642D01*
X109644285Y-99156071D01*
X109430000Y-99156071D01*
X109287142Y-99084642D01*
X109930000Y-98584642D02*
X109787142Y-98656071D01*
X109501428Y-98656071D01*
X109358571Y-98584642D01*
X109287142Y-98513214D01*
X109215714Y-98370357D01*
X109215714Y-97941785D01*
X109287142Y-97798928D01*
X109358571Y-97727500D01*
X109501428Y-97656071D01*
X109787142Y-97656071D01*
X109930000Y-97727500D01*
X111287142Y-98584642D02*
X111144285Y-98656071D01*
X110858571Y-98656071D01*
X110715714Y-98584642D01*
X110644285Y-98513214D01*
X110572857Y-98370357D01*
X110572857Y-97941785D01*
X110644285Y-97798928D01*
X110715714Y-97727500D01*
X110858571Y-97656071D01*
X111144285Y-97656071D01*
X111287142Y-97727500D01*
X112501428Y-98584642D02*
X112358571Y-98656071D01*
X112072857Y-98656071D01*
X111930000Y-98584642D01*
X111858571Y-98441785D01*
X111858571Y-97870357D01*
X111930000Y-97727500D01*
X112072857Y-97656071D01*
X112358571Y-97656071D01*
X112501428Y-97727500D01*
X112572857Y-97870357D01*
X112572857Y-98013214D01*
X111858571Y-98156071D01*
X113215714Y-97656071D02*
X113215714Y-98656071D01*
X113215714Y-97798928D02*
X113287142Y-97727500D01*
X113430000Y-97656071D01*
X113644285Y-97656071D01*
X113787142Y-97727500D01*
X113858571Y-97870357D01*
X113858571Y-98656071D01*
X114358571Y-97656071D02*
X114930000Y-97656071D01*
X114572857Y-97156071D02*
X114572857Y-98441785D01*
X114644285Y-98584642D01*
X114787142Y-98656071D01*
X114930000Y-98656071D01*
X115430000Y-98656071D02*
X115430000Y-97656071D01*
X115430000Y-97941785D02*
X115501428Y-97798928D01*
X115572857Y-97727500D01*
X115715714Y-97656071D01*
X115858571Y-97656071D01*
X116358571Y-98656071D02*
X116358571Y-97656071D01*
X116358571Y-97156071D02*
X116287142Y-97227500D01*
X116358571Y-97298928D01*
X116430000Y-97227500D01*
X116358571Y-97156071D01*
X116358571Y-97298928D01*
X117715714Y-98584642D02*
X117572857Y-98656071D01*
X117287142Y-98656071D01*
X117144285Y-98584642D01*
X117072857Y-98513214D01*
X117001428Y-98370357D01*
X117001428Y-97941785D01*
X117072857Y-97798928D01*
X117144285Y-97727500D01*
X117287142Y-97656071D01*
X117572857Y-97656071D01*
X117715714Y-97727500D01*
X118430000Y-98584642D02*
X118430000Y-98656071D01*
X118358571Y-98798928D01*
X118287142Y-98870357D01*
X98108571Y-101071071D02*
X98108571Y-99571071D01*
X98822857Y-100071071D02*
X98822857Y-101071071D01*
X98822857Y-100213928D02*
X98894285Y-100142500D01*
X99037142Y-100071071D01*
X99251428Y-100071071D01*
X99394285Y-100142500D01*
X99465714Y-100285357D01*
X99465714Y-101071071D01*
X100180000Y-100285357D02*
X100680000Y-100285357D01*
X100894285Y-101071071D02*
X100180000Y-101071071D01*
X100180000Y-99571071D01*
X100894285Y-99571071D01*
X102180000Y-100071071D02*
X102180000Y-101285357D01*
X102108571Y-101428214D01*
X102037142Y-101499642D01*
X101894285Y-101571071D01*
X101680000Y-101571071D01*
X101537142Y-101499642D01*
X102180000Y-100999642D02*
X102037142Y-101071071D01*
X101751428Y-101071071D01*
X101608571Y-100999642D01*
X101537142Y-100928214D01*
X101465714Y-100785357D01*
X101465714Y-100356785D01*
X101537142Y-100213928D01*
X101608571Y-100142500D01*
X101751428Y-100071071D01*
X102037142Y-100071071D01*
X102180000Y-100142500D01*
X103537142Y-100071071D02*
X103537142Y-101285357D01*
X103465714Y-101428214D01*
X103394285Y-101499642D01*
X103251428Y-101571071D01*
X103037142Y-101571071D01*
X102894285Y-101499642D01*
X103537142Y-100999642D02*
X103394285Y-101071071D01*
X103108571Y-101071071D01*
X102965714Y-100999642D01*
X102894285Y-100928214D01*
X102822857Y-100785357D01*
X102822857Y-100356785D01*
X102894285Y-100213928D01*
X102965714Y-100142500D01*
X103108571Y-100071071D01*
X103394285Y-100071071D01*
X103537142Y-100142500D01*
X104180000Y-100999642D02*
X104322857Y-101071071D01*
X104608571Y-101071071D01*
X104751428Y-100999642D01*
X104822857Y-100856785D01*
X104822857Y-100785357D01*
X104751428Y-100642500D01*
X104608571Y-100571071D01*
X104394285Y-100571071D01*
X104251428Y-100499642D01*
X104180000Y-100356785D01*
X104180000Y-100285357D01*
X104251428Y-100142500D01*
X104394285Y-100071071D01*
X104608571Y-100071071D01*
X104751428Y-100142500D01*
X106108571Y-100999642D02*
X105965714Y-101071071D01*
X105680000Y-101071071D01*
X105537142Y-100999642D01*
X105465714Y-100928214D01*
X105394285Y-100785357D01*
X105394285Y-100356785D01*
X105465714Y-100213928D01*
X105537142Y-100142500D01*
X105680000Y-100071071D01*
X105965714Y-100071071D01*
X106108571Y-100142500D01*
X107394285Y-100071071D02*
X107394285Y-101071071D01*
X106751428Y-100071071D02*
X106751428Y-100856785D01*
X106822857Y-100999642D01*
X106965714Y-101071071D01*
X107180000Y-101071071D01*
X107322857Y-100999642D01*
X107394285Y-100928214D01*
X108037142Y-100999642D02*
X108180000Y-101071071D01*
X108465714Y-101071071D01*
X108608571Y-100999642D01*
X108680000Y-100856785D01*
X108680000Y-100785357D01*
X108608571Y-100642500D01*
X108465714Y-100571071D01*
X108251428Y-100571071D01*
X108108571Y-100499642D01*
X108037142Y-100356785D01*
X108037142Y-100285357D01*
X108108571Y-100142500D01*
X108251428Y-100071071D01*
X108465714Y-100071071D01*
X108608571Y-100142500D01*
X109965714Y-101071071D02*
X109965714Y-100285357D01*
X109894285Y-100142500D01*
X109751428Y-100071071D01*
X109465714Y-100071071D01*
X109322857Y-100142500D01*
X109965714Y-100999642D02*
X109822857Y-101071071D01*
X109465714Y-101071071D01*
X109322857Y-100999642D01*
X109251428Y-100856785D01*
X109251428Y-100713928D01*
X109322857Y-100571071D01*
X109465714Y-100499642D01*
X109822857Y-100499642D01*
X109965714Y-100428214D01*
X110680000Y-101071071D02*
X110680000Y-99571071D01*
X110680000Y-100142500D02*
X110822857Y-100071071D01*
X111108571Y-100071071D01*
X111251428Y-100142500D01*
X111322857Y-100213928D01*
X111394285Y-100356785D01*
X111394285Y-100785357D01*
X111322857Y-100928214D01*
X111251428Y-100999642D01*
X111108571Y-101071071D01*
X110822857Y-101071071D01*
X110680000Y-100999642D01*
X112251428Y-101071071D02*
X112108571Y-100999642D01*
X112037142Y-100856785D01*
X112037142Y-99571071D01*
X113394285Y-100999642D02*
X113251428Y-101071071D01*
X112965714Y-101071071D01*
X112822857Y-100999642D01*
X112751428Y-100856785D01*
X112751428Y-100285357D01*
X112822857Y-100142500D01*
X112965714Y-100071071D01*
X113251428Y-100071071D01*
X113394285Y-100142500D01*
X113465714Y-100285357D01*
X113465714Y-100428214D01*
X112751428Y-100571071D01*
X114180000Y-100999642D02*
X114180000Y-101071071D01*
X114108571Y-101213928D01*
X114037142Y-101285357D01*
X92430000Y-103486071D02*
X92430000Y-101986071D01*
X93144285Y-102486071D02*
X93144285Y-103486071D01*
X93144285Y-102628928D02*
X93215714Y-102557500D01*
X93358571Y-102486071D01*
X93572857Y-102486071D01*
X93715714Y-102557500D01*
X93787142Y-102700357D01*
X93787142Y-103486071D01*
X94501428Y-102700357D02*
X95001428Y-102700357D01*
X95215714Y-103486071D02*
X94501428Y-103486071D01*
X94501428Y-101986071D01*
X95215714Y-101986071D01*
X96501428Y-102486071D02*
X96501428Y-103700357D01*
X96430000Y-103843214D01*
X96358571Y-103914642D01*
X96215714Y-103986071D01*
X96001428Y-103986071D01*
X95858571Y-103914642D01*
X96501428Y-103414642D02*
X96358571Y-103486071D01*
X96072857Y-103486071D01*
X95930000Y-103414642D01*
X95858571Y-103343214D01*
X95787142Y-103200357D01*
X95787142Y-102771785D01*
X95858571Y-102628928D01*
X95930000Y-102557500D01*
X96072857Y-102486071D01*
X96358571Y-102486071D01*
X96501428Y-102557500D01*
X97858571Y-102486071D02*
X97858571Y-103700357D01*
X97787142Y-103843214D01*
X97715714Y-103914642D01*
X97572857Y-103986071D01*
X97358571Y-103986071D01*
X97215714Y-103914642D01*
X97858571Y-103414642D02*
X97715714Y-103486071D01*
X97430000Y-103486071D01*
X97287142Y-103414642D01*
X97215714Y-103343214D01*
X97144285Y-103200357D01*
X97144285Y-102771785D01*
X97215714Y-102628928D01*
X97287142Y-102557500D01*
X97430000Y-102486071D01*
X97715714Y-102486071D01*
X97858571Y-102557500D01*
X98501428Y-103414642D02*
X98644285Y-103486071D01*
X98930000Y-103486071D01*
X99072857Y-103414642D01*
X99144285Y-103271785D01*
X99144285Y-103200357D01*
X99072857Y-103057500D01*
X98930000Y-102986071D01*
X98715714Y-102986071D01*
X98572857Y-102914642D01*
X98501428Y-102771785D01*
X98501428Y-102700357D01*
X98572857Y-102557500D01*
X98715714Y-102486071D01*
X98930000Y-102486071D01*
X99072857Y-102557500D01*
X99787142Y-102486071D02*
X99787142Y-103986071D01*
X99787142Y-102557500D02*
X99930000Y-102486071D01*
X100215714Y-102486071D01*
X100358571Y-102557500D01*
X100430000Y-102628928D01*
X100501428Y-102771785D01*
X100501428Y-103200357D01*
X100430000Y-103343214D01*
X100358571Y-103414642D01*
X100215714Y-103486071D01*
X99930000Y-103486071D01*
X99787142Y-103414642D01*
X101715714Y-103414642D02*
X101572857Y-103486071D01*
X101287142Y-103486071D01*
X101144285Y-103414642D01*
X101072857Y-103271785D01*
X101072857Y-102700357D01*
X101144285Y-102557500D01*
X101287142Y-102486071D01*
X101572857Y-102486071D01*
X101715714Y-102557500D01*
X101787142Y-102700357D01*
X101787142Y-102843214D01*
X101072857Y-102986071D01*
X102430000Y-102486071D02*
X102430000Y-103486071D01*
X102430000Y-102628928D02*
X102501428Y-102557500D01*
X102644285Y-102486071D01*
X102858571Y-102486071D01*
X103001428Y-102557500D01*
X103072857Y-102700357D01*
X103072857Y-103486071D01*
X103715714Y-103414642D02*
X103858571Y-103486071D01*
X104144285Y-103486071D01*
X104287142Y-103414642D01*
X104358571Y-103271785D01*
X104358571Y-103200357D01*
X104287142Y-103057500D01*
X104144285Y-102986071D01*
X103930000Y-102986071D01*
X103787142Y-102914642D01*
X103715714Y-102771785D01*
X103715714Y-102700357D01*
X103787142Y-102557500D01*
X103930000Y-102486071D01*
X104144285Y-102486071D01*
X104287142Y-102557500D01*
X105001428Y-103486071D02*
X105001428Y-102486071D01*
X105001428Y-101986071D02*
X104930000Y-102057500D01*
X105001428Y-102128928D01*
X105072857Y-102057500D01*
X105001428Y-101986071D01*
X105001428Y-102128928D01*
X105572857Y-102486071D02*
X105930000Y-103486071D01*
X106287142Y-102486071D01*
X107430000Y-103414642D02*
X107287142Y-103486071D01*
X107001428Y-103486071D01*
X106858571Y-103414642D01*
X106787142Y-103271785D01*
X106787142Y-102700357D01*
X106858571Y-102557500D01*
X107001428Y-102486071D01*
X107287142Y-102486071D01*
X107430000Y-102557500D01*
X107501428Y-102700357D01*
X107501428Y-102843214D01*
X106787142Y-102986071D01*
X108215714Y-103414642D02*
X108215714Y-103486071D01*
X108144285Y-103628928D01*
X108072857Y-103700357D01*
X110001428Y-102700357D02*
X110501428Y-102700357D01*
X110715714Y-103486071D02*
X110001428Y-103486071D01*
X110001428Y-101986071D01*
X110715714Y-101986071D01*
X112001428Y-102486071D02*
X112001428Y-103700357D01*
X111930000Y-103843214D01*
X111858571Y-103914642D01*
X111715714Y-103986071D01*
X111501428Y-103986071D01*
X111358571Y-103914642D01*
X112001428Y-103414642D02*
X111858571Y-103486071D01*
X111572857Y-103486071D01*
X111430000Y-103414642D01*
X111358571Y-103343214D01*
X111287142Y-103200357D01*
X111287142Y-102771785D01*
X111358571Y-102628928D01*
X111430000Y-102557500D01*
X111572857Y-102486071D01*
X111858571Y-102486071D01*
X112001428Y-102557500D01*
X113358571Y-102486071D02*
X113358571Y-103700357D01*
X113287142Y-103843214D01*
X113215714Y-103914642D01*
X113072857Y-103986071D01*
X112858571Y-103986071D01*
X112715714Y-103914642D01*
X113358571Y-103414642D02*
X113215714Y-103486071D01*
X112930000Y-103486071D01*
X112787142Y-103414642D01*
X112715714Y-103343214D01*
X112644285Y-103200357D01*
X112644285Y-102771785D01*
X112715714Y-102628928D01*
X112787142Y-102557500D01*
X112930000Y-102486071D01*
X113215714Y-102486071D01*
X113358571Y-102557500D01*
X114715714Y-103414642D02*
X114572857Y-103486071D01*
X114287142Y-103486071D01*
X114144285Y-103414642D01*
X114072857Y-103343214D01*
X114001428Y-103200357D01*
X114001428Y-102771785D01*
X114072857Y-102628928D01*
X114144285Y-102557500D01*
X114287142Y-102486071D01*
X114572857Y-102486071D01*
X114715714Y-102557500D01*
X115930000Y-103414642D02*
X115787142Y-103486071D01*
X115501428Y-103486071D01*
X115358571Y-103414642D01*
X115287142Y-103271785D01*
X115287142Y-102700357D01*
X115358571Y-102557500D01*
X115501428Y-102486071D01*
X115787142Y-102486071D01*
X115930000Y-102557500D01*
X116001428Y-102700357D01*
X116001428Y-102843214D01*
X115287142Y-102986071D01*
X116858571Y-103486071D02*
X116715714Y-103414642D01*
X116644285Y-103271785D01*
X116644285Y-101986071D01*
X118001428Y-103414642D02*
X117858571Y-103486071D01*
X117572857Y-103486071D01*
X117430000Y-103414642D01*
X117358571Y-103271785D01*
X117358571Y-102700357D01*
X117430000Y-102557500D01*
X117572857Y-102486071D01*
X117858571Y-102486071D01*
X118001428Y-102557500D01*
X118072857Y-102700357D01*
X118072857Y-102843214D01*
X117358571Y-102986071D01*
X118715714Y-102486071D02*
X118715714Y-103486071D01*
X118715714Y-102628928D02*
X118787142Y-102557500D01*
X118930000Y-102486071D01*
X119144285Y-102486071D01*
X119287142Y-102557500D01*
X119358571Y-102700357D01*
X119358571Y-103486071D01*
X119858571Y-102486071D02*
X120430000Y-102486071D01*
X120072857Y-101986071D02*
X120072857Y-103271785D01*
X120144285Y-103414642D01*
X120287142Y-103486071D01*
X120430000Y-103486071D01*
X121001428Y-103414642D02*
X121001428Y-103486071D01*
X120930000Y-103628928D01*
X120858571Y-103700357D01*
X105072857Y-105901071D02*
X105072857Y-105115357D01*
X105001428Y-104972500D01*
X104858571Y-104901071D01*
X104572857Y-104901071D01*
X104430000Y-104972500D01*
X105072857Y-105829642D02*
X104930000Y-105901071D01*
X104572857Y-105901071D01*
X104430000Y-105829642D01*
X104358571Y-105686785D01*
X104358571Y-105543928D01*
X104430000Y-105401071D01*
X104572857Y-105329642D01*
X104930000Y-105329642D01*
X105072857Y-105258214D01*
X105787142Y-104901071D02*
X105787142Y-105901071D01*
X105787142Y-105043928D02*
X105858571Y-104972500D01*
X106001428Y-104901071D01*
X106215714Y-104901071D01*
X106358571Y-104972500D01*
X106430000Y-105115357D01*
X106430000Y-105901071D01*
X107787142Y-105901071D02*
X107787142Y-104401071D01*
X107787142Y-105829642D02*
X107644285Y-105901071D01*
X107358571Y-105901071D01*
X107215714Y-105829642D01*
X107144285Y-105758214D01*
X107072857Y-105615357D01*
X107072857Y-105186785D01*
X107144285Y-105043928D01*
X107215714Y-104972500D01*
X107358571Y-104901071D01*
X107644285Y-104901071D01*
X107787142Y-104972500D01*
X86929999Y-107530357D02*
X87429999Y-107530357D01*
X87644285Y-108316071D02*
X86929999Y-108316071D01*
X86929999Y-106816071D01*
X87644285Y-106816071D01*
X88929999Y-107316071D02*
X88929999Y-108530357D01*
X88858571Y-108673214D01*
X88787142Y-108744642D01*
X88644285Y-108816071D01*
X88429999Y-108816071D01*
X88287142Y-108744642D01*
X88929999Y-108244642D02*
X88787142Y-108316071D01*
X88501428Y-108316071D01*
X88358571Y-108244642D01*
X88287142Y-108173214D01*
X88215714Y-108030357D01*
X88215714Y-107601785D01*
X88287142Y-107458928D01*
X88358571Y-107387500D01*
X88501428Y-107316071D01*
X88787142Y-107316071D01*
X88929999Y-107387500D01*
X90287142Y-107316071D02*
X90287142Y-108530357D01*
X90215714Y-108673214D01*
X90144285Y-108744642D01*
X90001428Y-108816071D01*
X89787142Y-108816071D01*
X89644285Y-108744642D01*
X90287142Y-108244642D02*
X90144285Y-108316071D01*
X89858571Y-108316071D01*
X89715714Y-108244642D01*
X89644285Y-108173214D01*
X89572857Y-108030357D01*
X89572857Y-107601785D01*
X89644285Y-107458928D01*
X89715714Y-107387500D01*
X89858571Y-107316071D01*
X90144285Y-107316071D01*
X90287142Y-107387500D01*
X91644285Y-108244642D02*
X91501428Y-108316071D01*
X91215714Y-108316071D01*
X91072857Y-108244642D01*
X91001428Y-108173214D01*
X90929999Y-108030357D01*
X90929999Y-107601785D01*
X91001428Y-107458928D01*
X91072857Y-107387500D01*
X91215714Y-107316071D01*
X91501428Y-107316071D01*
X91644285Y-107387500D01*
X92858571Y-108244642D02*
X92715714Y-108316071D01*
X92429999Y-108316071D01*
X92287142Y-108244642D01*
X92215714Y-108101785D01*
X92215714Y-107530357D01*
X92287142Y-107387500D01*
X92429999Y-107316071D01*
X92715714Y-107316071D01*
X92858571Y-107387500D01*
X92929999Y-107530357D01*
X92929999Y-107673214D01*
X92215714Y-107816071D01*
X94144285Y-108244642D02*
X94001428Y-108316071D01*
X93715714Y-108316071D01*
X93572857Y-108244642D01*
X93501428Y-108101785D01*
X93501428Y-107530357D01*
X93572857Y-107387500D01*
X93715714Y-107316071D01*
X94001428Y-107316071D01*
X94144285Y-107387500D01*
X94215714Y-107530357D01*
X94215714Y-107673214D01*
X93501428Y-107816071D01*
X95501428Y-108316071D02*
X95501428Y-106816071D01*
X95501428Y-108244642D02*
X95358571Y-108316071D01*
X95072857Y-108316071D01*
X94929999Y-108244642D01*
X94858571Y-108173214D01*
X94787142Y-108030357D01*
X94787142Y-107601785D01*
X94858571Y-107458928D01*
X94929999Y-107387500D01*
X95072857Y-107316071D01*
X95358571Y-107316071D01*
X95501428Y-107387500D01*
X96215714Y-108316071D02*
X96215714Y-107316071D01*
X96215714Y-106816071D02*
X96144285Y-106887500D01*
X96215714Y-106958928D01*
X96287142Y-106887500D01*
X96215714Y-106816071D01*
X96215714Y-106958928D01*
X96929999Y-107316071D02*
X96929999Y-108316071D01*
X96929999Y-107458928D02*
X97001428Y-107387500D01*
X97144285Y-107316071D01*
X97358571Y-107316071D01*
X97501428Y-107387500D01*
X97572857Y-107530357D01*
X97572857Y-108316071D01*
X98929999Y-107316071D02*
X98929999Y-108530357D01*
X98858571Y-108673214D01*
X98787142Y-108744642D01*
X98644285Y-108816071D01*
X98429999Y-108816071D01*
X98287142Y-108744642D01*
X98929999Y-108244642D02*
X98787142Y-108316071D01*
X98501428Y-108316071D01*
X98358571Y-108244642D01*
X98287142Y-108173214D01*
X98215714Y-108030357D01*
X98215714Y-107601785D01*
X98287142Y-107458928D01*
X98358571Y-107387500D01*
X98501428Y-107316071D01*
X98787142Y-107316071D01*
X98929999Y-107387500D01*
X99858571Y-108316071D02*
X99715714Y-108244642D01*
X99644285Y-108101785D01*
X99644285Y-106816071D01*
X100287142Y-107316071D02*
X100644285Y-108316071D01*
X101001428Y-107316071D02*
X100644285Y-108316071D01*
X100501428Y-108673214D01*
X100429999Y-108744642D01*
X100287142Y-108816071D01*
X103501428Y-106887500D02*
X103358571Y-106816071D01*
X103144285Y-106816071D01*
X102929999Y-106887500D01*
X102787142Y-107030357D01*
X102715714Y-107173214D01*
X102644285Y-107458928D01*
X102644285Y-107673214D01*
X102715714Y-107958928D01*
X102787142Y-108101785D01*
X102929999Y-108244642D01*
X103144285Y-108316071D01*
X103287142Y-108316071D01*
X103501428Y-108244642D01*
X103572857Y-108173214D01*
X103572857Y-107673214D01*
X103287142Y-107673214D01*
X104215714Y-108316071D02*
X104215714Y-107316071D01*
X104215714Y-107601785D02*
X104287142Y-107458928D01*
X104358571Y-107387500D01*
X104501428Y-107316071D01*
X104644285Y-107316071D01*
X105715714Y-108244642D02*
X105572857Y-108316071D01*
X105287142Y-108316071D01*
X105144285Y-108244642D01*
X105072857Y-108101785D01*
X105072857Y-107530357D01*
X105144285Y-107387500D01*
X105287142Y-107316071D01*
X105572857Y-107316071D01*
X105715714Y-107387500D01*
X105787142Y-107530357D01*
X105787142Y-107673214D01*
X105072857Y-107816071D01*
X107072857Y-108316071D02*
X107072857Y-107530357D01*
X107001428Y-107387500D01*
X106858571Y-107316071D01*
X106572857Y-107316071D01*
X106429999Y-107387500D01*
X107072857Y-108244642D02*
X106929999Y-108316071D01*
X106572857Y-108316071D01*
X106429999Y-108244642D01*
X106358571Y-108101785D01*
X106358571Y-107958928D01*
X106429999Y-107816071D01*
X106572857Y-107744642D01*
X106929999Y-107744642D01*
X107072857Y-107673214D01*
X107572857Y-107316071D02*
X108144285Y-107316071D01*
X107787142Y-106816071D02*
X107787142Y-108101785D01*
X107858571Y-108244642D01*
X108001428Y-108316071D01*
X108144285Y-108316071D01*
X109787142Y-107530357D02*
X110287142Y-107530357D01*
X110501428Y-108316071D02*
X109787142Y-108316071D01*
X109787142Y-106816071D01*
X110501428Y-106816071D01*
X111787142Y-107316071D02*
X111787142Y-108530357D01*
X111715714Y-108673214D01*
X111644285Y-108744642D01*
X111501428Y-108816071D01*
X111287142Y-108816071D01*
X111144285Y-108744642D01*
X111787142Y-108244642D02*
X111644285Y-108316071D01*
X111358571Y-108316071D01*
X111215714Y-108244642D01*
X111144285Y-108173214D01*
X111072857Y-108030357D01*
X111072857Y-107601785D01*
X111144285Y-107458928D01*
X111215714Y-107387500D01*
X111358571Y-107316071D01*
X111644285Y-107316071D01*
X111787142Y-107387500D01*
X113144285Y-107316071D02*
X113144285Y-108530357D01*
X113072857Y-108673214D01*
X113001428Y-108744642D01*
X112858571Y-108816071D01*
X112644285Y-108816071D01*
X112501428Y-108744642D01*
X113144285Y-108244642D02*
X113001428Y-108316071D01*
X112715714Y-108316071D01*
X112572857Y-108244642D01*
X112501428Y-108173214D01*
X112430000Y-108030357D01*
X112430000Y-107601785D01*
X112501428Y-107458928D01*
X112572857Y-107387500D01*
X112715714Y-107316071D01*
X113001428Y-107316071D01*
X113144285Y-107387500D01*
X114501428Y-108244642D02*
X114358571Y-108316071D01*
X114072857Y-108316071D01*
X113930000Y-108244642D01*
X113858571Y-108173214D01*
X113787142Y-108030357D01*
X113787142Y-107601785D01*
X113858571Y-107458928D01*
X113930000Y-107387500D01*
X114072857Y-107316071D01*
X114358571Y-107316071D01*
X114501428Y-107387500D01*
X115715714Y-108244642D02*
X115572857Y-108316071D01*
X115287142Y-108316071D01*
X115144285Y-108244642D01*
X115072857Y-108101785D01*
X115072857Y-107530357D01*
X115144285Y-107387500D01*
X115287142Y-107316071D01*
X115572857Y-107316071D01*
X115715714Y-107387500D01*
X115787142Y-107530357D01*
X115787142Y-107673214D01*
X115072857Y-107816071D01*
X116644285Y-108316071D02*
X116501428Y-108244642D01*
X116430000Y-108101785D01*
X116430000Y-106816071D01*
X117787142Y-108244642D02*
X117644285Y-108316071D01*
X117358571Y-108316071D01*
X117215714Y-108244642D01*
X117144285Y-108101785D01*
X117144285Y-107530357D01*
X117215714Y-107387500D01*
X117358571Y-107316071D01*
X117644285Y-107316071D01*
X117787142Y-107387500D01*
X117858571Y-107530357D01*
X117858571Y-107673214D01*
X117144285Y-107816071D01*
X118501428Y-108316071D02*
X118501428Y-107316071D01*
X118501428Y-107601785D02*
X118572857Y-107458928D01*
X118644285Y-107387500D01*
X118787142Y-107316071D01*
X118930000Y-107316071D01*
X119644285Y-108316071D02*
X119501428Y-108244642D01*
X119430000Y-108173214D01*
X119358571Y-108030357D01*
X119358571Y-107601785D01*
X119430000Y-107458928D01*
X119501428Y-107387500D01*
X119644285Y-107316071D01*
X119858571Y-107316071D01*
X120001428Y-107387500D01*
X120072857Y-107458928D01*
X120144285Y-107601785D01*
X120144285Y-108030357D01*
X120072857Y-108173214D01*
X120001428Y-108244642D01*
X119858571Y-108316071D01*
X119644285Y-108316071D01*
X120787142Y-108316071D02*
X120787142Y-107316071D01*
X120787142Y-107458928D02*
X120858571Y-107387500D01*
X121001428Y-107316071D01*
X121215714Y-107316071D01*
X121358571Y-107387500D01*
X121430000Y-107530357D01*
X121430000Y-108316071D01*
X121430000Y-107530357D02*
X121501428Y-107387500D01*
X121644285Y-107316071D01*
X121858571Y-107316071D01*
X122001428Y-107387500D01*
X122072857Y-107530357D01*
X122072857Y-108316071D01*
X123358571Y-108244642D02*
X123215714Y-108316071D01*
X122930000Y-108316071D01*
X122787142Y-108244642D01*
X122715714Y-108101785D01*
X122715714Y-107530357D01*
X122787142Y-107387500D01*
X122930000Y-107316071D01*
X123215714Y-107316071D01*
X123358571Y-107387500D01*
X123430000Y-107530357D01*
X123430000Y-107673214D01*
X122715714Y-107816071D01*
X123858571Y-107316071D02*
X124430000Y-107316071D01*
X124072857Y-106816071D02*
X124072857Y-108101785D01*
X124144285Y-108244642D01*
X124287142Y-108316071D01*
X124430000Y-108316071D01*
X125501428Y-108244642D02*
X125358571Y-108316071D01*
X125072857Y-108316071D01*
X124930000Y-108244642D01*
X124858571Y-108101785D01*
X124858571Y-107530357D01*
X124930000Y-107387500D01*
X125072857Y-107316071D01*
X125358571Y-107316071D01*
X125501428Y-107387500D01*
X125572857Y-107530357D01*
X125572857Y-107673214D01*
X124858571Y-107816071D01*
X126215714Y-108316071D02*
X126215714Y-107316071D01*
X126215714Y-107601785D02*
X126287142Y-107458928D01*
X126358571Y-107387500D01*
X126501428Y-107316071D01*
X126644285Y-107316071D01*
X96059642Y-133014661D02*
X96916785Y-133014661D01*
X96488214Y-134514661D02*
X96488214Y-133014661D01*
X97631071Y-134514661D02*
X97488214Y-134443232D01*
X97416785Y-134371804D01*
X97345357Y-134228947D01*
X97345357Y-133800375D01*
X97416785Y-133657518D01*
X97488214Y-133586090D01*
X97631071Y-133514661D01*
X97845357Y-133514661D01*
X97988214Y-133586090D01*
X98059642Y-133657518D01*
X98131071Y-133800375D01*
X98131071Y-134228947D01*
X98059642Y-134371804D01*
X97988214Y-134443232D01*
X97845357Y-134514661D01*
X97631071Y-134514661D01*
X100559642Y-133514661D02*
X100559642Y-134728947D01*
X100488214Y-134871804D01*
X100416785Y-134943232D01*
X100273928Y-135014661D01*
X100059642Y-135014661D01*
X99916785Y-134943232D01*
X100559642Y-134443232D02*
X100416785Y-134514661D01*
X100131071Y-134514661D01*
X99988214Y-134443232D01*
X99916785Y-134371804D01*
X99845357Y-134228947D01*
X99845357Y-133800375D01*
X99916785Y-133657518D01*
X99988214Y-133586090D01*
X100131071Y-133514661D01*
X100416785Y-133514661D01*
X100559642Y-133586090D01*
X101845357Y-134443232D02*
X101702500Y-134514661D01*
X101416785Y-134514661D01*
X101273928Y-134443232D01*
X101202500Y-134300375D01*
X101202500Y-133728947D01*
X101273928Y-133586090D01*
X101416785Y-133514661D01*
X101702500Y-133514661D01*
X101845357Y-133586090D01*
X101916785Y-133728947D01*
X101916785Y-133871804D01*
X101202500Y-134014661D01*
X102345357Y-133514661D02*
X102916785Y-133514661D01*
X102559642Y-133014661D02*
X102559642Y-134300375D01*
X102631071Y-134443232D01*
X102773928Y-134514661D01*
X102916785Y-134514661D01*
X104345357Y-133514661D02*
X104916785Y-133514661D01*
X104559642Y-133014661D02*
X104559642Y-134300375D01*
X104631071Y-134443232D01*
X104773928Y-134514661D01*
X104916785Y-134514661D01*
X105631071Y-134514661D02*
X105488214Y-134443232D01*
X105416785Y-134371804D01*
X105345357Y-134228947D01*
X105345357Y-133800375D01*
X105416785Y-133657518D01*
X105488214Y-133586090D01*
X105631071Y-133514661D01*
X105845357Y-133514661D01*
X105988214Y-133586090D01*
X106059642Y-133657518D01*
X106131071Y-133800375D01*
X106131071Y-134228947D01*
X106059642Y-134371804D01*
X105988214Y-134443232D01*
X105845357Y-134514661D01*
X105631071Y-134514661D01*
X107702500Y-133514661D02*
X108273928Y-133514661D01*
X107916785Y-133014661D02*
X107916785Y-134300375D01*
X107988214Y-134443232D01*
X108131071Y-134514661D01*
X108273928Y-134514661D01*
X108773928Y-134514661D02*
X108773928Y-133014661D01*
X109416785Y-134514661D02*
X109416785Y-133728947D01*
X109345357Y-133586090D01*
X109202500Y-133514661D01*
X108988214Y-133514661D01*
X108845357Y-133586090D01*
X108773928Y-133657518D01*
X110702500Y-134443232D02*
X110559642Y-134514661D01*
X110273928Y-134514661D01*
X110131071Y-134443232D01*
X110059642Y-134300375D01*
X110059642Y-133728947D01*
X110131071Y-133586090D01*
X110273928Y-133514661D01*
X110559642Y-133514661D01*
X110702500Y-133586090D01*
X110773928Y-133728947D01*
X110773928Y-133871804D01*
X110059642Y-134014661D01*
X112773928Y-134514661D02*
X112631071Y-134443232D01*
X112559642Y-134371804D01*
X112488214Y-134228947D01*
X112488214Y-133800375D01*
X112559642Y-133657518D01*
X112631071Y-133586090D01*
X112773928Y-133514661D01*
X112988214Y-133514661D01*
X113131071Y-133586090D01*
X113202500Y-133657518D01*
X113273928Y-133800375D01*
X113273928Y-134228947D01*
X113202500Y-134371804D01*
X113131071Y-134443232D01*
X112988214Y-134514661D01*
X112773928Y-134514661D01*
X113702500Y-133514661D02*
X114273928Y-133514661D01*
X113916785Y-133014661D02*
X113916785Y-134300375D01*
X113988214Y-134443232D01*
X114131071Y-134514661D01*
X114273928Y-134514661D01*
X114773928Y-134514661D02*
X114773928Y-133014661D01*
X115416785Y-134514661D02*
X115416785Y-133728947D01*
X115345357Y-133586090D01*
X115202500Y-133514661D01*
X114988214Y-133514661D01*
X114845357Y-133586090D01*
X114773928Y-133657518D01*
X116702500Y-134443232D02*
X116559642Y-134514661D01*
X116273928Y-134514661D01*
X116131071Y-134443232D01*
X116059642Y-134300375D01*
X116059642Y-133728947D01*
X116131071Y-133586090D01*
X116273928Y-133514661D01*
X116559642Y-133514661D01*
X116702500Y-133586090D01*
X116773928Y-133728947D01*
X116773928Y-133871804D01*
X116059642Y-134014661D01*
X117416785Y-134514661D02*
X117416785Y-133514661D01*
X117416785Y-133800375D02*
X117488214Y-133657518D01*
X117559642Y-133586090D01*
X117702500Y-133514661D01*
X117845357Y-133514661D01*
X104488214Y-136858232D02*
X104702500Y-136929661D01*
X105059642Y-136929661D01*
X105202500Y-136858232D01*
X105273928Y-136786804D01*
X105345357Y-136643947D01*
X105345357Y-136501090D01*
X105273928Y-136358232D01*
X105202500Y-136286804D01*
X105059642Y-136215375D01*
X104773928Y-136143947D01*
X104631071Y-136072518D01*
X104559642Y-136001090D01*
X104488214Y-135858232D01*
X104488214Y-135715375D01*
X104559642Y-135572518D01*
X104631071Y-135501090D01*
X104773928Y-135429661D01*
X105131071Y-135429661D01*
X105345357Y-135501090D01*
X105988214Y-136929661D02*
X105988214Y-135929661D01*
X105988214Y-135429661D02*
X105916785Y-135501090D01*
X105988214Y-135572518D01*
X106059642Y-135501090D01*
X105988214Y-135429661D01*
X105988214Y-135572518D01*
X107345357Y-136929661D02*
X107345357Y-135429661D01*
X107345357Y-136858232D02*
X107202500Y-136929661D01*
X106916785Y-136929661D01*
X106773928Y-136858232D01*
X106702500Y-136786804D01*
X106631071Y-136643947D01*
X106631071Y-136215375D01*
X106702500Y-136072518D01*
X106773928Y-136001090D01*
X106916785Y-135929661D01*
X107202500Y-135929661D01*
X107345357Y-136001090D01*
X108631071Y-136858232D02*
X108488214Y-136929661D01*
X108202500Y-136929661D01*
X108059642Y-136858232D01*
X107988214Y-136715375D01*
X107988214Y-136143947D01*
X108059642Y-136001090D01*
X108202500Y-135929661D01*
X108488214Y-135929661D01*
X108631071Y-136001090D01*
X108702500Y-136143947D01*
X108702500Y-136286804D01*
X107988214Y-136429661D01*
X109345357Y-136786804D02*
X109416785Y-136858232D01*
X109345357Y-136929661D01*
X109273928Y-136858232D01*
X109345357Y-136786804D01*
X109345357Y-136929661D01*
X109345357Y-136358232D02*
X109273928Y-135501090D01*
X109345357Y-135429661D01*
X109416785Y-135501090D01*
X109345357Y-136358232D01*
X109345357Y-135429661D01*
D11*
%TO.C,M2*%
X88481089Y-124588613D02*
X88481089Y-123588613D01*
X88814422Y-124302899D01*
X89147755Y-123588613D01*
X89147755Y-124588613D01*
X89576327Y-123683852D02*
X89623946Y-123636233D01*
X89719184Y-123588613D01*
X89957279Y-123588613D01*
X90052517Y-123636233D01*
X90100136Y-123683852D01*
X90147755Y-123779090D01*
X90147755Y-123874328D01*
X90100136Y-124017185D01*
X89528708Y-124588613D01*
X90147755Y-124588613D01*
%TO.C,LIS3DH Connector*%
X123389680Y-95212624D02*
X123389680Y-95688814D01*
X122389680Y-95688814D01*
X123389680Y-94879290D02*
X122389680Y-94879290D01*
X123342061Y-94450719D02*
X123389680Y-94307862D01*
X123389680Y-94069766D01*
X123342061Y-93974528D01*
X123294442Y-93926909D01*
X123199204Y-93879290D01*
X123103966Y-93879290D01*
X123008728Y-93926909D01*
X122961109Y-93974528D01*
X122913490Y-94069766D01*
X122865871Y-94260243D01*
X122818252Y-94355481D01*
X122770633Y-94403100D01*
X122675395Y-94450719D01*
X122580157Y-94450719D01*
X122484919Y-94403100D01*
X122437300Y-94355481D01*
X122389680Y-94260243D01*
X122389680Y-94022147D01*
X122437300Y-93879290D01*
X122389680Y-93545957D02*
X122389680Y-92926909D01*
X122770633Y-93260243D01*
X122770633Y-93117385D01*
X122818252Y-93022147D01*
X122865871Y-92974528D01*
X122961109Y-92926909D01*
X123199204Y-92926909D01*
X123294442Y-92974528D01*
X123342061Y-93022147D01*
X123389680Y-93117385D01*
X123389680Y-93403100D01*
X123342061Y-93498338D01*
X123294442Y-93545957D01*
X123389680Y-92498338D02*
X122389680Y-92498338D01*
X122389680Y-92260243D01*
X122437300Y-92117385D01*
X122532538Y-92022147D01*
X122627776Y-91974528D01*
X122818252Y-91926909D01*
X122961109Y-91926909D01*
X123151585Y-91974528D01*
X123246823Y-92022147D01*
X123342061Y-92117385D01*
X123389680Y-92260243D01*
X123389680Y-92498338D01*
X123389680Y-91498338D02*
X122389680Y-91498338D01*
X122865871Y-91498338D02*
X122865871Y-90926909D01*
X123389680Y-90926909D02*
X122389680Y-90926909D01*
X123294442Y-89117385D02*
X123342061Y-89165005D01*
X123389680Y-89307862D01*
X123389680Y-89403100D01*
X123342061Y-89545957D01*
X123246823Y-89641195D01*
X123151585Y-89688814D01*
X122961109Y-89736433D01*
X122818252Y-89736433D01*
X122627776Y-89688814D01*
X122532538Y-89641195D01*
X122437300Y-89545957D01*
X122389680Y-89403100D01*
X122389680Y-89307862D01*
X122437300Y-89165005D01*
X122484919Y-89117385D01*
X123389680Y-88545957D02*
X123342061Y-88641195D01*
X123294442Y-88688814D01*
X123199204Y-88736433D01*
X122913490Y-88736433D01*
X122818252Y-88688814D01*
X122770633Y-88641195D01*
X122723014Y-88545957D01*
X122723014Y-88403100D01*
X122770633Y-88307862D01*
X122818252Y-88260243D01*
X122913490Y-88212624D01*
X123199204Y-88212624D01*
X123294442Y-88260243D01*
X123342061Y-88307862D01*
X123389680Y-88403100D01*
X123389680Y-88545957D01*
X122723014Y-87784052D02*
X123389680Y-87784052D01*
X122818252Y-87784052D02*
X122770633Y-87736433D01*
X122723014Y-87641195D01*
X122723014Y-87498338D01*
X122770633Y-87403100D01*
X122865871Y-87355481D01*
X123389680Y-87355481D01*
X122723014Y-86879290D02*
X123389680Y-86879290D01*
X122818252Y-86879290D02*
X122770633Y-86831671D01*
X122723014Y-86736433D01*
X122723014Y-86593576D01*
X122770633Y-86498338D01*
X122865871Y-86450719D01*
X123389680Y-86450719D01*
X123342061Y-85593576D02*
X123389680Y-85688814D01*
X123389680Y-85879290D01*
X123342061Y-85974528D01*
X123246823Y-86022147D01*
X122865871Y-86022147D01*
X122770633Y-85974528D01*
X122723014Y-85879290D01*
X122723014Y-85688814D01*
X122770633Y-85593576D01*
X122865871Y-85545957D01*
X122961109Y-85545957D01*
X123056347Y-86022147D01*
X123342061Y-84688814D02*
X123389680Y-84784052D01*
X123389680Y-84974528D01*
X123342061Y-85069766D01*
X123294442Y-85117385D01*
X123199204Y-85165005D01*
X122913490Y-85165005D01*
X122818252Y-85117385D01*
X122770633Y-85069766D01*
X122723014Y-84974528D01*
X122723014Y-84784052D01*
X122770633Y-84688814D01*
X122723014Y-84403100D02*
X122723014Y-84022147D01*
X122389680Y-84260243D02*
X123246823Y-84260243D01*
X123342061Y-84212624D01*
X123389680Y-84117385D01*
X123389680Y-84022147D01*
X123389680Y-83545957D02*
X123342061Y-83641195D01*
X123294442Y-83688814D01*
X123199204Y-83736433D01*
X122913490Y-83736433D01*
X122818252Y-83688814D01*
X122770633Y-83641195D01*
X122723014Y-83545957D01*
X122723014Y-83403100D01*
X122770633Y-83307862D01*
X122818252Y-83260243D01*
X122913490Y-83212624D01*
X123199204Y-83212624D01*
X123294442Y-83260243D01*
X123342061Y-83307862D01*
X123389680Y-83403100D01*
X123389680Y-83545957D01*
X123389680Y-82784052D02*
X122723014Y-82784052D01*
X122913490Y-82784052D02*
X122818252Y-82736433D01*
X122770633Y-82688814D01*
X122723014Y-82593576D01*
X122723014Y-82498338D01*
%TO.C,M2*%
X88481089Y-83948613D02*
X88481089Y-82948613D01*
X88814422Y-83662899D01*
X89147755Y-82948613D01*
X89147755Y-83948613D01*
X89576327Y-83043852D02*
X89623946Y-82996233D01*
X89719184Y-82948613D01*
X89957279Y-82948613D01*
X90052517Y-82996233D01*
X90100136Y-83043852D01*
X90147755Y-83139090D01*
X90147755Y-83234328D01*
X90100136Y-83377185D01*
X89528708Y-83948613D01*
X90147755Y-83948613D01*
%TO.C,SD Card Reader Connector*%
X121752026Y-124051739D02*
X121799645Y-123908882D01*
X121799645Y-123670787D01*
X121752026Y-123575549D01*
X121704407Y-123527929D01*
X121609169Y-123480310D01*
X121513931Y-123480310D01*
X121418693Y-123527929D01*
X121371074Y-123575549D01*
X121323455Y-123670787D01*
X121275836Y-123861263D01*
X121228217Y-123956501D01*
X121180598Y-124004120D01*
X121085360Y-124051739D01*
X120990122Y-124051739D01*
X120894884Y-124004120D01*
X120847265Y-123956501D01*
X120799645Y-123861263D01*
X120799645Y-123623168D01*
X120847265Y-123480310D01*
X121799645Y-123051739D02*
X120799645Y-123051739D01*
X120799645Y-122813644D01*
X120847265Y-122670787D01*
X120942503Y-122575549D01*
X121037741Y-122527929D01*
X121228217Y-122480310D01*
X121371074Y-122480310D01*
X121561550Y-122527929D01*
X121656788Y-122575549D01*
X121752026Y-122670787D01*
X121799645Y-122813644D01*
X121799645Y-123051739D01*
X121704407Y-120718406D02*
X121752026Y-120766025D01*
X121799645Y-120908882D01*
X121799645Y-121004120D01*
X121752026Y-121146977D01*
X121656788Y-121242215D01*
X121561550Y-121289834D01*
X121371074Y-121337453D01*
X121228217Y-121337453D01*
X121037741Y-121289834D01*
X120942503Y-121242215D01*
X120847265Y-121146977D01*
X120799645Y-121004120D01*
X120799645Y-120908882D01*
X120847265Y-120766025D01*
X120894884Y-120718406D01*
X121799645Y-119861263D02*
X121275836Y-119861263D01*
X121180598Y-119908882D01*
X121132979Y-120004120D01*
X121132979Y-120194596D01*
X121180598Y-120289834D01*
X121752026Y-119861263D02*
X121799645Y-119956501D01*
X121799645Y-120194596D01*
X121752026Y-120289834D01*
X121656788Y-120337453D01*
X121561550Y-120337453D01*
X121466312Y-120289834D01*
X121418693Y-120194596D01*
X121418693Y-119956501D01*
X121371074Y-119861263D01*
X121799645Y-119385072D02*
X121132979Y-119385072D01*
X121323455Y-119385072D02*
X121228217Y-119337453D01*
X121180598Y-119289834D01*
X121132979Y-119194596D01*
X121132979Y-119099358D01*
X121799645Y-118337453D02*
X120799645Y-118337453D01*
X121752026Y-118337453D02*
X121799645Y-118432691D01*
X121799645Y-118623168D01*
X121752026Y-118718406D01*
X121704407Y-118766025D01*
X121609169Y-118813644D01*
X121323455Y-118813644D01*
X121228217Y-118766025D01*
X121180598Y-118718406D01*
X121132979Y-118623168D01*
X121132979Y-118432691D01*
X121180598Y-118337453D01*
X121799645Y-116527929D02*
X121323455Y-116861263D01*
X121799645Y-117099358D02*
X120799645Y-117099358D01*
X120799645Y-116718406D01*
X120847265Y-116623168D01*
X120894884Y-116575549D01*
X120990122Y-116527929D01*
X121132979Y-116527929D01*
X121228217Y-116575549D01*
X121275836Y-116623168D01*
X121323455Y-116718406D01*
X121323455Y-117099358D01*
X121752026Y-115718406D02*
X121799645Y-115813644D01*
X121799645Y-116004120D01*
X121752026Y-116099358D01*
X121656788Y-116146977D01*
X121275836Y-116146977D01*
X121180598Y-116099358D01*
X121132979Y-116004120D01*
X121132979Y-115813644D01*
X121180598Y-115718406D01*
X121275836Y-115670787D01*
X121371074Y-115670787D01*
X121466312Y-116146977D01*
X121799645Y-114813644D02*
X121275836Y-114813644D01*
X121180598Y-114861263D01*
X121132979Y-114956501D01*
X121132979Y-115146977D01*
X121180598Y-115242215D01*
X121752026Y-114813644D02*
X121799645Y-114908882D01*
X121799645Y-115146977D01*
X121752026Y-115242215D01*
X121656788Y-115289834D01*
X121561550Y-115289834D01*
X121466312Y-115242215D01*
X121418693Y-115146977D01*
X121418693Y-114908882D01*
X121371074Y-114813644D01*
X121799645Y-113908882D02*
X120799645Y-113908882D01*
X121752026Y-113908882D02*
X121799645Y-114004120D01*
X121799645Y-114194596D01*
X121752026Y-114289834D01*
X121704407Y-114337453D01*
X121609169Y-114385072D01*
X121323455Y-114385072D01*
X121228217Y-114337453D01*
X121180598Y-114289834D01*
X121132979Y-114194596D01*
X121132979Y-114004120D01*
X121180598Y-113908882D01*
X121752026Y-113051739D02*
X121799645Y-113146977D01*
X121799645Y-113337453D01*
X121752026Y-113432691D01*
X121656788Y-113480310D01*
X121275836Y-113480310D01*
X121180598Y-113432691D01*
X121132979Y-113337453D01*
X121132979Y-113146977D01*
X121180598Y-113051739D01*
X121275836Y-113004120D01*
X121371074Y-113004120D01*
X121466312Y-113480310D01*
X121799645Y-112575549D02*
X121132979Y-112575549D01*
X121323455Y-112575549D02*
X121228217Y-112527929D01*
X121180598Y-112480310D01*
X121132979Y-112385072D01*
X121132979Y-112289834D01*
X121704407Y-110623168D02*
X121752026Y-110670787D01*
X121799645Y-110813644D01*
X121799645Y-110908882D01*
X121752026Y-111051739D01*
X121656788Y-111146977D01*
X121561550Y-111194596D01*
X121371074Y-111242215D01*
X121228217Y-111242215D01*
X121037741Y-111194596D01*
X120942503Y-111146977D01*
X120847265Y-111051739D01*
X120799645Y-110908882D01*
X120799645Y-110813644D01*
X120847265Y-110670787D01*
X120894884Y-110623168D01*
X121799645Y-110051739D02*
X121752026Y-110146977D01*
X121704407Y-110194596D01*
X121609169Y-110242215D01*
X121323455Y-110242215D01*
X121228217Y-110194596D01*
X121180598Y-110146977D01*
X121132979Y-110051739D01*
X121132979Y-109908882D01*
X121180598Y-109813644D01*
X121228217Y-109766025D01*
X121323455Y-109718406D01*
X121609169Y-109718406D01*
X121704407Y-109766025D01*
X121752026Y-109813644D01*
X121799645Y-109908882D01*
X121799645Y-110051739D01*
X121132979Y-109289834D02*
X121799645Y-109289834D01*
X121228217Y-109289834D02*
X121180598Y-109242215D01*
X121132979Y-109146977D01*
X121132979Y-109004120D01*
X121180598Y-108908882D01*
X121275836Y-108861263D01*
X121799645Y-108861263D01*
X121132979Y-108385072D02*
X121799645Y-108385072D01*
X121228217Y-108385072D02*
X121180598Y-108337453D01*
X121132979Y-108242215D01*
X121132979Y-108099358D01*
X121180598Y-108004120D01*
X121275836Y-107956501D01*
X121799645Y-107956501D01*
X121752026Y-107099358D02*
X121799645Y-107194596D01*
X121799645Y-107385072D01*
X121752026Y-107480310D01*
X121656788Y-107527929D01*
X121275836Y-107527929D01*
X121180598Y-107480310D01*
X121132979Y-107385072D01*
X121132979Y-107194596D01*
X121180598Y-107099358D01*
X121275836Y-107051739D01*
X121371074Y-107051739D01*
X121466312Y-107527929D01*
X121752026Y-106194596D02*
X121799645Y-106289834D01*
X121799645Y-106480310D01*
X121752026Y-106575549D01*
X121704407Y-106623168D01*
X121609169Y-106670787D01*
X121323455Y-106670787D01*
X121228217Y-106623168D01*
X121180598Y-106575549D01*
X121132979Y-106480310D01*
X121132979Y-106289834D01*
X121180598Y-106194596D01*
X121132979Y-105908882D02*
X121132979Y-105527929D01*
X120799645Y-105766025D02*
X121656788Y-105766025D01*
X121752026Y-105718406D01*
X121799645Y-105623168D01*
X121799645Y-105527929D01*
X121799645Y-105051739D02*
X121752026Y-105146977D01*
X121704407Y-105194596D01*
X121609169Y-105242215D01*
X121323455Y-105242215D01*
X121228217Y-105194596D01*
X121180598Y-105146977D01*
X121132979Y-105051739D01*
X121132979Y-104908882D01*
X121180598Y-104813644D01*
X121228217Y-104766025D01*
X121323455Y-104718406D01*
X121609169Y-104718406D01*
X121704407Y-104766025D01*
X121752026Y-104813644D01*
X121799645Y-104908882D01*
X121799645Y-105051739D01*
X121799645Y-104289834D02*
X121132979Y-104289834D01*
X121323455Y-104289834D02*
X121228217Y-104242215D01*
X121180598Y-104194596D01*
X121132979Y-104099358D01*
X121132979Y-104004120D01*
%TO.C,*%
D12*
%TO.C,LIS3DH Connector*%
X118437007Y-82525834D02*
X119767007Y-82525834D01*
X118437007Y-97885834D02*
X121097007Y-97885834D01*
X118437007Y-83855834D02*
X118437007Y-82525834D01*
X118437007Y-85125834D02*
X118437007Y-97885834D01*
X118437007Y-85125834D02*
X121097007Y-85125834D01*
X121097007Y-85125834D02*
X121097007Y-97885834D01*
%TO.C,SD Card Reader Connector*%
X117195613Y-109221233D02*
X118525613Y-109221233D01*
X117195613Y-124581233D02*
X119855613Y-124581233D01*
X117195613Y-111821233D02*
X117195613Y-124581233D01*
X117195613Y-111821233D02*
X119855613Y-111821233D01*
X117195613Y-110551233D02*
X117195613Y-109221233D01*
X119855613Y-111821233D02*
X119855613Y-124581233D01*
%TD*%
M02*
